<mxfile host="app.diagrams.net" modified="2023-02-14T08:58:20.382Z" agent="5.0 (Macintosh; Intel Mac OS X 10_15_7) AppleWebKit/537.36 (KHTML, like Gecko) Chrome/109.0.0.0 Safari/537.36" etag="UbnCrZ5_sZgpJprFQhLw" version="20.8.20" type="github">
  <diagram name="Page-1" id="pAexvWZPMWYGW5b6QF1o">
    <mxGraphModel dx="2258" dy="1418" grid="1" gridSize="10" guides="1" tooltips="1" connect="1" arrows="1" fold="1" page="1" pageScale="1" pageWidth="850" pageHeight="1100" math="0" shadow="0">
      <root>
        <mxCell id="0" />
        <mxCell id="1" parent="0" />
        <mxCell id="_bihI_Zap63-RLcw_ckO-3" value="" style="shape=image;verticalLabelPosition=bottom;labelBackgroundColor=default;verticalAlign=top;aspect=fixed;imageAspect=0;image=data:image/png,iVBORw0KGgoAAAANSUhEUgAACDAAAAVyCAYAAAD9aZwCAAAMPWlDQ1BJQ0MgUHJvZmlsZQAASImVVwdYU8kWnluSkEBogQhICb0JIjWAlBBaAOndRkgChBJjIKjY0UUF1y4iYENXRRQ7zY7YWRR7XyyoKOtiwa68SQFd95Xvne+be//7z5n/nDl3bhkANI5zxeJcVBOAPFGBJDYkgJGcksogPQUIIAJt4AXoXF6+mBUdHQGgDZ7/bu+uQ29oVxxkWv/s/6+mxRfk8wBAoiFO5+fz8iA+AABezRNLCgAgynjzKQViGYYN6EhgghAvlOFMBa6W4XQF3iP3iY9lQ9wGgIoalyvJBED9EuQZhbxMqKHeB7GTiC8UAaDBgNg3L28SH+I0iG2gjxhimT4z/QedzL9ppg9pcrmZQ1gxF7mpBArzxbncaf9nOf635eVKB2NYwaaWJQmNlc0Z1u1mzqRwGVaDuFeUHhkFsTbEH4R8uT/EKCVLGpqg8EcNeflsWDNAh9iJzw0Mh9gQ4mBRbmSEkk/PEAZzIIYrBJ0qLODEQ6wH8UJBflCc0mejZFKsMhbakCFhs5T8Wa5EHlcW6740J4Gl1H+dJeAo9TH1oqz4JIgpEFsUChMjIVaH2DE/Jy5c6TO6KIsdOegjkcbK8reAOFYgCglQ6GOFGZLgWKV/aV7+4HyxjVlCTqQS7yvIig9V1Adr43Hl+cO5YJcEIlbCoI4gPzlicC58QWCQYu7YM4EoIU6p80FcEBCrGItTxLnRSn/cTJAbIuPNIHbNL4xTjsUTC+CCVOjjGeKC6HhFnnhRNjcsWpEPvgxEADYIBAwghS0dTALZQNjR29gLrxQ9wYALJCATCICDkhkckSTvEcFjHCgCf0IkAPlD4wLkvQJQCPmvQ6zi6AAy5L2F8hE54AnEeSAc5MJrqXyUaChaIngMGeE/onNh48F8c2GT9f97fpD9zrAgE6FkpIMRGRqDnsQgYiAxlBhMtMUNcF/cG4+AR3/YnHEm7jk4j+/+hCeETsJDwjVCF+HWRGGx5Kcsx4AuqB+srEX6j7XAraCmGx6A+0B1qIzTcQPggLvCOCzcD0Z2gyxbmbesKoyftP82gx/uhtKP7ERGycPI/mSbn0eq26m7DanIav1jfRS5pg/Vmz3U83N89g/V58Nz+M+e2EJsP3YGO4Gdww5jjYCBHcOasHbsiAwPra7H8tU1GC1Wnk8O1BH+I97gnZVVMt+pzqnH6Yuir0AwVfaOBuxJ4mkSYWZWAYMFvwgCBkfEcxzBcHZydgFA9n1RvL7exMi/Gwi9/Ts37w8AfI4NDAwc+s6FHQNgrwd8/Ju/czZM+OlQBeBsM08qKVRwuOxAgG8JDfik6QNjYA5s4HycgTvwBv4gCISBKBAPUsAEmH0WXOcSMAXMAHNBCSgDy8BqUAk2gM1gO9gF9oFGcBicAKfBBXAJXAN34OrpBi9AH3gHPiMIQkKoCA3RR0wQS8QecUaYiC8ShEQgsUgKkoZkIiJEisxA5iFlyAqkEtmE1CJ7kWbkBHIO6URuIQ+QHuQ18gnFUDVUBzVCrdCRKBNloeFoPDoezUQno0XofHQJWoHWoDvRBvQEegG9hnahL9B+DGCqGB0zxRwwJsbGorBULAOTYLOwUqwcq8HqsRZ4n69gXVgv9hEn4jScgTvAFRyKJ+A8fDI+C1+MV+Lb8Qa8Db+CP8D78G8EKsGQYE/wInAIyYRMwhRCCaGcsJVwkHAKPkvdhHdEIpFOtCZ6wGcxhZhNnE5cTFxH3E08TuwkPiL2k0gkfZI9yYcUReKSCkglpLWknaRjpMukbtIHFVUVExVnlWCVVBWRSrFKucoOlaMql1Weqnwma5ItyV7kKDKfPI28lLyF3EK+SO4mf6ZoUawpPpR4SjZlLqWCUk85RblLeaOqqmqm6qkaoypUnaNaobpH9azqA9WPatpqdmpstXFqUrUlatvUjqvdUntDpVKtqP7UVGoBdQm1lnqSep/6QZ2m7qjOUeerz1avUm9Qv6z+UoOsYanB0pigUaRRrrFf46JGryZZ00qTrcnVnKVZpdmseUOzX4umNUorSitPa7HWDq1zWs+0SdpW2kHafO352pu1T2o/omE0cxqbxqPNo22hnaJ16xB1rHU4Otk6ZTq7dDp0+nS1dV11E3Wn6lbpHtHtomN0KzqHnktfSt9Hv07/NMxoGGuYYNiiYfXDLg97rzdcz19PoFeqt1vvmt4nfYZ+kH6O/nL9Rv17BriBnUGMwRSD9QanDHqH6wz3Hs4bXjp83/DbhqihnWGs4XTDzYbthv1GxkYhRmKjtUYnjXqN6cb+xtnGq4yPGveY0Ex8TYQmq0yOmTxn6DJYjFxGBaON0WdqaBpqKjXdZNph+tnM2izBrNhst9k9c4o50zzDfJV5q3mfhYnFGIsZFnUWty3JlkzLLMs1lmcs31tZWyVZLbBqtHpmrWfNsS6yrrO+a0O18bOZbFNjc9WWaMu0zbFdZ3vJDrVzs8uyq7K7aI/au9sL7dfZd44gjPAcIRpRM+KGg5oDy6HQoc7hgSPdMcKx2LHR8eVIi5GpI5ePPDPym5ObU67TFqc7o7RHhY0qHtUy6rWznTPPucr5qgvVJdhltkuTyytXe1eB63rXm240tzFuC9xa3b66e7hL3OvdezwsPNI8qj1uMHWY0czFzLOeBM8Az9mehz0/erl7FXjt8/rL28E7x3uH97PR1qMFo7eMfuRj5sP12eTT5cvwTfPd6NvlZ+rH9avxe+hv7s/33+r/lGXLymbtZL0McAqQBBwMeM/2Ys9kHw/EAkMCSwM7grSDEoIqg+4HmwVnBtcF94W4hUwPOR5KCA0PXR56g2PE4XFqOX1hHmEzw9rC1cLjwivDH0bYRUgiWsagY8LGrBxzN9IyUhTZGAWiOFEro+5FW0dPjj4UQ4yJjqmKeRI7KnZG7Jk4WtzEuB1x7+ID4pfG30mwSZAmtCZqJI5LrE18nxSYtCKpK3lk8szkCykGKcKUplRSamLq1tT+sUFjV4/tHuc2rmTc9fHW46eOPzfBYELuhCMTNSZyJ+5PI6Qlpe1I+8KN4tZw+9M56dXpfTw2bw3vBd+fv4rfI/ARrBA8zfDJWJHxLNMnc2VmT5ZfVnlWr5AtrBS+yg7N3pD9PicqZ1vOQG5S7u48lby0vGaRtihH1DbJeNLUSZ1ie3GJuGuy1+TVk/sk4ZKt+Uj++PymAh34I98utZH+In1Q6FtYVfhhSuKU/VO1poqmtk+zm7Zo2tOi4KLfpuPTedNbZ5jOmDvjwUzWzE2zkFnps1pnm8+eP7t7Tsic7XMpc3Pm/l7sVLyi+O28pHkt843mz5n/6JeQX+pK1EskJTcWeC/YsBBfKFzYschl0dpF30r5pefLnMrKy74s5i0+/+uoXyt+HViSsaRjqfvS9cuIy0TLri/3W759hdaKohWPVo5Z2bCKsap01dvVE1efK3ct37CGska6pqsioqJprcXaZWu/VGZVXqsKqNpdbVi9qPr9Ov66y+v919dvMNpQtuHTRuHGm5tCNjXUWNWUbyZuLtz8ZEviljO/MX+r3WqwtWzr122ibV3bY7e31XrU1u4w3LG0Dq2T1vXsHLfz0q7AXU31DvWbdtN3l+0Be6R7nu9N23t9X/i+1v3M/fUHLA9UH6QdLG1AGqY19DVmNXY1pTR1Noc1t7Z4txw85Hho22HTw1VHdI8sPUo5Ov/owLGiY/3Hxcd7T2SeeNQ6sfXOyeSTV9ti2jpOhZ86ezr49MkzrDPHzvqcPXzO61zzeeb5xgvuFxra3doP/u72+8EO946Gix4Xmy55XmrpHN159LLf5RNXAq+cvsq5euFa5LXO6wnXb94Yd6PrJv/ms1u5t17dLrz9+c6cu4S7pfc075XfN7xf84ftH7u73LuOPAh80P4w7uGdR7xHLx7nP/7SPf8J9Un5U5Ontc+cnx3uCe659Hzs8+4X4hefe0v+1Pqz+qXNywN/+f/V3pfc1/1K8mrg9eI3+m+2vXV929of3X//Xd67z+9LP+h/2P6R+fHMp6RPTz9P+UL6UvHV9mvLt/BvdwfyBgbEXAlX/iuAwYZmZADwehsA1BQAaHB/Rhmr2P/JDVHsWeUI/Ces2CPKzR2Aevj/HtML/25uALBnC9x+QX2NcQBEUwGI9wSoi8tQG9yryfeVMiPCfcDG6K/peeng35hiz/lD3j+fgUzVFfx8/hfcVXxzxIJ+tgAAADhlWElmTU0AKgAAAAgAAYdpAAQAAAABAAAAGgAAAAAAAqACAAQAAAABAAAIMKADAAQAAAABAAAFcgAAAACdUHqgAABAAElEQVR4AezdXbAkV4En9ppZRpoP1BqjlkBIGpDESIMkGCTAgzQRCBYQ84DwOiQ7bDGONWs7dvfFa8ds+GEd4bf1gzc2YvZxwxEz69iB2Qdpw6Z5MD3LIhGxkmb5kAAhLA1qAZIQ6INZtQSixczi/Nftc/tUdmZV1q26N29V/05Ed92syjx58nc+MvPkycxf+HkTJgIBAgQIECBAgAABAgQIECBAgAABAgQIECBAgAABAgQIECBAYESBXxxx3VZNgAABAgQIECBAgAABAgQIECBAgAABAgQIECBAgAABAgQIEJgKGMCgIBAgQIAAAQIECBAgQIAAAQIECBAgQIAAAQIECBAgQIAAAQKjCxjAMHoWSAABAgQIECBAgAABAgQIECBAgAABAgQIECBAgAABAgQIECBgAIMyQIAAAQIECBAgQIAAAQIECBAgQIAAAQIECBAgQIAAAQIECIwuYADD6FkgAQQIECBAgAABAgQIECBAgAABAgQIECBAgAABAgQIECBAgIABDMoAAQIECBAgQIAAAQIECBAgQIAAAQIECBAgQIAAAQIECBAgMLqAAQyjZ4EEECBAgAABAgQIECBAgAABAgQIECBAgAABAgQIECBAgAABAgYwKAMECBAgQIAAAQIECBAgQIAAAQIECBAgQIAAAQIECBAgQIDA6AIGMIyeBRJAgAABAgQIECBAgAABAgQIECBAgAABAgQIECBAgAABAgQIGMCgDBAgQIAAAQIECBAgQIAAAQIECBAgQIAAAQIECBAgQIAAAQKjCxjAMHoWSAABAgQIECBAgAABAgQIECBAgAABAgQIECBAgAABAgQIECBgAIMyQIAAAQIECBAgQIAAAQIECBAgQIAAAQIECBAgQIAAAQIECIwuYADD6FkgAQQIECBAgAABAgQIECBAgAABAgQIECBAgAABAgQIECBAgIABDMoAAQIECBAgQIAAAQIECBAgQIAAAQIECBAgQIAAAQIECBAgMLqAAQyjZ4EEECBAgAABAgQIECBAgAABAgQIECBAgAABAgQIECBAgAABAgYwKAMECBAgQIAAAQIECBAgQIAAAQIECBAgQIAAAQIECBAgQIDA6AIGMIyeBRJAgAABAgQIECBAgAABAgQIECBAgAABAgQIECBAgAABAgQIGMCgDBAgQIAAAQIECBAgQIAAAQIECBAgQIAAAQIECBAgQIAAAQKjCxjAMHoWSAABAgQIECBAgAABAgQIECBAgAABAgQIECBAgAABAgQIECBgAIMyQIAAAQIECBAgQIAAAQIECBAgQIAAAQIECBAgQIAAAQIECIwuYADD6FkgAQQIECBAgAABAgQIECBAgAABAgQIECBAgAABAgQIECBAgIABDMoAAQIECBAgQIAAAQIECBAgQIAAAQIECBAgQIAAAQIECBAgMLqAAQyjZ4EEECBAgAABAgQIECBAgAABAgQIECBAgAABAgQIECBAgAABAgYwKAMECBAgQIAAAQIECBAgQIAAAQIECBAgQIAAAQIECBAgQIDA6AIGMIyeBRJAgAABAgQIECBAgAABAgQIECBAgAABAgQIECBAgAABAgQIGMCgDBAgQIAAAQIECBAgQIAAAQIECBAgQIAAAQIECBAgQIAAAQKjCxjAMHoWSAABAgQIECBAgAABAgQIECBAgAABAgQIECBAgAABAgQIECBgAIMyQIAAAQIECBAgQIAAAQIECBAgQIAAAQIECBAgQIAAAQIECIwuYADD6FkgAQQIECBAgAABAgQIECBAgAABAgQIECBAgAABAgQIECBAgIABDMoAAQIECBAgQIAAAQIECBAgQIAAAQIECBAgQIAAAQIECBAgMLqAAQyjZ4EEECBAgAABAgQIECBAgAABAgQIECBAgAABAgQIECBAgAABAgYwKAMECBAgQIAAAQIECBAgQIAAAQIECBAgQIAAAQIECBAgQIDA6AIGMIyeBRJAgAABAgQIECBAgAABAgQIECBAgAABAgQIECBAgAABAgQIGMCgDBAgQIAAAQIECBAgQIAAAQIECBAgQIAAAQIECBAgQIAAAQKjCxjAMHoWSAABAgQIECBAgAABAgQIECBAgAABAgQIECBAgAABAgQIECBgAIMyQIAAAQIECBAgQIAAAQIECBAgQIAAAQIECBAgQIAAAQIECIwuYADD6FkgAQQIECBAgAABAgQIECBAgAABAgQIECBAgAABAgQIECBAgIABDMoAAQIECBAgQIAAAQIECBAgQIAAAQIECBAgQIAAAQIECBAgMLqAAQyjZ4EEECBAgAABAgQIECBAgAABAgQIECBAgAABAgQIECBAgAABAgYwKAMECBAgQIAAAQIECBAgQIAAAQIECBAgQIAAAQIECBAgQIDA6AIGMIyeBRJAgAABAgQIECBAgAABAgQIECBAgAABAgQIECBAgAABAgQIGMCgDBAgQIAAAQIECBAgQIAAAQIECBAgQIAAAQIECBAgQIAAAQKjCxjAMHoWSAABAgQIECBAgAABAgQIECBAgAABAgQIECBAgAABAgQIECBgAIMyQIAAAQIECBAgQIAAAQIECBAgQIAAAQIECBAgQIAAAQIECIwuYADD6FkgAQQIECBAgAABAgQIECBAgAABAgQIECBAgAABAgQIECBAgMDrtpngZz/768mp1/7jNm+ibSNAgAABAgQIECBAgAABAgQIECBAgAABAgQIECBAgAABAlshsNUDGP76P/588uprP9uKjLIRBAgQIECAAAECBAgQIECAAAECBAgQIECAAAECBAgQIEBgmwW8QmKbc9e2ESBAgAABAgQIECBAgAABAgQIECBAgAABAgQIECBAgACBDRH4hZ83YUPSunQys2nbu3VLc1iAAAECBAgQIECAAAECBAgQIECAAAECBAgQIECAAAECBAgcWoGtHsBwaNUljAABAgQIECBAgAABAgQIECBAgAABAgQIECBAgAABAgQIEJgR8AqJGQ4TBAgQIECAAAECBAgQIECAAAECBAgQIECAAAECBAgQIECAwBgCBjCMoW6dBAgQIECAAAECBAgQIECAAAECBAgQIECAAAECBAgQIECAwIyAAQwzHCYIECBAgAABAgQIECBAgAABAgQIECBAgAABAgQIECBAgACBMQQMYBhD3ToJECBAgAABAgQIECBAgAABAgQIECBAgAABAgQIECBAgACBGQEDGGY4TBAgQIAAAQIECBAgQIAAAQIECBAgQIAAAQIECBAgQIAAAQJjCBjAMIa6dRIgQIAAAQIECBAgQIAAAQIECBAgQIAAAQIECBAgQIAAAQIzAgYwzHCYIECAAAECBAgQIECAAAECBAgQIECAAAECBAgQIECAAAECBMYQMIBhDHXrJECAAAECBAgQIECAAAECBAgQIECAAAECBAgQIECAAAECBGYEDGCY4TBBgAABAgQIECBAgAABAgQIECBAgAABAgQIECBAgAABAgQIjCFgAMMY6tZJgAABAgQIECBAgAABAgQIECBAgAABAgQIECBAgAABAgQIzAgYwDDDYYIAAQIECBAgQIAAAQIECBAgQIAAAQIECBAgQIAAAQIECBAYQ8AAhjHUrZMAAQIECBAgQIAAAQIECBAgQIAAAQIECBAgQIAAAQIECBCYETCAYYbDBAECBAgQIECAAAECBAgQIECAAAECBAgQIECAAAECBAgQIDCGgAEMY6hbJwECBAgQIECAAAECBAgQIECAAAECBAgQIECAAAECBAgQIDAjYADDDIcJAgQIECBAgAABAgQIECBAgAABAgQIECBAgAABAgQIECBAYAwBAxjGULdOAgQIECBAgAABAgQIECBAgAABAgQIECBAgAABAgQIECBAYEbAAIYZDhMECBAgQIAAAQIECBAgQIAAAQIECBAgQIAAAQIECBAgQIDAGAIGMIyhbp0ECBAgQIAAAQIECBAgQIAAAQIECBAgQIAAAQIECBAgQIDAjIABDDMcJggQIECAAAECBAgQIECAAAECBAgQIECAAAECBAgQIECAAIExBAxgGEPdOgkQIECAAAECBAgQIECAAAECBAgQIECAAAECBAgQIECAAIEZAQMYZjhMECBAgAABAgQIECBAgAABAgQIECBAgAABAgQIECBAgAABAmMIGMAwhrp1EiBAgAABAgQIECBAgAABAgQIECBAgAABAgQIECBAgAABAjMCBjDMcJggQIAAAQIECBAgQIAAAQIECBAgQIAAAQIECBAgQIAAAQIExhAwgGEMdeskQIAAAQIECBAgQIAAAQIECBAgQIAAAQIECBAgQIAAAQIEZgQMYJjhMEGAAAECBAgQIECAAAECBAgQIECAAAECBAgQIECAAAECBAiMIWAAwxjq1kmAAAECBAgQIECAAAECBAgQIECAAAECBAgQIECAAAECBAjMCBjAMMNhggABAgQIECBAgAABAgQIECBAgAABAgQIECBAgAABAgQIEBhDwACGMdStkwABAgQIECBAgAABAgQIECBAgAABAgQIECBAgAABAgQIEJgRMIBhhsMEAQIECBAgQIAAAQIECBAgQIAAAQIECBAgQIAAAQIECBAgMIaAAQxjqFsnAQIECBAgQIAAAQIECBAgQIAAAQIECBAgQIAAAQIECBAgMCNgAMMMhwkCBAgQIECAAAECBAgQIECAAAECBAgQIECAAAECBAgQIEBgDAEDGMZQt04CBAgQIECAAAECBAgQIECAAAECBAgQIECAAAECBAgQIEBgRsAAhhkOEwQIECBAgAABAgQIECBAgAABAgQIECBAgAABAgQIECBAgMAYAgYwjKFunQQIECBAgAABAgQIECBAgAABAgQIECBAgAABAgQIECBAgMCMgAEMMxwmCBAgQIAAAQIECBAgQIAAAQIECBAgQIAAAQIECBAgQIAAgTEEDGAYQ906CRAgQIAAAQIECBAgQIAAAQIECBAgQIAAAQIECBAgQIAAgRkBAxhmOEwQIECAAAECBAgQIECAAAECBAgQIECAAAECBAgQIECAAAECYwgYwDCGunUSIECAAAECBAgQIECAAAECBAgQIECAAAECBAgQIECAAAECMwIGMMxwmCBAgAABAgQIECBAgAABAgQIECBAgAABAgQIECBAgAABAgTGEDCAYQx16yRAgAABAgQIECBAgAABAgQIECBAgAABAgQIECBAgAABAgRmBAxgmOEwQYAAAQIECBAgQIAAAQIECBAgQIAAAQIECBAgQIAAAQIECIwhYADDGOrWSYAAAQIECBAgQIAAAQIECBAgQIAAAQIECBAgQIAAAQIECMwIGMAww2GCAAECBAgQIECAAAECBAgQIECAAAECBAgQIECAAAECBAgQGEPAAIYx1K2TAAECBAgQIECAAAECBAgQIECAAAECBAgQIECAAAECBAgQmBEwgGGGwwQBAgQIECBAgAABAgQIECBAgAABAgQIECBAgAABAgQIECAwhoABDGOoWycBAgQIECBAgAABAgQIECBAgAABAgQIECBAgAABAgQIECAwI2AAwwyHCQIECBAgQIAAAQIECBAgQIAAAQIECBAgQIAAAQIECBAgQGAMAQMYxlC3TgIECBAgQIAAAQIECBAgQIAAAQIECBAgQIAAAQIECBAgQGBGwACGGQ4TBAgQIECAAAECBAgQIECAAAECBAgQIECAAAECBAgQIECAwBgCBjCMoW6dBAgQIECAAAECBAgQIECAAAECBAgQIECAAAECBAgQIECAwIyAAQwzHCYIECBAgAABAgQIECBAgAABAgQIECBAgAABAgQIECBAgACBMQQMYBhD3ToJECBAgAABAgQIECBAgAABAgQIECBAgAABAgQIECBAgACBGQEDGGY4TBAgQIAAAQIECBAgQIAAAQIECBAgQIAAAQIECBAgQIAAAQJjCBjAMIa6dRIgQIAAAQIECBAgQIAAAQIECBAgQIAAAQIECBAgQIAAAQIzAgYwzHCYIECAAAECBAgQIECAAAECBAgQIECAAAECBAgQIECAAAECBMYQMIBhDHXrJECAAAECBAgQIECAAAECBAgQIECAAAECBAgQIECAAAECBGYEDGCY4TBBgAABAgQIECBAgAABAgQIECBAgAABAgQIECBAgAABAgQIjCFgAMMY6tZJgAABAgQIECBAgAABAgQIECBAgAABAgQIECBAgAABAgQIzAgYwDDDYYIAAQIECBAgQIAAAQIECBAgQIAAAQIECBAgQIAAAQIECBAYQ8AAhjHUrZMAAQIECBAgQIAAAQIECBAgQIAAAQIECBAgQIAAAQIECBCYETCAYYbDBAECBAgQIECAAAECBAgQIECAAAECBAgQIECAAAECBAgQIDCGgAEMY6hbJwECBAgQIECAAAECBAgQIECAAAECBAgQIECAAAECBAgQIDAjYADDDIcJAgQIECBAgAABAgQIECBAgAABAgQIECBAgAABAgQIECBAYAwBAxjGULdOAgQIECBAgAABAgQIECBAgAABAgQIECBAgAABAgQIECBAYEbAAIYZDhMECBAgQIAAAQIECBAgQIAAAQIECBAgQIAAAQIECBAgQIDAGAIGMIyhbp0ECBAgQIAAAQIECBAgQIAAAQIECBAgQIAAAQIECBAgQIDAjIABDDMcJggQIECAAAECBAgQIECAAAECBAgQIECAAAECBAgQIECAAIExBAxgGEPdOgkQIECAAAECBAgQIECAAAECBAgQIECAAAECBAgQIECAAIEZAQMYZjhMECBAgAABAgQIECBAgAABAgQIECBAgAABAgQIECBAgAABAmMIGMAwhrp1EiBAgAABAgQIECBAgAABAgQIECBAgAABAgQIECBAgAABAjMCBjDMcJggQIAAAQIECBAgQIAAAQIECBAgQIAAAQIECBAgQIAAAQIExhAwgGEMdeskQIAAAQIECBAgQIAAAQIECBAgQIAAAQIECBAgQIAAAQIEZgQMYJjhMEGAAAECBAgQIECAAAECBAgQIECAAAECBAgQIECAAAECBAiMIWAAwxjq1kmAAAECBAgQIECAAAECBAgQIECAAAECBAgQIECAAAECBAjMCBjAMMNhggABAgQIECBAgAABAgQIECBAgAABAgQIECBAgAABAgQIEBhDwACGMdStkwABAgQIECBAgAABAgQIECBAgAABAgQIECBAgAABAgQIEJgRMIBhhsMEAQIECBAgQIAAAQIECBAgQIAAAQIECBAgQIAAAQIECBAgMIaAAQxjqFsnAQIECBAgQIAAAQIECBAgQIAAAQIECBAgQIAAAQIECBAgMCNgAMMMhwkCBAgQIECAAAECBAgQIECAAAECBAgQIECAAAECBAgQIEBgDAEDGMZQt04CBAgQIECAAAECBAgQIECAAAECBAgQIECAAAECBAgQIEBgRsAAhhkOEwQIECBAgAABAgQIECBAgAABAgQIECBAgAABAgQIECBAgMAYAgYwjKFunQQIECBAgAABAgQIECBAgAABAgQIECBAgAABAgQIECBAgMCMgAEMMxwmCBAgQIAAAQIECBAgQIAAAQIECBAgQIAAAQIECBAgQIAAgTEEDGAYQ906CRAgQIAAAQIECBAgQIAAAQIECBAgQIAAAQIECBAgQIAAgRkBAxhmOEwQIECAAAECBAgQIECAAAECBAgQIECAAAECBAgQIECAAAECYwgYwDCGunUSIECAAAECBAgQIECAAAECBAgQIECAAAECBAgQIECAAAECMwIGMMxwmCBAgAABAgQIECBAgAABAgQIECBAgAABAgQIECBAgAABAgTGEDCAYQx16yRAgAABAgQIECBAgAABAgQIECBAgAABAgQIECBAgAABAgRmBAxgmOEwQYAAAQIECBAgQIAAAQIECBAgQIAAAQIECBAgQIAAAQIECIwhYADDGOrWSYAAAQIECBAgQIAAAQIECBAgQIAAAQIECBAgQIAAAQIECMwIGMAww2GCAAECBAgQIECAAAECBAgQIECAAAECBAgQIECAAAECBAgQGEPAAIYx1K2TAAECBAgQIECAAAECBAgQIECAAAECBAgQIECAAAECBAgQmBEwgGGGwwQBAgQIECBAgAABAgQIECBAgAABAgQIECBAgAABAgQIECAwhoABDGOoWycBAgQIECBAgAABAgQIECBAgAABAgQIECBAgAABAgQIECAwI2AAwwyHCQIECBAgQIAAAQIECBAgQIAAAQIECBAgQIAAAQIECBAgQGAMAQMYxlC3TgIECBAgQIAAAQIECBAgQIAAAQIECBAgQIAAAQIECBAgQGBGwACGGQ4TBAgQIECAAAECBAgQIECAAAECBAgQIECAAAECBAgQIECAwBgCBjCMoW6dBAgQIECAAAECBAgQIECAAAECBAgQIECAAAECBAgQIECAwIyAAQwzHCYIECBAgAABAgQIECBAgAABAgQIECBAgAABAgQIECBAgACBMQQMYBhD3ToJECBAgAABAgQIECBAgAABAgQIECBAgAABAgQIECBAgACBGQEDGGY4TBAgQIAAAQIECBAgQIAAAQIECBAgQIAAAQIECBAgQIAAAQJjCBjAMIa6dRIgQIAAAQIECBAgQIAAAQIECBAgQIAAAQIECBAgQIAAAQIzAgYwzHCYIECAAAECBAgQIECAAAECBAgQIECAAAECBAgQIECAAAECBMYQMIBhDHXrJECAAAECBAgQIECAAAECBAgQIECAAAECBAgQIECAAAECBGYEDGCY4TBBgAABAgQIECBAgAABAgQIECBAgAABAgQIECBAgAABAgQIjCFgAMMY6tZJgAABAgQIECBAgAABAgQIECBAgAABAgQIECBAgAABAgQIzAgYwDDDYYIAAQIECBAgQIAAAQIECBAgQIAAAQIECBAgQIAAAQIECBAYQ8AAhjHUrZMAAQIECBAgQIAAAQIECBAgQIAAAQIECBAgQIAAAQIECBCYETCAYYbDBAECBAgQIECAAAECBAgQIECAAAECBAgQIECAAAECBAgQIDCGgAEMY6hbJwECBAgQIECAAAECBAgQIECAAAECBAgQIECAAAECBAgQIDAjYADDDIcJAgQIECBAgAABAgQIECBAgAABAgQIECBAgAABAgQIECBAYAyB142xUuskQIDAKgKnTv1s8vyLL01efvnVaTQXXPArk8vffHSVKC1LoFfg+Rdemrzw4snp7ylrF1904eT883+pd34/ECBAgAABAgQIECBwsAI5R3z6+y9OXnvtZ9MVH73oyOTioxcebCKsjQABAgQIECBAgAABAgTWImAAw1oYRXJQAn/86c9PXnr5J4NXlwuNFx+9YHLdNVcsvMB992funzz97IvTuO+8/eaF8w9OhBnXKvDQN05MHvzK45N0UNXhumsum9z2wZsmJ5vycfzeh5vf/2py9ZVvnLzv3dfWs03//tZjT00+18yTUJabTlT/Pfjlx6bryVfve/c1k/e95+x4qtnn/lmn6aZ3XDl5+7VXzJ1/E348F+pLBsncd/83px2hdZ4cbTpCf/+O99dfrf3vdL7efez+abx9ZXRIOV57wkaOMPX/4W88OTnvvF+a3P7R90yOXPCrI6doM1b/h//82G5C/6e/e/vu3+fCH6X9zYC3q6580+TWm68/a7Pr+nb5my+a3Hn7LWfN4wsCQwWG7B9LW5ZBcbd94F3asqG4GzLfkDKwIZsimQQ2RqDvHPHGd1w1ufWWs/f969qwdZ4zritN64qnHD9e2Bxvf/KuD60r2o2I5777H5mc+M4PJ5e9+Q3NseM7msHruk7HzLgh+1XHVmPmkHUTIECAAAECBPZHwCsk9sdVrIdEIBcgH33s6eZC4AOTY5/70vTi9iFJmmTsQSAnpbmg3B68kKiuePPF0xiPf+Hh6QXn5P2DX85Ah7/aw5rWu0idpgycOAxpWu8Wbl9sueiZdiMXNtvhkjdc0P7K9AEInGrupkv9zyC21O8MVBIILBLIfiP1OOXmoa/n7xcWLeJ3AvsqkPJY2rL8/VAzKEsgQIAAgb0L5Jyv7xzx6re+ce8RW/KcFMgg8eybc+yYvqRHH//eOemwSRvt2GqTcktaCRAgQIAAAQLDBQwjHm5lzkMmkEe4/3JzF25X+Glzoat9kfuJ7/xg+hj4O5qnK7hrt0vtcH+XC8p58kIJuZvmxuZpBuc3ZeD55vH+edqGsJrAkDsbVlvD5ixdd4Je3Dx+9tZbbmjK2JHJyVeaJ8D83Ni/w5CTaeeFwy+QtvuPmqcnJRyGO/hee238QW2HP9ekcD8Fzj9v9vTr1KnX9nN1hzLu+glCqz7l6qA2sH4K3N9p7kR2LnFQ8odrPdt8t32kj3/hoeZi7dNT9I82T4fZhKfG7ZwjPrZbUOpzxBPN+f9eXjO4iQ67AP5YWaB9jtHuV1p5BSIgQIAAAQIECBAgQGCQwGwP2qBFzETgcAh8oHkM9LxOlZxoptPiwa881oyef3Wa6Iyiz127Hg99OPJwmVQ809ylWDoP8ojv+lGgmS7h1t+9fvLZ5mkbyfP3veeaQ/G4x8OYpuLl82yBdIRmwFMJt3/0vbsXKi4+30CZ4nLQnxmslFfCpE3PALZ0rAsEFgnkQkaOBbJPuPzSiyZXvfVNixbxO4F9Fcj72FMu83SQC5tXSKzyiqp9TajICRAgsAECaUtLuO6ay2fOEef1FZRlfBJoC1zXvO7x0eYpDLlJIseOmRYOt0D6g+pjq9zoIhAgQIAAAQIECGy+gAEMm5+HtqBHIBe40mmRf8fvbe4maR7/l5DHy+UR0nu5G6NnVb4+AIGnqsd+Xz3nAlSexPDJuz48HeyQMnAYwmFM02FwOaxpOHl6wFPSl84Qd1kenpzKoKTpk1cOSd0+PDJS0ieQ+nvY9gl9afX9uSOQQZh58sBhOU45d+RtKQEC2ybw/AsndzfJheZdCn+sIJBB05+489ZD1Z+wwuacM4s6tjpnstqGEiBAgAABAueQgOdgn0OZfS5vah7/XncSP/qY9xhuWnmoLyrnUf6LQp3fi+Y9qN8PY5oOats3aT0vN09gKOHI63+5/OnzkAioR4ckIzYsGcrNhmXYOZBcZfIcyGSbSIDAvgucql4plgvPAoF1CdhPr0vy4OKRZwdnbU0ECBAgQIAAgYMQ8ASGg1C2jtEF0pmRR0o+9I0np2l55tm/XHua8tj5EtZ1x3YdZ7ZhlROyvH6h7uBZRxr3I85i6PNsgbo8rCP/zl7D+r6py8aqZbekalO3P+k/jPlVe64rj0peHebPdZfN2nGsfN7PNNReY5Xlw5CGrjJdux9kHdqv9a4z3nXnWR3ffllnHUOOs2qnsep8yuO6Tcp27ZdvVx1a9bt1G6yanqHL70e6S/4lDWOUy3qb1pGGenv2o0zW6d2P+BeVhf1efx3/GOVh0faX3+t07jUfXnvtr0p0g9rw3ZkP8I+6PK8jP9Yd314pDks65qW/TuNey9i8+Of9to7yXce/n/FlPauUzTGda6NV/q63YRWLpGHdedXernXFX2/zuurHfsTZ3n7TBAgQIECAwLkjYADDuZPX5/yWXtK8WqCEl6rBBuW7vXzmVRQPfuXx6fsRcxJRhzx6/vprdl5hUX+/6O/EmSdEPPHd56YnPvX86Vi/+q1vnL4HfuhJ1bea9zd+8/Gnpq/OqOPK33tJY7bz0Sa+J5p3iud1HHXYS/rq5dt/H//CVycnX/np9Ovnf3Tm8aD3PvDo5JfPO9N83faBd+2ecCdND37lseky2b73vfvadrQHPj0kTfU8dbnpKw/rst6L8TzAUifaZePC5jHub7/28smNN1zddC6eybt5ceW3El/eQbquOta1zrw/N2U64eXqFRIZ7HT3sft3F6nzZvfL038sqht5csi85dvx7cd0PJ/4zg+ndbjtmTy67M1vmNu+pEPi+L0P7ybtzttv2f2774/atq6rffM//+JLk/vu/+b05yPN++Fv+8CNu7PWcd3UvEP+qo7XyWTZxJFw683XT/K++YQT33l28tVmEFtX2XxX857UvDd1aOirl12GdfkZ4jU0DdnGh77+xFn7iq40DI2znq9v31Hanuua/Vvfq5jqPDx16syFhZS52iN1Ik9I6gqZ96FHTkzzq51nmX/o/isD94597kvTVaRj7vaPvrdrdYO/m9cm5XVBSVdeczJ0Hz10xfPWu0qe95XlpCvbc1OzLZcNfJXOvDYw8Q3Ns8ybkPYmA09zzLGX9monlp3/+9qFupxfd81lk9s+eFO92O7fpTx+q3kdWfsYMq+1Sp731YfdSKo/6vT0tYv1/rnMM8+45Ncy73zvK1cpU9lnp56nLNd1el69rTbxrD/r9rvez37r8acnTz975niyr20vEZZycaLZZ7fzYpW6UOKvP+v2ql5XvR/M/EPb9rq81esp3sses/blX+Jetr7V6Rn697x6UfYV2aah7eG87Snle2h7VOddyZ+S3uxT2vuVEn9X/anr636V3az/uqbOpT1Z5NW3Xyvb19VOpTzktTVd7VTd1uR4u4SvPPLk9ByyTNfHVOW7vXyuow7X+buOupntqPN5HQ595XkvdSPpS3x9fQQHUd+ThoSSf+198zLt7172KfUyO+W5/xy/zz7pH1rX6jJW2pAsX4cyT318uageLnsuWOLrareWMS/pLvF1tRMpm5dfetHkbU071NUWljjK5zqcS1zr+KzbsnLctCjecn64jr6GebbL5lXXtpT4u8rCvH1Y26CvDme+ZdNZ4k5Z6OtjWCZtJT6fBAgQIECAAIEiMPwqUlnCJ4ENFfhp9XjJVTchB/3pvGx3ftXxlhOLDB4YcgI1JM6ctDzadJ7nX94FP6+jM/Ed+9yXdy/k1Wkrf5c0ZhDG+5sLfVdf+abyU+dnTkz+7N6vndVhXGZeJn1lmXmfuXhcd0qVeV94YefiZJmuP/P4/5Ivh+Xx/0PSVM+TjoNYZiBGeWpIvY35u1g/8/0fTe64/eaFnZ3t5cv0XozLsvXnovKbfHzwy49P0lly1x23LhzEsCi+rLsuv6sYJK7nmzJVyk2mS0i66zKYvOkKQ+rGOtPblYZF3913/yO95SnLTrf1sZ/MbV92LmSdGUyS7e7qDK/T8nBzAbIYprNzXruV5XKRq+RFe1BBnU/pAOwK03lOXwxLJ/+ispS0pdM67eon7nx/V5Qz381zLIYnnvzh5HeaNjrpL9syE8mKE6lLZaBWO6qShmxP3gXbNmzP355OB/Fnm31HybP276XtSfw3vvOqyftuuvas+pxBC13bnf1w1/ftdaQMZL+UdfWFxJN/mW9e/U8cZZ3plFslzMv7xBu7/Ev6F+2jh6ZjUflNPHvJ87gcO/6lXZuu9GRbPtcc68TtY7f9p81goAu6Zpt+t6gNzEwlz5569oW5A6Uy7yLrepuHWC/bLiQNJTzx5A8mx+97uLc8ZvBb/qU+5ALfkFCnp2/+9v55kXHJr5de+cnCdjb5n23KtnWF+JZ9dvL+VHOHc6lHXfMP+a5uv+v5p3nZrK+EvrY9v6dupb3uC8uWi754yvd929z3fVmu/Zm8Of6Fr/UekxfvJ5p9x5D90JB2odS3bzdlM/uCRRfF22leNL2onU4Zy34i/xbV0SHbU8p32qNh5yxnBsVkWxbV4xJ/V/3pq6/Llt15+7Ws/777X5rkmCkDDeZdPOzary3Kj5SHu7//QOdxQbutKXnfPt+qn+RX5ln2c111uK8O9n0/JJ19+bysw6L9a6kbQ8/hMv+8c8JsW6nvi46JhjjMm2de/i3T/vYdJ85bd71M3zl+rO574JFpu9MXV13X5g1gHlKWyjzl+HJIPcwyOR4ecnye/f6x41/uPf5Yxjwe2fa7jz3QG1/8yjHNvLK0Tue+fNrL931tWVdc2e8s01c271wj8WeA4r0PfLPXdtm8am/Luo4B59XhbEedzgyqu/Xmd5x1npf5ShjSPpX9a8rUovOJEq9PAgQIECBAgEARMIChSPjceoEcOJdw9OiR8ufSnznZuac58cvBfUJGql/3m1dMLmnivKDpVHutOSH99pPPTp5pLqC91NzJnZPUzD/vpKcrzovfcGQ6oOCXmztGc5KbTpVHm7vUSkjHckb79538ttN44w1XTdN4XrNMQk6CvtVcTEwasy25kHH7be/tHcSQk7JcyCjhwubO6Ldf8xu7cca3TmPSl+2q754uyw79vOD1v7I7a/HOF6WTYPfHLfvjZHPx4dP3fHG3jOWiee40SUjnzYnvPjvNt0zHJYNp+u4MyTzzwjqMc8dC6VyZ3lX0lkuajvJfm642v73QlI2Us4Sk96FHnph7caWrPsyrY4lzUR2brnzOf+eff95uuUp9y8l4QrYndbCETLdDu27k9+RZ7jbI0ya68mzV9LbTsGj6U3d/cebCSVc+lSdQJK7U34SuwQb163hy1+y8AQxpE+q6O+3oe/c06t7/0qFbQta1SlhUNpP+ktdpw9JB3LXNJQ1dF1Xr+pmyW9r+eRfZSnx7+UzetAcvzEvDMhccYlB3bKac1PuOdjv/0NebwSbPvDhtf+onq5zfPCGnbqfrMlB/n31YOxy/96GZjudSl7KPTXjuhZNntYGpT0MGRrXXtcx03MuAsrjUbVLiiU3Kd6lHmT91PxcO9xq68uPqpn29+OivT9ulMiCkrDPrSbnLHfLz6mW7jc1yXW1CqR87bey/a45jfrdzEMOQNnDqc3pgUS5opp735Vm7DMxLW9Ie62WON3IHdT0YM/GnnT///PMT3UzIRc8cH9WhlMnSvpdtS304deq1eta1/Z2yl07nhC6PugzEY6dNONq7/tTzpLuErjh39t0/mXzqnnunF6DLvHv9XGU/m3UOKRf18cay5aJru+r2qq8d61qu/q6+I7HLudSzLJM8WbQfatffxFm3R+3zkJSNF5pjsXnnIXV6h/wd23o/lDTkvKXvWDXzZxBM1wCf9vZk/XG/6i1vmh5DZTpta5wSkg+pk8sM0KvTW7zKPquOO/Fn3nb9ydOgLnxlZwDcsseIibNddhN/Bo1nO3Nelnx/uKnf5Zws51tZT985XuKsQ7190/b/0qOddlnmz5vtu645fyvbn+/qc4F525d5Vwlth676MLQOr6NutrdlaD63l6un63O4dr1IWS/HiFkmZXnROVyOUdvtdZ7SkTvkS7/DU81xWDk3TJyfbo75+/bXdVqX/bsuZ/PqaOLNvAnzjqmnM6z5v7RLOcZIKHX9issumtazfJe6lv162pNY5Zgp+/95A4ay3JCwjE/Wu+hpK3V8WX9Xu9E+7px3LJTf6mP8El/OVxPa+4749J2vjuk8TeyK/6Uc1BaJLh7l3D3T9b5hnkXmHZJXpdyV+fM5tH6s6xgwx+v1+Wm2+fprr5i2JUlPbqh5qukjLH2OqUvPv/By78DKIe3Tc01fQN3neM+x/vOJpEEgQIAAAQIECLQFDGBoi5jeSoFph0F1UeySppNtLyEH6TmRy0lMQk4883SFnCDXIY81zzpzgpCOw8yfEd59d1WdPD2IIHGksyp33rTjzG/ve8+100dh56JcQlcnVL7PyUlJYwYa7FwkmE3j9NGLTXyZt3RClo7HxFGHbEs9eKHrTqqybNJ4T/PI/XTC5aQnd3wNPTmr15m/7/z4mcfT3/2Z+3c7Lz/ygd+ee3GmHc+mTZeOl1y8zePV22Xh1t+9flq2ysWMnGAnj/Zyd906jMuJcPI5j9FupzdpyyPcS7l9+Ou5u6z/sZ91HcuJdR753o6z1LFyQr+oji0qA+kILxca64txuVjY90jxxNmuG+XR2qU+lPUmz0pdKx3UB3HRNevPRfd01JQwL58e/HLT8Xd6oFQ6Y7oGSV391kt3L+Sm7E3mDEjIExfqsKis1gMe0naV1z/UcSzzd8pmys68bS7tVeLNE0L6ymbyr1zAzrwpm7d98Mzra/JdCSWvS90o36/6WeIt8aS8pX501f0yb/JxSEhZrjvzsi8qdaIsX8p13c6nbD341cdmLkwl3z5514emiyXeP/r056d/p8O7fF/ibH+ePLkz2Cn5/5Hm9SFlnWW+tzdNR+rTV5uLxV9s7nRKSP1/9PHvDb7YU+Ia+pltKPvJpOuO5tUpbfOkM2aZt7R3aQ9XCbkoUQbY9JXhss66HOcOpzvf3H/xum5j6/rRTut0u0+3CdPBEs2TE9pPYcg89fFBXxuYuDPvmXT+vLmg+VpTP2dPRVJeyz4wy/QdEyWu0v5nviyTjufMvyiU9KYOpyy3y1hZPusoZSzf9ZXJ/Fa2Lelo76/y+6oh+/vE+4HmCQ9dF1qy/k81Ax9LeZlXBmJc7xP6jJPm1LM//2pzsXpgOzJvO/v2szfecOU0H+Ytu0y5SB6U+rqTH+fNtE/z1tP+rW6v/rhpx8qx9TKDAUre9dXhUnbKQM95+6Gdec+ch+zcHXn2cWI5RqrPQxZdKG1ve9908qL4Zp6+8lOOe8odqc8/f+Y4pI673R7dduu7OgdTZ9tL25rls23Ti/Vz2rqynqR3Xv1tX8zKY/rrQWC3ffDGElVTFx5rtn9nv7ps2e1LQ9l/1Pu1oduXMrlo++p405a3BxLX5wLHv9AMIjx9HNjX3uxiLPHH0DqcKOsy1leH11E328mv83mvDklvQl+9yG/1QI4cF2ewY3tfmPkS8jSB0l73HX+kvqe+Fbfk8WeP//veQYI7MS/3/5By1m7Lkp7sZ+u6tNxal5s76y/H6X1Wpa6VtP60GViV19KsGob4JK8z+Krsp5PW9nF2SUduNKnb2fQHtI8p29tS+l76joUSX1l3V19O1p2ylFDK0mWXvuGs490xnaeJW/G/pD9PmisWfe1yVpN5y35nOrirqVvtUM63yvfz8ipl4M+agdrJqxh3nWeXeOrPchzR1yYnnfUxYMpWV70r+67E3ZXOyeSi6TFmjo1Ln8B1zQCHvjC0fdqJb+fYIY4ZxHDXne8/q2z1rcf3BAgQIECAwLkt8Ivn9ubb+nNBICcnGTxQOh2zzfMOxOeZ5MSvxNN3YbUsn4sbubCUQQ4J6XwoF5zLPOWznIB+tBkMkRPZvs7vxJlOpvJ7TgCef/E/lGh2P/O42BI+0jHAovyWz3SE52JMLhSVeOvf83c6F0voO+EtvyeNiS8ngwk5OctJlbCcQJzTkdaXJ/m9/u2ZXEgeKSQdGZzTTlNJTqkLZTrltq9MpLyUOpaO6bq8l+XLZ+JNfUkHfkLqWN3ZU+bbz8+6bqTM50kYqc9dodS1km/ZznQi72dIR0npzMt60lkxL59S5uoLgBkklY7VOmT7yjYk/r68zDInvvPD6aJpL8sy7UENddzlDst8d1mzzKphJ09unrvNaftKSJ60t7f8Vnf6lLKZMtgVSl6XdrBrnr18V6ehlLdFaUhah4R00JXOvJSRvk7VxJV13nXnrbvt/PRJDE1n6zpCBoWkjGXgXV9dynpuah7XX5fV+g70daSjjiN3L5eQctlnnnny2ycamzzRaN58Jb55n9nGq5u7kNOu9NXbss7sd0uYVy/rNnbadt/x/rM6xUs8SX9pE3J80u48z3x1GzitF3PawMSXdKY9yGfbJ21J3YaXcljajpKufGbZlNF6wFEu+M1rj+rlE3f2L/PKWH3Ml/o2TXtP+570fPKuD0/LZKlH9fpW/Tvr/0STV12DFxJ31p/BryW80DyppCu0jVOH5h13pgxmvetuy7rS1vddO82LykV+r8vFOtunvjTO+77kXdLVV5aH74fOnIfsDKLuP05Mmch5SOpbQtqFXGhZJSyTF1lPyuudzWvOUs7qi+QlDe32KPP2vc4u25O2tWxP4siTVIaEtE3z9inTC37Nk+pKyKO71xFqr+T9vDYk60t9S1tbQr3PL991feY4eN72Jd76iVbP97QPXXGv47vaIfHNq8Pl98NUh5c1WHQ+n2Pxui048Z1nO1eR+loGRJR9UOpBX6jbvhzP3vfAN/pm3dP3i+pR0lYfG2YlQ8vwnhLUWqg+DnxX0+bMsyppzYCpefO1VjF3cpFPjjfyVLMSysCUMl1/1m1b94XmM3Mn/WlbSpnqOnfL3HkaUAl1/Srf1Z8pSx9v9h+58NwOj1b7kTGc2+lZdnrZY7vsu7K/zf4p+4o67LRtZwaKL8qrlIEheVWvI3+X44jBx4DVeUuJq75JYFoW5wyyTpnK8X/fsX/iXKV9Sl9Qfbxf0uiTAAECBAgQINAlYABDl4rvtkIgJxQZMJBH8dcniOnA6RqRvGijd+J7cne2XGQZEjJffULZt0w6kPtOSuplMlL76re8cferclf77hd7+CMnKX2d+Dk5KReUc/K06IQ3q098dWdsfQF1D8k75xZJGV3k3C4HJY/GwErnT/uEvp2OlIn6ca+pT+2w0wnw2O7X6XgfEuqOwDzd4aBCLgbU7nWHRF8a4vA7N525yJT09l0w74tjme9z90QJKVddFyDL7+UzbVHqekI6GLoGWdQd4XWHYYkjn3VHSR5PmcdLJ8StL+TxmiXsdaBZWT6f77/5hoVlM21faaOzTO4Kb4cTp5+kU74fUjaT1ykT6wp7LW9D0pq4y75kaDufNqhu59fVSR23XLCv86TPsC7PeS3AfoX6gnQegz8k9F2EG7JsPc/tv9dcgOy5aF7PF7f6wl496KKeL49xLSF3cmW5RaHv+KR9fJCytijfpvnbdAZ3rbfuzByyH0y608leb/eQ4436Ik/ftufVK+XC0XQ9zVODutLcXj5WuYix7vCxAQNi6jYzbXdXqNvrnbp+Zn/UNX++y3ZnPztWqMtFLiIsOj5KOvdSLvZr+zKQeFHZGbIfyjFSKZPJu5S1IaE+D/lmVf+HLNuep86LofuKHB/2pbVuj5Kvi44lk556e3IMlv3zojCkbSqDYRNX3eYvinve77VX9leLykHiyrlgOcbKvjl3Ys8Lefx9Xte3qO1925WX7kazzKuldhda4Y/aIWV9L3V4XccYK2zGoEVzgXrR+Xz7HK4v4nqbczw7pPyk7Sv7oLQX6zrHSDkbUo/ax4ZDynDf9i/7fV1vk95FYZoPzatc1hGyviHHrvXxXN9xa31slfnrY92+tKZslPPLvnO34jPEJuvJ0xgWlbkhca3TuW/7h35f70ezTM7TFm1j0p+y37V/+nZz3lr6AoaeZ2d9ZSBLX161t2fIMWC5aSrLljS14ynTfceI5ffyOa8tq9untOmLHBNnfWy2zvappNcnAQIECBAgsJ0CBjBsZ76eE1uVRwD/4T8/1vsvj6zO3Xj1Afy0s61jJPkQsPoO95ygDDlIT7w56SkdUTlZWNQRNSQt9brLyWi9XN7hWUJOLlbpvPhmNcp+SIdTWW/dGZsTcWG4QJ2/85YaOt+8ONbxW99jT9tx1+/Ybf+W6cNUx7rS1/4uj6wvYZk2IXfClY7mtAl1PCW+dXymk6Z+okHXXTR968kdNSV0DQrJayRKqC+Ile/yWa/7qmb+ckE3nZlJWzvU6U1bvZeBZu04h5bNI68/02Z2pe3b1d1xy+T1OuvoE1Ua0kk1NO4h89VlcNl2vlw8zh3fq+xr2nk3ZHrItg2JZ9E8pb5mvlws6yoji+I4iN/rfX/XsUE9ECd1bF7H5JD01k97WvRkikXxtQcM1E/XWLRs3bYNOd4oZXZevPX+aFmrHPetO9RlsC/uIeutB4mlnR8Sb9Z33j5sU992tL8vF+3z/ZALOWX5ulwkPw+6fSrpGPpZ74e6lqn3tcvUt7STl7/pzFMYVmm/nqlex7fqoJZ2ezQ0b7M95bwqTl9tBqsvCkP2FfU8Qy/uzFtvu0277pr+x3C347nu2t/Y/aq+a3r3y+qPoXX46D4MrKqSMffPehvqJ8XMXaj5sa7DYxxjLEpf1+9DjzsX5VuOlUsfRvZB5Ri6a53t7+rBbPXxXXu+ZaaT3rqOzFs2fQD1frY+H5i33Kq/1abp/1ilrVs2LVl3vf6+5evjtL55ZvteFg8yLPFc/1tX7KYhryJqh3IjQdq3elBRe75F0/V2HrTzorQt+r1+Guoy51J98X7tkTM3Tixz3HrjO8+8Yi51fVGozfvmXVQ/jxw5M2A57emQwX9962q3T8ucT9Rt2brap750+p4AAQIECBDYDgEDGLYjH23FAIGcpOTxmosO7vuiqk8m67tY+uavv7+ketxcucu1/r3+OwMcMvAij/O++9j908+cbC1zEl5fXMwJxqfvuW/6NIrcEb1sqDsdchFymVCeFJET5WXSv8w6zLs9AvXFsCsGvNO43vJ6/kV1rF5ulb/rR/DWnYVD4qw7359/4ezXwAyJY9E89R3YR48eWartq7enq/5e3MRXOlPSxnRdGCqPGE3bmw7dOs6u10jUFwzX8fqIRT7174su/NV5vWz7X69nlb9n0tCYrjPUF6WWvciRspCQctL1SqO9pjMX4LPvO/6Fr073hdkfZt9YX4Dda9zLLpf3I5fyngsKGSCZd1ivY0Di0LS0jw3isuyxwVPVnbzrqGP18UFdv4duUz1fXb5zsebio7OP6a3nbf9dt0fTcriHY512nLXV0eoYrj3fpk3XeVZfYDqs21F37KdcLDOwrR5Iu+72aT+8Fu2H6rZv2fp2+WVnXslUD4RYZjvqpyrlrtvyrvRl4qjnrevYsu1RfZ7T97qUel1j/F0f06QsLnP+WZfdVS4yjbHd7XXuHCPuPBEm5Wab63B72+dNL6rv9fHF0uff1THifp1jzNu2/FZfpKz374uWW+X3tIv1sVpecXXQx2qrpD/LZuDTzH56ifPhlKmyX8+xavvc7O3VIKq8vifH1Rn0uWwfzSY712XxbVU92Uu+xa0MMkrbtsxxa/KqPCml7zx6L2mat0xdPjLfZ5q+xtSPHFt0DXqeF9emt0/zts1vBAgQIECAwOETeN3hS5IUEViPQEaZn3fe65oTuaPTk+h0Bq0S6sdtPjW9YNf9eN6udbxUPdq6ryMhJ0HHm6dK1J21Ja50NubCTR5vOuTu2Gxr5iuj63NyleUT4pILVDlpy0WZeR1q7QEPfe/oLOlsf5762V/tfpWOvCPXnhn5vfuDPwicFqg7UJ7LuxuXeHLHkDq2buh6oMTFF/36UtHXg5qe+9HLSy07dObnqot4l7zhgqGLTedLJ0faitIxk8EQdVuR3zNA6dHHd+7wSdtQ332RvCw+pYOodJykY27azr17Nkn1AJZlL87MxrT+qZOvnHk9waIniax/7TsxvlynobmQt66QfVvJ58SZvK4HvyxaT23T9zjcRXG0f8++K68CaHeopdzkon3KZu7irMtcO451Tqfs5t23dzed4SVNuSs8/9JZnk7IdBpn37vMxZkhaUwnYd6FXOfR7nKPP7PUsUHdcVsP+tqNb4k/Um6KRRZbdbvrV30tO2Ag+ZO7159vBr0kpPwu05E8Xaj138nquG3V48dW1KNN1vvYJGJVo4PYkJebfUkJFzT1ftlQl4t1tU/LpmFd8z//o+a46HRIW7jM9tR5X5ftEt+Qz3oflEGRq4a6PVq2LJaBc0lDGWRZH6OsmrZ1LF8fgyW+IU+H6VpvZ9vfNeMh/a6uw3spN9m3lkE3Oa5cdV9zSJnOSlY5hs4PebXZMuXn1dP7wiy7X+cYiXteyHFaCcscU5Zl9vKZY4G8GitP6UxI3XnpsZ1X75RjtQyqTplats3ZS3r2skzdLuai+DL5nvXV/VUZVFzXl9z1n6e5lbKV/cj0fKxZLq9HuPjoBc253aXNMmcG7XZtwyY71/vRZQdsty3qfWkG6i+bV2WwTeI9+fKPJxefP3zgbjstQ6fzCqZ7moErpd+knMtk+eR7ysHVb33jTLnpiruUofx28pWfLL3tJc5nnv3L8qdPAgQIECBAgECvgAEMvTR+OOwCH23eKXtQrtW6nAAAQABJREFUFy9iUV+kyQWUvYZTr/31WYumY/FT93xx92JATmjKxZCcvOYEPCeYOcnInbJDTrjyjrncrZYLQeUkJSuensw38ZXOoJys3NQ8RrjrTqpTr50ZgJBlS4dA/hYIrFvgtaq8rVLHTr7y03Un7az46osB+XHoI2NLRPWFmJ+dmq1nZZ5VP+tOrCMX/NrS0eVCfek4ry9UlojyJIIygOGp7z8/0x6X9iXzZqBUCbkjqwxgiGG54JC0lmWWvUOvxL2fn/X21x1O+7nOdtwlL/J9cWvPs5fpetuy/CrtfJ3GvaQly9x3/yPTwQtl+WlHc9OhdklzwSzxp9w80wyCSTpfajrNDiqkU+8Td7x/8uCXH9st91l3/HY7gb+yM0hwXYMrMnghgyZKSNm7+i2XNJ3MOwOmTp58temIfmn32OCCJQa2LDNvWX/9WZeb1NlVQx3f+ef9jaWjS4d6CbmguWqo07OO7Vs1Pefq8nWbcuT1v7w0QwYXlY72Oq6lIzoEC9Rlsn739LJJO3Xq1LKLTOev11/Xtz1F1lpo2Tq27vW3krP2yd19xB5jro+X9hjFaIvV9W4vdfj85maEEuoyWL7b1s96W+uLjMtu736dYyxKx1iDfdM3lPOO419obgppjhVLiGddDw96IGxJxzKfOZZZ5Zi8Pcgt7eYn7ry1OY59fPKt5jWIdf9QjiXL8WTSWG6a6Tvf2FTnul6tej5XD86K5Sp5VZ+zL1NGlp03+XnH7becdS6TeEr9KAPFr2rO2W+84crOc87aMU9wqJ8QtWyazE+AAAECBAgQWCRw5oxw0Zx+J0BgV6C+q2D3yxX+yCMOy4lABh3kxKLrhDEdWHm1RLnQt2iVObnMv5yQ5sRiemJSncxn+XKykgEP7ac71J1GmXeV7V71JDHrF84dgZXKWnUh69wRm7+l7cFI8+ce9mt5rH7arhPfeW5mofL6iAyQqtuyPFmhPA0m7Vh5X2j9qOWrmjs/hPEEVqp7zQX2VULuXsqTF0rIO9b73oueDtgMJjjIkLJ82wdvnL6XO2U2Tw1JB3nZfyctuViTTsyvNttxZ7MvX3ZwU709efJCCbkQuxPf2cY5NsgdVdmfDw31gLGhy2zKfMteDN2U7ZLO5QX2Y9+3fCrWv8Rq7fT560/QyDFO2+DlHjR1oCnOOdC52i6tev63rXV4mQK4SvlZdbDiMums5x0z33KsdufHb5kOeM25RvpAcud917HaU8++MLntAzfWST9Uf6/W1p99vJiNm/b5NP0+OWac9g81BmWgX9n4DJo58eQPJ7fecv3MAPXyez63ybnerr38vUod3cv6VlmmnMvkHCuvKMrrnDIwvB7QknOZh75+oikDP2j6JW+eOZfPuut2fZVtH6t9WsXPsgQIECBAgMDBCxjAcPDm1rihAul4Kie+OZnremLBXjYtJ4/13Sl9gxcSd044MnL+7s80FypaAxHmrXv6WMDm7tESss5HH/vezMlKLgZd+PpfnTlJrU9Osv2fvOtDJQqfBNYukFe+lLDOOlbiXOdn6mIdlr07LoOKStivk/c6jXu547J+zGZXGnMnz8VvODJti3KXUO4Wz6NKY1E6wq6v3rea7c0yuaM+7Vc9gOHbzSNNS8iTHQ5bSAdiaafzKNza9qDSWqdh2fI2L411O5/57rrj1pUuus9b16Lfvlm9NiYdrH2DFxJPecrQKnc8LUpP3+/J/7wSKQMEE1Kfs199uHk6U+kAzHd5t+ztH31vXzRzv89gjlLmMrCxb/BCIkl67mqODT5993276++KvM7rEnfXfEO+q+NK/c+7llcZrFF30nc9qWpRmuq71+q0LVqu7/cjeZrF6WZpVau+dRz0922XVfPsINJfl4u9PAq9HLcnrZccPXMcfBBpX/c66n3Ax257z4E/Ar0uP+t4+k1dx5Z9akpd3+O8l6dMrTt/2vHVXnlyzm0fvKk9yzkxXQ/cWLUO1+3BtuPV9SNPdSoDfjdxu3+pebz+GCHHRnErduWC/YnvPrt7rJQL9ZmvfRPHGOnNOuubR1Le97PvJYPM8y8h+8pcxP72k8/uPmUs7XIGnS965egmOdf70enxwQoD3+o2fhP7yZL+crNTykDOLTM4O+dipZ8xx7+50apdDutyuuntU7ZdIECAAAECBA63wC8e7uRJHYHDI3DZpW/YTcxz1cXH3S/3+Ecu+pWQ9zLmJHBRKCebi+br+z3L5y7SDJbIOkv45uNPlT+nn0lLOTkrFyhnZjBBYI0CucO4hHXWsRLnuj/r9NZPEBiynnoAQwYY7Ueo420/IWHR+tKJUV/4ufiinUfWt5e7/vQF3Hz/xHd+OP25fkJM/fqIsmxeI5GQjsRcQEvIq3FKuOzSo+XPQ/NZv7ZnrLJZP463DBBZB1AGldQXBfLO3LFC6TDL+q9rDX7pSlMZQND120F+l7qWDvJP3vXhmU7w1IVSxpdNT13Ornrrpbv74r54ko+XNYOD5oXpBZHTMzz/wmr5vO5yU79WZ9n2tB40lc2r68o8j3m/1cdidbmct8xh/62dZ880d10e9lC3va80r0xZpj7lInedd+soF2N61Rb1dh1Umur1v/BC7mZe7fVX9Tvo6+OGIdtTtxEZ4LXK4Kkh69vLPPUx2Ln8nu+63Cxbh+Nel/WuwbR7yZtNWKauH6vur8fY3rp/IzdIHIaQ/o9bf/f6s47VHv76kyu3Z+vaviNHzvS95OJxjm8OIqS/JzfnpH/o7zQ3rKRdTUj/T/1ktCFpOczO9XFA3bYM2a72PPU5bvJq1X1iO/6Dns5xb86r8vSSvKq39AFm2+r6nHTV7dOy+++D3i7rI0CAAAECBDZfwACGzc9DW3BAAvWBei687UeoL4juR/ztOHOictsHz5ygdG1X7pYuYdUTvRKPTwJdAlc0d++X8K3mjpjDHq5uLiqW0B78U77v+kxnVLnYn9+vOH33S9e8q3x38dEju50Pyw5Aqi8OHJ3G0333VN6PWULuGE/oe31EmS+vkSjh0eYdrGl30jmSkAFVh/1CRFc7WbZnPz/zdIsS1t1ZVL+249HWQLayzv3+bHfS1heQ93vd64w/T4ao95t7vUhcDyC6pBrctUpa6zYrg5pW7Wyty82DX3l8laRN7wIsnaWrtFfpdK+P1/aaqLq+reNi7V7Tse7l6sG4X22eGHLYQ/KyLhcnqqf1LEp7Hn1cwrrKRYlvjM968PK69wFDtidtcn2ekv33KqG+wL9sHauf2rRo4NYqaVxl2foYrOsC0Cpxb9Kyq9ThclyZ7U0drtvlTTLYS1rr+rGO/fVe0rDKMt96/Mx5XN12rRLnOpfNsVppz3LMcfLlH68z+j3HlYGGebpdCWMck6et/0j1Wo328XlJ25DPw+ZcBtEn7avuR5NX9fH+qvvEIZ4HNU8GMtx4w1W7q2uf+9Y3QC27/96N1B8ECBAgQIAAgYECBjAMhDIbgVx0K52oOYh/aB86ftf5vsj64se83MvJV/14z/a85bGL+T53KKxyEtuO2zSBWiAXw0sdS2fvftSxen2r/n3dtZfvRpE2oX13wu6PrT/yuNJSP9Mhu67X0bRWM31dw3XXnEnj0AuMqeP1vO+uOjC61lE6b9IBmM7m8nSA9usjyrJ1h086j56oLki9rXoiTJn/MHy283po2cyredYV6g7gZcrbkDa7vrCd8vn8Cy+vK9mD4yl1vyyw6sX1Es8Yn/WTDtax/tStdYSUobrD/sGvPjYo2tJetWeuy80yZbIvvrqz9L77Hx00wKLdXr2reRLGOkJ98TH+y1i9/Mqr60jCvsRx3bW/sRvvMnlWt9O7ERzQH3W5yL5pSNuQMlbvxw7rRe5lCNvnIXl3+UGHus7/ebN/G5IXSWNXnU97VB8/DK1jqfPZT5VQD4os3x2Gzxzr7OUY7DCkfd1pUIeXF91r/Vh+TcOWSB0ecjyZ2OpXYGW6vtiZ6YT6EfS5ADok1E+vGzL/onnqgbLt19IsWnY/f7/pnWeOY9bd9zK0za6PY1e1OUzO7f3o0PO5Prd6QMTD3zg8T/LoK59d++K+edNH0ReSp3vZf/fF53sCBAgQIECAwDwBAxjm6fiNQCWQjqjfuema3W/ScTf0Ik8uYvV1NNZ3k+SEv+8EaXfFzR8nX5n/OMF0MHz6ni8O6mjIvOXu564TlXYHSt6DN6QDIydIxz73pUHz1tvm78Mh8Nprqz0aeC9bsWodG9oJsZe0dS2Tk/d6gM+f3fu1heU9dfzBr5y5aLjf71xN+sqF4Vysuu+Bb3Ztyu53O/X2yzNtwqLH9NedN/W21Y/W3F3B6T9Ku5c0nTj96on8NG+ZdhwHOV131GS9Q9r/tPu1x6rprdvixDWkvKWzN232opC46w7mzx7/9wvLcuJMecn7cYfsE8r8fWmpB7ZknoceeaJv1t3vh653d4E9/pH1/PGnPz94UNUzz555JUr9uNplVl8/RWDoXWInB1w4v/WWG3aT8dDXTywso8nju5sy1FWW2+VmaJnM8UnXgK8b33nlbnuVsnvfA9/YTWvXH9Py17Rp9TFMXY67lhn6XcpjfdEtVmm/54ViVdIzb96xflu2Hdmp448s/QjpZbZv0Z2vdbmI7aJykXXf98AjM+Xife+5dpkkLZw3Lgcd2mXyz+59eHDbm/1RV51bdhuSF+VcIQN77j52/8Lzlqy775ykzpch7VHa4nqflgEC5Xhi2W1Zx/yLBp63j8G62tGudKT9O37vQ10/beR3h7EOLwO5rkGEy6wz87brx9DznOyrFh3vL5uWGAzpA0gdrQePpY7WF7DLesu5SaYT96L2Kdue4815Iev+1N1f7O1zaS/7wotnBk70vSqvvcxBTGdge31x+NjnvrywnU26sl9K30tfX1La4rTZcVoU6ifxHXn97IXsTXZu70eHnM9lez99z32d5wAZEFH2iTk+OdacP/X51+aJc8j+s15mHX/n2Gjofuip6jVj9asGSzra7dPQeNt9ISU+nwQIECBAgACBPgEDGPpkfE+gQyAj4usTyk/dc+/ck4CcjOfkJAf0fR2N6UwuJz45gU/HbN+JT+lIru88aiczJ0TpYMhJ1B81F1zSAZbvukK+z0lxCX0XKvOaiZLGxJv4+zryk8b8ls7KXHQ53nSwCpshUHcm1Y/nTZ4OHayz6pb21bGkoSvUdSydEH1lvWvZdXyXR2PWdePTTcdZyn87vZm+7/5HJp+r6kMutPXVuXWkLXGk07AeeJULBGmTnn/hpbNWEcvU2/oOp4999L1nzdf+or778aWXd+48TrvW1WFZlq2faJA2JWHRMmXZsT7r1+2krU77n/a1tkw+J/9Lu1/udl9XmvPu3lJP57XFSUf2O+nITVqHhGXa+cRXyks6lbNP6Ntv1eUgaan3HbVd4qyfRpK7zua1O1l/1nsQIZbxTud5O8/r9Zd6Xsp0Xr9SD0So5130d/susXkdg1lv0pUBQYtC6lk98Cod2n3HCSWP0yZkvq6LB33lJmmqQymTGQwRn3y28z8dy3V7lWOdDBxpz5d4k7bEUQ8Off/NN8xtd+r0DPm7vlib+dN+Jx/a+5mybX/0p01aG6vDHtKOlJC8yH6rvV3ZptTt7BPy/ut1t2Vl/fnM49Fr07ZhykXex1xCKRcpA+2Q79Lu1cfJGShYt0PtZYZOn3femVcpPfoXZ54AkLT3tX9D4x46X/tx3Mm7eRc1d+rJznnIZ5vj/dp56Drr+ZIX9aPFk1e5sFO362X+lKEc95T2s6u9HtoeJa6s41NNeSzta4696gsoZb37/Vn2wVnPieY8p+R90tguu+1jsHntbeJLHPEqZXhe3mb+/Qj19tWvR0va9lp+lq3DOYbajzq8jFfdZiQtdT7v1WGZ9Wfedv0oxyB96099z/48+6oc73e1kcumocyfpzXmGK5rf5F5dstuVUdTlvrqaHzri6IZANmV3tKGdR1/lLSVz/Q5pA4eO/6l3uOaktY4lbYkgywO2+vr6nOO0s52+ZTtSbuRY5D0veQiejukzGSexDWvHyfLZT0zg1CqV//l9013zrFdOaYp53OxaderlOm0wWW/kzJYH3PGIm1bzpVLu5nj8OwTF+VV4ty5sWD+QN2sY10h25K2LPuhHFt37bfLusq8mc6+tusGg7RP9Y0Yi/ZvKXulfcq8fUYlDT4JECBAgAABAkXgTE9M+cYnAQJzBW7/vfdO7v5McwHw9Kj9HICnczcDG0pnx6lTpyZPfDfvlz7TgX/BnMewpTMwnTUJObF45vs/mrzrHWdOrtJp8vSzL07yHsTEmZOusv52YpOGXAQqnV6JL/9ykpH3aeaRjbljKCcRiaOkMScn9d2GdbyJ847bb2lOeO9vTvZfnZ7w73TkPz452qQl6UmcOfFLOkuciaN+h2cdp78Pn0DKSLnTt5TD85oT8zzx47prrpjcevTMRY/9TH3q2LH/90vTspT1tOtYynDu2Hzm2b/c7XzKfPPqWH7fj5COi7pupCOkDFKIZ0Lqb+pbHdJe3FZdkKl/W/ffGRSSJ2qkcyYhHSbpOEnHYTGr24Ky/lwwGlJ/Y5DtSd0vYdFd0GlT2sv0vXKixDn2Z9J85+03Tz7b3N1UBmqU9jVpS+fVbNt3ZHJ706mVgWTrCsmPD9x8/W4ZS+drytu9zV3opTPu5dNtdEnTbbe+a9qZuygN7bJc4k4n5qJ2/rI3v2Fu52+d10lvLoqUehHTcgdtymouCKUslU7FDHa5+i2X7safspp2KuU4v730WPcAvUXbu8zvV1x6dPdiSsnz1J/ikrjSJtX7/ZSHj9+2eABQXzqSH3Vepx38VrMvr48NktfPNR7lHcm1c1+8+f7WW65v9tmvnbVN02OE83dODdptwvQYoTkuaYe+cpP56jYw+5G6fmQQRdfgjnZ7lXI4pL3KkyXqp8G007mX6fa2JY7kQ/4Vq1KOS/y5wPz0M80rhar2sPx2WD6T9rTvZV+Vula2K2lst2WpZ9dd8xu7x6nr2I68Mmpy705MWX8uqGR/lHL3Cz+fTP7eJ39vZjU5rk1HedmPpVxkAMui/VjyY10DBfP6hKQvYXpxsMnnhJTtG5u6UXfkT3/Yp/+yX8ldtklL7HJRJe106n/2Uwld5yFpr1KmVw2p13X5KfuKvv1QWd/73n3mKXblu3wuao9Sx9rtR9qjHHuV7a3j2++/U39KyLbnYlUpu9kP39mkqw7tNq3sQ+I4bUdOH9OefOWn0/1aWTb1cN4r/sp86/5MOc95bUL2s7nQNW/7hq6/rw5nO8vxS3u/k7jXWYeHpjXzTY9LmnqVkGP4Rfk8nXEf/kv9SJh3Xp/jj+dffGWazpKE1JF11o/kU+pw9htlf1HvB9t1NOnI8ee8NPz2DVdOvnj6yXCL2vRsT9rYst8q21l/Xt4cq6XMJpR6ljSmrpVXVrSP1abxvme9T+ip07TXv+NWn3PUPuXYs6s/J+srx17tdWdb636ctNnZb5T6V+Irhlk+x2rlGL3Et+nO2Q9mP1r6tbJdQ8p0nLqOM1PGyj4xx7nL5NW8+lG81/WZctEuA/U5XtbT1b/yrndc3VuP0z4nlGOzUu/a+7eu9iltikCAAAECBAgQGCJgAMMQJfMQqARy0vOJO2+dnug89MiJaYd8TlbKhd9q1umfOTjPwIBygN/+PdM5yE+H159N7wbYGSDQdadBTjpyMpvR36UTtSu+dHZc0pxk5WSiXGjLyWh9Qlovl5PXnMjNO5HICVY6Cx/88mPNxZKdO89ygpZ/XduetGZgRt9JdL1+fx8Ogdzx+3AzOr+UmeRtCSe+8+y0k7lM7+dn6tidH09Zay7YPf69aXqG1LFcQJhXhvcrzV11I+vqqm9D2oP9SGfan9TJuk0o9be9vrQHuUM3HTJDQzp06gt2iwYwJN50iNXLdN3dMXT9BzVfTNrtYFl3++JsOnr3ozzmYlzizZ2tpa5m3e3ylvzOXUHL5GNXWS7lpK+dT4fyoguEuQOvDNKLV53WRx/73kznaAYw3ffvHtndz5TOsOJcPrPelOv8vt8h25fyefwLD++W2UUusV+1YzLrfbXJ2681xxql07nr2CB1NnfrZf88eXaYxm3N/vnoGy7cjTtLtQdalZhK/H3b01VusmydzyWulN3kXdrrvpB8vaR5ekVdxot3e5l0KGfwwn4da5Rtqzu6k4a2Vb1ddz+zMyC1ndbDNF3KdHu7ksbSltXb1JWXq2xP9vO5MFIuyrXzN0/daA9wSblIPpdj5ay/vVxJ034cg+auzXJMkvXUZSB3MqZcH0RImSznIeWiwaJjpEV1btl0d5Wfrv1Q4h2SF2mPjrz+13p96/Qtao/qeffj75TBDOop+566DKaeDC27mbevXo25jdm+rL8cn7W3bxXTrjq8SrlZJS2Lll3kkEH7ffvERXEv+/uy5/VpW/fjGDT1Pk+WKgN56zaw3qYhdT7ztwf35Lu6vGU6oWzPvL6PzJfydfVb3zj5bPMEhnJ8nDT2pXPMepb0Lgpd5xzFp+uYPNuT4+2U3XZIWf3kXR+enlu39xtdcdX7/3Zc2+Acj7tKf17T91FCX1lJGSyDicq89WcGaH3ijvc35y/NUxq++4PpT3vNqzredf69bHlKGchA6tT7eSHlIXW+7mOYt38r9TnxCwQIECBAgACBIQK/8PMmDJnRPAQOg0A6OkvH6tVvfXPTuXnB2pKVzsecaCTkQu6QTol0XuQdgd9u7gbN37nLuYTLLv1PmvT9+vTO9aEH6CW+bzZpebl6l3Xiuu7at+yekO6cFOw8OjcXAbtOVEs6cjfrt598tknfqzNx5lG4GUGfC4/zli/x1J9J56NNGpOOOp2rxFnH3/X30PzJiWd5vF9O1LJ97TBknmWM2/G3p4esr55nUZ6W+NeZxhJn8jYXwdJJVMpzyt/73vNbM3ViaH6UePO5l2VKnVhXHavT0/d3nRd9Zahv2aT3oTz6vimHdd3I3TKpZ3mSxZD2oNSxrKcvDXtNZ/Kh7blq3T3V3AWaO1ITsn3pnFgU6mVyF+2iDpLEl/bsudOvv+jbB+ylnO1lmeRROv2ef+E/NHez/3Vzd9ff6Gzz//CfH5tS5E7K9l3Fi4wW/d6VlylrKWd12ze9sH06sr7H+bbXVbYv7WldlvdaVhJfLr6Xdw4nntzp2TfwKO1bBjfUbdEFzXt40z7Wy5Rt6yt3dTnrm6eub4vKYurdo//f02fV8WzPxRddMLOvbpvudborL7ryYUj9aKchcXcdx3TF3162azrx9bWBacvqvOtavv1dyvhTzeOM63KwF+u91PF2WsrxVJ2WlMnUtbptH7Kuep4bm7vbuh5fXR/z9s3TTmOpD/l+aF0vxxK58660ZVe8+eLp07zK/irzlEFI2Ze17zJvp2PodBzqY9549l2AqePsyov83j5erpdZx98p3+1jpKve8qZJBjfU5w11/g49p6iXGZrf8+pv2qN2Pq7DoB1Haavb5xnLHvck3nnbs+w5y17qwjLLJL++2pyXlmPlbG+OfRadU83zmh7vNfvFRee3Q/Zr7Xyql1m0n8u8GUScR3yX7Vt33VpnHd5LW9n26ZtO3DnnLQ5d+Vza0MSxl3O4vuPZrjSl3LWP4TPfXupbV/zt70qdaB8/lXSUY7qShrc1F3JzMbfsO9rxdU2XOtHet7aP99I+JC8S+s6NSvyJc+eGj9nzsWWObcq2J86+/WmZp+1T0tH+rOvh0GUSR7a969hqme0paelrZ/N7ytEyx2rrcC7pWvRZ7yP79qt7aQvikfO59vlOOefIgLV6/74onX3nCYmvlNtF+4msYy/bUspjlu8rs/mt3uaUydK+5bdV2pLkUfuYfdU4s7xAgAABAgQInNsCBjCc2/lv6wkQIECAAIF9EsidmHn8fULuWvv9O27dpzWJlgABAvsnkIuNn2leW5CQJ+zkqV0CAQIECBAgQIAAAQIECBAgQIAAgf0S+MX9ili8BAgQIECAAIFzWaC+M+3C1++8m/xc9rDtBAhspsC3m9dIlVDel12mfRIgQIAAAQIECBAgQIAAAQIECBBYt4ABDOsWFR8BAgQIECCwlQJ5v2ceuzkkZL4Hv/L47qx5rK5AgACBwyBw/N6HBicjbdmjjz29O38e3SwQIECAAAECBAgQIECAAAECBAgQ2E8BAxj2U1fcBAgQIECAwFYI5L2eeSf0PcceWDiIIRf8Mt9Lpwc7XHjBr0ze7qLfVpQDG0Fg0wXSjmVAwqfu/uLCtuzp778wbcvKNl93zXLvgi7L+SRAgAABAgQIECBAgAABAgQIECCwjMAv/LwJyyxgXgIECBAgQIDAuSaQO5bru5Avf/NF03fB149Tf/nlVyffbt4V/0Tzr4Tzz/+lySfueP/kyAVeIVFMfBIgMJ7AH3/63zSDq17dTcDVzdNh0p6VtuzUqb+anHzlJ9N27Onvv7g7XwZi3XH7LdqyXRF/ECBAgAABAgQIECBAgAABAgQI7JeAAQz7JSteAgQIECBAYKsEcudyXiMxNOSC38c++t7mwuCFQxcxHwECBPZVYPp6my8/Nnn08TOvhVi0wssvvWhy2wffZfDCIii/EyBAgAABAgQIECBAgAABAgQIrEXAAIa1MIqEAAECBAgQOBcEysW/Z559ceYu5rLteeLCxW84Mrm+eWWE10YUFZ8ECBw2gTxd4dHHvjd54rs/nJw69bOzklfasve959rpExrOmsEXBAgQIECAAAECBAgQIECAAAECBPZJwACGfYIVLQECBAgQILDdArnol0et55HrCUeaJy54VcR257mtI7CNAhmYdfL0ayXOP/91k/PP+yVt2TZmtG0iQIAAAQIECBAgQIAAAQIECGyIgAEMG5JRkkmAAAECBAgQIECAAAECBAgQIECAAAECBAgQIECAAAECBLZZ4Be3eeNsGwECBAgQIECAAAECBAgQIECAAAECBAgQIECAAAECBAgQILAZAgYwbEY+SSUBAgQIECBAgAABAgQIECBAgAABAgQIECBAgAABAgQIENhqAQMYtjp7bRwBAgQIECBAgAABAgQIECBAgAABAgQIECBAgAABAgQIENgMAQMYNiOfpJIAAQIECBAgQIAAAQIECBAgQIAAAQIECBAgQIAAAQIECGy1gAEMW529No4AAQIECBAgQIAAAQIECBAgQIAAAQIECBAgQIAAAQIECGyGgAEMm5FPUkmAAAECBAgQIECAAAECBAgQIECAAAECBAgQIECAAAECBLZawACGrc5eG0eAAAECBAgQIECAAAECBAgQIECAAAECBAgQIECAAAECBDZDwACGzcgnqSRAgAABAgQIECBAgAABAgQIECBAgAABAgQIECBAgAABAlstYADDVmevjSNAgAABAgQIECBAgAABAgQIECBAgAABAgQIECBAgAABApshYADDZuSTVBIgQIAAAQIECBAgQIAAAQIECBAgQIAAAQIECBAgQIAAga0WMIBhq7PXxhEgQIAAAQIECBAgQIAAAQIECBAgQIAAAQIECBAgQIAAgc0QMIBhM/JJKgkQIECAAAECBAgQIECAAAECBAgQIECAAAECBAgQIECAwFYLGMCw1dlr4wgQIECAAAECBAgQIECAAAECBAgQIECAAAECBAgQIECAwGYIGMCwGfkklQQIECBAgAABAgQIECBAgAABAgQIECBAgAABAgQIECBAYKsFDGDY6uy1cQQIECBAgAABAgQIECBAgAABAgQIECBAgAABAgQIECBAYDMEDGDYjHySSgIECBAgQIAAAQIECBAgQIAAAQIECBAgQIAAAQIECBAgsNUCBjBsdfbaOAIECBAgQIAAAQIECBAgQIAAAQIECBAgQIAAAQIECBAgsBkCBjBsRj5JJQECBAgQIECAAAECBAgQIECAAAECBAgQIECAAAECBAgQ2GoBAxi2OnttHAECBAgQIECAAAECBAgQIECAAAECBAgQIECAAAECBAgQ2AwBAxg2I5+kkgABAgQIECBAgAABAgQIECBAgAABAgQIECBAgAABAgQIbLWAAQxbnb02jgABAgQIECBAgAABAgQIECBAgAABAgQIECBAgAABAgQIbIaAAQybkU9SSYAAAQIECBAgQIAAAQIECBAgQIAAAQIECBAgQIAAAQIEtlrAAIatzl4bR4AAAQIECBAgQIAAAQIECBAgQIAAAQIECBAgQIAAAQIENkPAAIbNyCepJECAAAECBAgQIECAAAECBAgQIECAAAECBAgQIECAAAECWy1gAMNWZ6+NI0CAAAECBAgQIECAAAECBAgQIECAAAECBAgQIECAAAECmyFgAMNm5JNUEiBAgAABAgQIECBAgAABAgQIECBAgAABAgQIECBAgACBrRYwgGGrs9fGESBAgAABAgQIECBAgAABAgQIECBAgAABAgQIECBAgACBzRAwgGEz8kkqCRAgQIAAAQIECBAgQIAAAQIECBAgQIAAAQIECBAgQIDAVgsYwLDV2WvjCBAgQIAAAQIECBAgQIAAAQIECBAgQIAAAQIECBAgQIDAZggYwLAZ+SSVBAgQIECAAAECBAgQIECAAAECBAgQIECAAAECBAgQIEBgqwUMYNjq7LVxBAgQIECAAAECBAgQIECAAAECBAgQIECAAAECBAgQIEBgMwQMYNiMfJJKAgQIECBAgAABAgQIECBAgAABAgQIECBAgAABAgQIECCw1QIGMGx19to4AgQIECBAgAABAgQIECBAgAABAgQIECBAgAABAgQIECCwGQIGMGxGPkklAQIECBAgQIAAAQIECBAgQIAAAQIECBAgQIAAAQIECBDYagEDGLY6e20cAQIECBAgQIAAAQIECBAgQIAAAQIECBAgQIAAAQIECBDYDAEDGDYjn6SSAAECBAgQIECAAAECBAgQIECAAAECBAgQIECAAAECBAhstYABDFudvTaOAAECBAgQIECAAAECBAgQIECAAAECBAgQIECAAAECBAhshoABDJuRT1JJgAABAgQIECBAgAABAgQIECBAgAABAgQIECBAgAABAgS2WsAAhq3OXhtHgAABAgQIECBAgAABAgQIECBAgAABAgQIECBAgAABAgQ2Q8AAhs3IJ6kkQIAAAQIECBAgQIAAAQIECBAgQIAAAQIECBAgQIAAAQJbLWAAw1Znr40jQIAAAQIECBAgQIAAAQIECBAgQIAAAQIECBAgQIAAAQKbIWAAw2bkk1QSIECAAAECBAgQIECAAAECBAgQIECAAAECBAgQIECAAIGtFjCAYauz18YRIECAAAECBAgQIECAAAECBAgQIECAAAECBAgQIECAAIHNEDCAYTPySSoJECBAgAABAgQIECBAgAABAgQIECBAgAABAgQIECBAgMBWCxjAsNXZa+MIECBAgAABAgQIECBAgAABAgQIECBAgAABAgQIECBAgMBmCBjAsBn5JJUECBAgQIAAAQIECBAgQIAAAQIECBAgQIAAAQIECBAgQGCrBQxg2OrstXEECBAgQIAAAQIECBAgQIAAAQIECBAgQIAAAQIECBAgQGAzBAxg2Ix8kkoCBAgQIECAAAECBAgQIECAAAECBAgQIECAAAECBAgQILDVAgYwbHX22jgCBAgQIECAAAECBAgQIECAAAECBAgQIECAAAECBAgQILAZAgYwbEY+SSUBAgQIECBAgAABAgQIECBAgAABAgQIECBAgAABAgQIENhqAQMYtjp7bRwBAgQIECBAgAABAgQIECBAgAABAgQIECBAgAABAgQIENgMAQMYNiOfpJIAAQIECBAgQIAAAQIECBAgQIAAAQIECBAgQIAAAQIECGy1gAEMW529No4AAQIECBAgQIAAAQIECBAgQIAAAQIECBAgQIAAAQIECGyGwOs2I5lSSYAAgdUFvv7IX0x+/OMfT6668orJGy+5aPUIxUCAAAECBAgQIECAAAECBAgQIECAAAECBAgQIECAwNoEDGBYG6WI9lvgh8+9OPnGI4+vZTUf/ps3ryUekWyOwL/802OTP/lXn91N8D/8H//25CMfumV32h8ECBAgQIAAAQIECBAgQIAAAQIECBAgQIAAAQIECIwrYADDuP7WvoTAD5/70eSf/LN/scQS/bMawNBvs42/vPLjn8wMXsg2ZjCDAQzbmNu2iQABAgQIECBAgAABAgQIECBAgAABAgQIECBAYFMFDGDY1JyTbgIEBgv8+MevnjXvD5onehym8ONmkMUTTz4zk6R33vCbM9MmCBAgQIAAAQIECBAgQIAAAQIECBAgQIAAAQIECGyzgAEM25y7to0AganAGy+5aPLbN1wz+Vr1CpLbDtlrRB7486/NPGHkTU2a/6//83+XgwQIECBAgAABAgQIECBAgAABAgQIECBAgAABAgTOGQEDGM6ZrN7ODc1F3lycFggsEviDf/DfTv7kT49Nftg8eeGd77h28p/f/jcXLeJ3AgQIECBAgAABAgQIECBAgAABAgQIECBAgAABAgQOUMAAhgPEtqr1C3y4uYv+v/mvb19/xGLcOoEMdMkgBoEAAQIECBAgQIAAAQIECBAgQIAAAQIECBAgQIAAgcMp8IuHM1lSRYAAAQIECBAgQIAAAQIECBAgQIAAAQIECBAgQIAAAQIECJxLAp7AcC7ltm1dWiCvG/jGI49Pnv3hC9Nlf+3XfnVy6Rsvmrzzhmsm+XvZ8PVH/mLy7RPfm/z4xz/Zje9tV/1GE99vLhtV7/ztNL/tqismV115xZ5ftXHiyacmJ558esYgab76ysv2ZNCV8Haaf/sdvzXXpHZMPqzbsJ3G5NfXp+Xgxd28W9W1vY7DPt0uB+vY/nacyct3veOaaXk97B7SR4AAAQIECBAgQIAAAQIECBAgQIAAAQIECBAgsH4BAxjWbyrGLRD4N//2gcnxz98/+Vpz0bov3Na8vuL3m9dX5NUE80Iufv/rz3x+8n8f+7eTV04PXGjP/6YmjrwO47YP3bIwvo/+Z393ZvF/8o//4fRify7q/8mffqY3zbf8zo2Tv/ff/xcL4y+RJ83/z7HPT37QDOLoC0MN/pf/9Z/OpOv3/6uPTV/90ZfmP/lXn53E5A/+wSdnBjIkX/7lnx7rTFPm/z/+8R/0bt8//Wf/YnK8Wb6EkoYy3fXZl7563rddefnkb93+oclHmrxbNmRbsq1dIe51Xv92M2jmf/tHf39yx13/88zsf/+/+y8nf+vjH5r5rm/ib/8P/2jGLvlXXqvRTkv5bZHB0DJQpynrWlQfkj97Ma3X428CBAgQIECAAAECBAgQIECAAAECBAgQIEDg/2fv/oPtLOtD0b9AEvKTHwETQIImsaGnEoKtc0nCnfMHiP5xCko7teVerO1Uj2Jnqleqdy726LGncOdYcNSZKlxxWisdvXRuUfD8URH+OC0kzNBKAG1BSBRQSIAASXYCJMB9vis8K+9697vWetfee+2svffnmdmutd4fz/s8n+ddKyPf7/s8BAjMLAEJDDNrvLR2yAIxE0AEunslLuQmRDA8/noFkCP4+/lrv9o1cSHXFcHqCGRHgP5zKUgdMyYMUm646Zbi1pRs0Kvcc++P0kwKjxdf/dKf9Zw5IQz+PLX50TTrQr+SDZokA1TrqgbMq/vDJNrxhWs+2UpKiD6WExDqjo9EiX79q57X7XMT0zg3nK77yjeLx9LrRz/0/m7VTcn2pWmGgkhkKN+f99x7f6MEhrgXq8kol/VJfIgklhu/cUvPtseYbLl3W2uc+t23Te+taGeYfjfd05+9+mNdk1J6NsxOAgQIECBAgAABAgQIECBAgAABAgQIECBAgACBGSdw7IxrsQYTGJJABFerMwU0udTXUoD3jjRbQ7VsSYHlT33mur7JC+XzInB75Sf+Ii1X8NPy5p7vb7zpO32TF3IFUX8EpbuVbNAkeaFcRyRfREJC0xKJGt1mHijXsTfNWBGJBP2SF/I5/fqXj+v32jR5oVxPJJBE8suwyxWXX9pxiUhmiKUY+pU77ry745C1KUmmV8LBPSkpoV/yQq4wxunTn/liz3b0urciMSP+qiXuw/hO5iVXqvt9JkCAAAECBAgQIECAAAECBAgQIECAAAECBAgQmF0CZmCYXeM553qzfccvWrMWDNLxFStO7ViWIJ8bgdIIgJdLBFXjKfXVaZmAWKJgbOyllKxwd0oweKR9bGw/d/3Z5dOKCNZe9+VvdmyLD/H0fCwTEfVFXbt2PVu7JELMPPBXaaaEfstTRJ052SDq3nj+ecWG9etade8dGyt+eOfWImZeKJfvpaUsPpCWvqgrdQbRv/emJRKi3ihhtHXr/eNmQ4iEhA3rf7XWtnqt7FyuOzyirbdWEizKsw1U/WIsqrMyPNhj2Y9qO+o+RyJG3WwWsVTCxo3nte+DurHbULkP6uovb3vbmlVF1Bsl7plyX5ele2/T+Rvah69I4xDl3HN+pYhlK/K4x7a703j0SkaIuqtOl11yYZzateTlTuI78J4LNxZvT30rfwciwSEfE5XkZJNYxqOuVO+t/N2Kdix5I3kh2hnjF2OQ75F4ve7Lf5tmJvloXbW2ESBAgAABAgQIECBAgAABAgQIECBAgAABAgQIzCIBCQyzaDDnYlci4F0N0PdziIBxBIHLJWYEyAHTvD2CxBGMzcHVvD3OjUBrBGSjxDHVRIObUwC2HNyN4yJpIJZa6Cy/Urwrtac6g0EEg6OOqz7+B52Hd/lUX3dRXJASGj5/7Q0dRlF3PNFe7VedQSRbfPSPfqfj2HhyP+qNYP4XU5JGuZ/Xf/mvi29+/dourezc/FspMSQ8yu0I2yWLF9XOzhDLM1yWEinKJY9FOfAfYzPREudWZ4aIoP1n07Ie0e/OcmTsIuniytS+GMtByqbkGH9Rwr/cjyVLFnUd/0hUKScw9EpKibqrSR3Rp4vT2PYrkTASS5qUxyjOCfcr3vgOlL830f6YPST2l0s5ISG2x/XrvjfxPVqZDNen65YTHuI7Xldv+RreEyBAgAABAgQIECBAgAABAgQIECBAgAABAgQIzHwBS0jM/DHUgykQqC5/kAOs1cBtvlQEWiMA+9WaWRIiCF592j0H6/P51dcI5FeD81FHk6nzuyUv5GvEDBLVUk46yPvqDK76kw+OC17n4yOJ4YrLOxMyIph9T5oNoF+JJJKP/NH7a+uua29d8kK+xvsqSQ3lgHo+pulrJI1US33ywpGjYuziPhg0eeFIDYO/C6PykguRlNJr2ZFbb/thx0XOTQkC/UqT70DYVEt1Bo3YH8kZ5RJm1aSf8v7Yd9XH/7C8KSX03Nbx2QcCBAgQIECAAAECBAgQIECAAAECBAgQIECAAIHZJyCBYfaNqR4NKLB9xxPjZl+ozgxQV2UEWesSHGI6/2qpBtmr++NzNRkgtt1xZ2fgN7ZVy7nndC5fUd2/ZvWbq5vGfY7gdzXwHwkG/UokXcRT+uVyx11byx9r3+flEOp2lgPzef/a1Wflt+Nely5dMm7bRDfE0iDlEokW42deKB9x+H2vYPz4oye/JYw2VGY56Bbgj/u7PFtDXP2KLkuIlFvWJMkhbPISGPncBx96OL9tvUZCS/neajr7Q8ziUL4Xtu94slFCT8fFfSBAgAABAgQIECBAgAABAgQIECBAgAABAgQIEJhRApaQmFHDpbFVgQiGDho8Xl1ZCuD+BzuD1stScLjJ9PrVtuTPW+/tTGDYfP47GrXxcFB6XccyAo+l4PNkSzkI3K2uR7c/3rErDDanJSKalJjuv7z0QTWA3aSOUTgmZqUoB9qjTXl5h1FoX7UN77v04uLue7e1N8cY1C0NUp0RIRJOBv3OtC9S8yaMyjOOxGwQO3c9m65xauvoalLImh7JKNXqN5+/oV334XqfK9asXlw9zGcCBAgQIECAAAECBAgQIECAAAECBAgQIECAAIFZIiCBYZYM5FztRkzbH0soTKbsSsselMua1WeWPw78vrrsQ5MZEPJF1qTkinIywGPpqfPpKJMxqM5QEIHmmVi27/jFuGavXTO5e2FchVO4IWYoiGSE8v3yD7fdOe77UE0guDh9Z6ayrF2zalx1Y2MH2tt2pWSGcrnn3h8V73nvR8qbGr9/bPsTKYFh/PUaV+BAAgQIECBAgAABAgQIECBAgAABAgQIECBAgACBkRawhMRID4/GTYdANeFgstfct/+lCVexZMmijnOnum0dlZc+TOY6dUs4xBP4s6HkWQRGtS8b0+wH5fK92+8qfyx+eNeWjlklmi7f0FHJBD7sGzvyHdhXSmaYQFVOIUCAAAECBAgQIECAAAECBAgQIECAAAECBAgQmEMCZmCYQ4Otq/UCS9JyCeVyNAOu5SfXo01TOdV/uY/Dfj/qgf+m/S8vhdD0nOk87t0XbSr+7jvfL2L5iygx+8UDD/20iNkZovzgzntar/l/zk0zNkx3WVpJyoklTarbmrap+l1tep7jCBAgQIAAAQIECBAgQIAAAQIECBAgQIAAAQIEZoaABIaZMU5aOUSBFStO6ai9upxCx84GH9a+9c3F0zuPzEBQtzRBt2q273iiY9eSJUs6Pg/rw+rWtPxb2tVvH2Dpike3P94+L94sqySEdOwc4Q8rVywf17qdu55PSSSnjts+KhsiGSCWhLj19jvbTbo1LSMRCQw709Io5eUl4oArJrncSvsipTc7d+0ufTr8duWKk9vbVlT81qYlWr5wzVXt/d4QIECAAAECBAgQIECAAAECBAgQIECAAAECBAgQyAKWkMgSXueswNvWnNXR9/wUe8fGAT4cTgY4csKDDz1cNFmioS7gvOGNJ+mP1Dacd5Mx+F4peB6tW3/O2cNp5JBrjdkuIiGgXO648+7yx5F8v3njOzrale+3m799e8f2zee/YygzelSNIoGlnPTxtjWrOtoRyTFNvg8dJ/lAgAABAgQIECBAgAABAgQIECBAgAABAgQIECAwJwQkMMyJYdbJXgLxtHo1cH3jTd/pdUprXyQc1AViN6z/1Y5zIyHiW9/+fse2ug/VgHMcs2njeXWHTvm2OoObv31b3+v88K4txdPJoVw2n39u+eOMeh+zGZTLD1L/qrNilPfn93X3Qd437NcYuw2lpSHifrvjzi1pKYlHOi598YUbOz73+xD3d78Sx4RRuVQTWDaev6Hj+xXt+4c0S4RCgAABAgQIECBAgAABAgQIECBAgAABAgQIECBAoCoggaEq4vOcFHjfJRd29PvR9JT49V/+m45t5Q8RsP7za79afPoz149LYqgGlOO8mOL/uz2Ctt9KT8tXA8HvTsH0mBVgukrVIJYfiHZ1K4+l5S6+dtMtHbtPS+29+KLNHdtm0ofLLr1oXHM/f+3XWssxjNvxxoYw+tgn/qJRokO3Ouq2j40dqNtcu23j+Z2JLt/6zvc7EktiXDYPmAwT4//5a2/o2vdIXoj7v1qqCSyRHFS9t25O7bvjznuqp477HMf0+t6MO8EGAgQIECBAgAABAgQIECBAgAABAgQIECBAgACBGS0wb0a3XuPnvEAEQuNv0PKP37ux45QPXH5JUZ1NIBIK4in2K37vN4u1aRr8JW8sL/CDCKreflexLyUxRIng9Reuuaoj2eCqj/9Ba3s+Jo772jduKSLof/FFF6Rjl8emFBzeXcRMBxEsLpcI+l6R2jSdJYL3VYOwjW1lg2jztgf/vdY9jpvJJRJGog/leypmmPj9D19dREJJeexiZoZbU1JKHrtPf+aLxWev/lgRCSwTKYsXL+o47fDMHbcX704JIWG+c+czXZND3n3RpuLv0ljl+y2/5gonOi733PujlJjxePHeSy4qzlu/rut3IF+nWwJL3b113Ve+efj7le7zcqJOJAc9tuMX7e9FLElxbrr2mtWdS1Hka3olQIAAAQIECBAgQIAAAQIECBAgQIAAAQIECBCYPQISGGbPWOrJJAUiCSGeKC8viRDvI9Daq8Qx99x7f3FZCvLmEgHZKz/0/uIvK7M4RFJEdaaFfE75Nc4tB3XL+4b1PpImwiASMsoB8CYG0aZIApnJsy9k1+jHgymhJCcm5O39xi4SDiIZJQwnUiJIXy3lBJ0I5HfzjbGL5S9ipo+6cu76s+s299wWdcZ9EON/Y0q+aVK69T3q+uzVV6bv1xc77q1sGvvXrj6zNdtDXK9cwjVmQ4m6cxJReb/3BAgQIECAAAECBAgQIECAAAECBAgQIECAAAECs0fAEhKzZyz1ZJICkTAQQdJ4inyQEgHvcvJCPvddKaD80ZSIEMHZpiWO/VSavSHOPRolDL76pT+bkMFEn/I/Gv3sd824D+rGtNd5G85ZV3wuBeknWmLso45uJQL5Dzz002670xIR76jdN9GlSDafv6GVlFJbaWVjvm97Jd2sTTMofOGaT9beW5EoEQkj1eSFuEzUfdml75K8UDH3kQABAgQIECBAgAABAgQIECBAgAABAgQIECAwGwXMwDAbR1WfJiwQAdhvfv3a1hICd6SlIuoCqrnyCDZfcfmlPZcMiCD45vPPS0/m395z5oUI0kbAOJaN6BUEztce5mtc/69SEkMskzEVBsNs6zDrjuSTt6WlQ2697YfFozue7HqpGLsrLv/NgRMe6iqMpUeqs4Dk4+I6Y2Nj+eO411i6Iu7J6swRsezFREskpURCz7fS/dvtuxDX/EiyigSFfuVwEsNVxR1pJpJ+99bhxIWLkuuFkhf6wdpPgAABAgQIECBAgAABAgQIECBAgAABAgQIEJglAse8nsos6YtuzAGBnZXp5Sfa5aZJAvHE+6PbHy+e3fVssXfsQLFsyaLi1BWnFhdsPG/gRINo+6M7nii2b3+i2PVGP1ak4PCaFCQ/LwWBm06PXzVYmtrU79zqOU37H75hsO3Bfy8OpKfks8GaNWcVm1LCRb/r5vEZS+fuS3659Gtztb2DHl/Xv0HbkNsar9GeWFZie7oXskHcB29LDpE4MNXl7rQkSb5P8j33nos29fW+4aZbOpaRiOSDSMhpUiJJIZasyCVmboiEilzyfRD3bm7ThrTsRZPEhVxH9TXXWb63hulavb7PBAgQIECAAAECBAgQIECAAAECBAgQIECAAAECoyUggWG0xkNrCBAgMGGBD3746o6ZEv70Tz5YXHzR5kb19UtgaFSJgwgQIECAAAECBAgQIECAAAECBAgQIECAAAECBAhMQuDYSZzrVAIECBAYEYEfpmUZqss8nLv+7BFpnWYQIECAAAECBAgQIECAAAECBAgQIECAAAECBAgQ6C8ggaG/kSMIECAwcgKxJEYuscRFzKBQLrEERN1SGuVjvCdAgAABAgQIECBAgAABAgQIECBAgAABAgQIECAwSgLzRqkx2kKAAAECzQQ+/ZnrWwfuGzswbuaF2HHF5Zc0q8hRBAgQIECAAAECBAgQIECAAAECBAgQIECAAAECBEZEQALDiAyEZhAgQGAQgUd3PNn18A+k5AWzL3TlsYMAAQIECBAgQIAAAQIECBAgQIAAAQIECBAgQGBEBSwhMaIDo1kECBDoJrB9xxPddhWRvHDF7/1m1/12ECBAgAABAgQIECBAgAABAgQIECBAgAABAgQIEBhVATMwjOrIaBcBAgS6COwbe6nYcM66Yueu51pHLF2yqPV548ZfL84951e6nNV78+aN5xWnrzy1fdCKFUfetzd6Q4AAAQIECBAgQIAAAQIECBAgQIAAAQIECBAgQGCIAse8nsoQ61c1AQIECBAgQIAAAQIECBAgQIAAAQIECBAgQIAAAQIECBAgQKCvgCUk+hI5gAABAgQIECBAgAABAgQIECBAgAABAgQIECBAgAABAgQIEBi2gASGYQurnwABAgQIECBAgAABAgQIECBAgAABAgQIECBAgAABAgQIEOgrIIGhL5EDCBAgQMQf2P0AAEAASURBVIAAAQIECBAgQIAAAQIECBAgQIAAAQIECBAgQIAAgWELSGAYtrD6CRAgQIAAAQIECBAgQIAAAQIECBAgQIAAAQIECBAgQIAAgb4CEhj6EjmAAAECBAgQIECAAAECBAgQIECAAAECBAgQIECAAAECBAgQGLaABIZhC6ufAAECBAgQIECAAAECBAgQIECAAAECBAgQIECAAAECBAgQ6CsggaEvkQMIECBAgAABAgQIECBAgAABAgQIECBAgAABAgQIECBAgACBYQtIYBi2sPoJECBAgAABAgQIECBAgAABAgQIECBAgAABAgQIECBAgACBvgISGPoSOYAAAQIECBAgQIAAAQIECBAgQIAAAQIECBAgQIAAAQIECBAYtoAEhmELq58AAQIECBAgQIAAAQIECBAgQIAAAQIECBAgQIAAAQIECBDoKyCBoS+RAwgQIECAAAECBAgQIECAAAECBAgQIECAAAECBAgQIECAAIFhC0hgGLaw+gkQIECAAAECBAgQIECAAAECBAgQIECAAAECBAgQIECAAIG+AhIY+hI5gAABAgQIECBAgAABAgQIECBAgAABAgQIECBAgAABAgQIEBi2gASGYQurnwABAgQIECBAgAABAgQIECBAgAABAgQIECBAgAABAgQIEOgrIIGhL5EDCBAgQIAAAQIECBAgQIAAAQIECBAgQIAAAQIECBAgQIAAgWELSGAYtrD6CRAgQIAAAQIECBAgQIAAAQIECBAgQIAAAQIECBAgQIAAgb4CEhj6EjmAAAECBAgQIECAAAECBAgQIECAAAECBAgQIECAAAECBAgQGLaABIZhC6ufAAECBAgQIECAAAECBAgQIECAAAECBAgQIECAAAECBAgQ6CsggaEvkQMIECBAgAABAgQIECBAgAABAgQIECBAgAABAgQIECBAgACBYQtIYBi2sPoJECBAgAABAgQIECBAgAABAgQIECBAgAABAgQIECBAgACBvgISGPoSOYAAAQIECBAgQIAAAQIECBAgQIAAAQIECBAgQIAAAQIECBAYtoAEhmELq58AAQIECBAgQIAAAQIECBAgQIAAAQIECBAgQIAAAQIECBDoKyCBoS+RAwgQIECAAAECBAgQIECAAAECBAgQIECAAAECBAgQIECAAIFhC0hgGLaw+gkQIECAAAECBAgQIECAAAECBAgQIECAAAECBAgQIECAAIG+AhIY+hI5gAABAgQIECBAgAABAgQIECBAgAABAgQIECBAgAABAgQIEBi2gASGYQurnwABAgQIECBAgAABAgQIECBAgAABAgQIECBAgAABAgQIEOgrIIGhL5EDCBAgQIAAAQIECBAgQIAAAQIECBAgQIAAAQIECBAgQIAAgWELSGAYtrD6CRAgQIAAAQIECBAgQIAAAQIECBAgQIAAAQIECBAgQIAAgb4CEhj6EjmAAAECBAgQIECAAAECBAgQIECAAAECBAgQIECAAAECBAgQGLaABIZhC6ufAAECBAgQIECAAAECBAgQIECAAAECBAgQIECAAAECBAgQ6Cswr+8RDiAwAwRee+31Iv4OHXptBrRWEwkQIECAAAECBAgQIECAAIG5LDBv3rFF/CkECBAgQIAAAQIECBAg0CkggaHTw6cZJBDJCnvHDhZ7978icWEGjZumEiBAgAABAgQIECBAgAABAocFFh4/r1i2ZEGx6PjjJDS4KQgQIECAAAECBAgQIJAEjnk9FRIEZpJAzLTw/IsvFy/ue3kmNVtbCRAgQIAAAQIECBAgQIAAAQK1AjEbw7LFC4qTTzy+dr+NBAgQIECAAAECBAgQmCsCEhjmykjPkn7GrAu/fGZs3IwL8+YdUxy/wIQis2SYdYMAAQIECBAgQIAAAQIECMxqgVdffS39t420FGZ6LZeYkeG0UxcXxx57THmz9wQIECBAgAABAgQIEJgzAhIY5sxQz/yOVpMXjj3mmOKEExYUJy093v+xn/nDqwcECBAgQIAAAQIECBAgQGDOCbzyyqvFC2mGyX1picxcFiw4rjjjTUv8t44M4pUAAQIECBAgQIAAgTklIIFhTg33zO7s40/tbc+8MO+4Y4szViyxPuTMHlKtJ0CAAAECBAgQIECAAAECBJLA3pTA8NzzB4rX3ljpdemSBcWK5YvYECBAgAABAgQIECBAYM4JHDvneqzDM1Jg956XJS/MyJHTaAIECBAgQIAAAQIECBAgQKCfwLIl84vT04MaMdtklH1jrxQHXjrU7zT7CRAgQIAAAQIECBAgMOsEJDDMuiGdfR2KpSPi/7jnYuaFLOGVAAECBAgQIECAAAECBAgQmC0Cx6elI04+cWG7O8+nhzkUAgQIECBAgAABAgQIzDUBCQxzbcRnYH8PvPxqe/aFmEJx3jy37QwcRk0mQIAAAQIECBAgQIAAAQIE+gicuCz9d4+0bGaUl14+ZBaGPl52EyBAgAABAgQIECAw+wREgmffmM66Ho0dONju0wmL57ffe0OAAAECBAgQIECAAAECBAgQmG0CS5ce+W8frxx8bbZ1T38IECBAgAABAgQIECDQU0ACQ08eO0dB4JWDR9Z8XLhw3ig0SRsIECBAgAABAgQIECBAgAABAkMRWLrwSALDS6+8OpRrqJQAAQIECBAgQIAAAQKjKiCBYVRHRrvaAocOvd56b+mINok3BAgQIECAAAECBAgQIECAwCwVKP/3j1dflcAwS4dZtwgQIECAAAECBAgQ6CIggaELjM0ECBAgQIAAAQIECBAgQIAAAQIEplvg2GOPme5Luh4BAgQIECBAgAABAgRGRkACw8gMhYYQIECAAAECBAgQIECAAAECBAgQIECAAAECBAgQIECAAIG5KyCBYe6OvZ4TIECAAAECBAgQIECAAAECBAgQIECAAAECBAgQIECAAIGREZDAMDJDoSEECBAgQIAAAQIECBAgQIAAAQIECBAgQIAAAQIECBAgQGDuCkhgmLtjr+cECBAgQIAAAQIECBAgQIAAAQIECBAgQIAAAQIECBAgQGBkBCQwjMxQaAgBAgQIECBAgAABAgQIECBAgAABAgQIECBAgAABAgQIEJi7AhIY5u7Y6zkBAgQIECBAgAABAgQIECBAgAABAgQIECBAgAABAgQIEBgZAQkMIzMUGkKAAAECBAgQIECAAAECBAgQIECAAAECBAgQIECAAAECBOaugASGuTv2ek6AAAECBAgQIECAAAECBAgQIECAAAECBAgQIECAAAECBEZGQALDyAyFhhAgQIAAAQIECBAgQIAAAQIECBAgQIAAAQIECBAgQIAAgbkrIIFh7o69nhMgQIAAAQIECBAgQIAAAQIECBAgQIAAAQIECBAgQIAAgZERkMAwMkOhIQQIECBAgAABAgQIECBAgAABAgQIECBAgAABAgQIECBAYO4KSGCYu2Ov5wQIECBAgAABAgQIECBAgAABAgQIECBAgAABAgQIECBAYGQEJDCMzFBoCAECBAgQIECAAAECBAgQIECAAAECBAgQIECAAAECBAgQmLsCEhjm7tjrOQECBAgQIECAAAECBAgQIECAAAECBAgQIECAAAECBAgQGBkBCQwjMxQaQoAAAQIECBAgQIAAAQIECBAgQIAAAQIECBAgQIAAAQIE5q6ABIa5O/Z6ToAAAQIECBAgQIAAAQIECBAgQIAAAQIECBAgQIAAAQIERkZAAsPIDIWGECBAgAABAgQIECBAgAABAgQIECBAgAABAgQIECBAgACBuSsggWHujr2eEyBAgAABAgQIECBAgAABAgQIECBAgAABAgQIECBAgACBkRGQwDAyQ6EhBAgQIECAAAECBAgQIECAAAECBAgQIECAAAECBAgQIEBg7gpIYJi7Y6/nBAgQIECAAAECBAgQIECAAAECBAgQIECAAAECBAgQIEBgZAQkMIzMUGgIAQIECBAgQIAAAQIECBAgQIAAAQIECBAgQIAAAQIECBCYuwISGObu2Os5AQIECBAgQIAAAQIECBAgQIAAAQIECBAgQIAAAQIECBAYGQEJDCMzFBpCgAABAgQIECBAgAABAgQIECBAgAABAgQIECBAgAABAgTmrsC8udt1PScwcYGnd71QHDr4aqMKFi1aUMyfd1xxwgmLGx1frvu0lScV89K5CgECBAgQIECAAAECBAgQIECAAAECBAgQIECAAAECBGa7gASG2T7C+jcUgZ88/ESx/6VXBqp7cUpkWH7ysmLd2jOKxQsXdD13x+O7iuee39vav2nxuuKUdI5CgAABAgQIECBAgAABAgQIECBAgAABAgQIECBAgACB2S4ggWG2j7D+jYzA/gOvFPsPPFfsTskJv7ZuVXHaipNGpm0aMnsF9uzZXxw8dHi2kBPTLCBm9Ji9Y61nBAgQIECAAAECBAgQIECAAAECBAgQIECAAIGZLiCBYaaPoPYfdYFTli8rFvWYUeFASlzYs++l4uDBg622RiLDfdseKza90+wKR33w5kADfvzIk0dm9HDPzYER10UCBAgQIECAAAECBAgQIECAAAECBAgQIECAwMwVkMAwc8dOy0dEYNXpy4szzzi1Z2viCfgdj+8sHnnsqfZx2378s+I/bvw1T8S3RbwhQIAAAQIECBAgQIAAAQIECBAgQIAAAQIECBAgQGAuCxw7lzuv7wSmS2D+vOOKdWvOKNatPb19yZiJ4YlfPNv+7A0BAgQIECBAgAABAgQIECBAgAABAgQIECBAgAABAgTmsoAEhrk8+vo+7QKRxHDKycva1336mRfb770hQIAAAQIECBAgQIAAAQIECBAgQIAAAQIECBAgQIDAXBawhMRcHn19PyoCJyxbVDz3/N7Wtffs3T9lbYhlKvbs2V/s3XegOHjwUDF//rxi4cIFxSnLlxUxA8REy3O79xYH0mwRB156uVVF1Lts6aJWvYPWGW3cufOF4tCrr3a08YQTFheLU1snUnKdU9G+iVw/zqkaLVu2uJhMn6rtiHHd/cK+llnsi/onO67Va3T7XL2v8vWnsn/Z78w3n9KtGbYTIECAAAECBAgQIECAAAECBAgQIECAAAECBAjMAQEJDHNgkHVxtAROTMHnXCI4PNmy/6VXih0/31k8+dSzKcD9Wm11Z55xSlq+4ozGSQLRrp/9fFex/Ymnu9a5eNGCYtXppxa/UloWo/biaWO0cdtDP2snbtQdFzNTrFtzeuPEiAh6P7L9qa51DtK+uvb029bEKPq05qwVxcoVJ/WsLpYTueufH2wdE+dseue61vsnf/lcsf3xXUW3RJez04wedf53/dODLfPqRbfc90jHpgv/13OKxYuO79iWPzTt34Zz3tr3vop+3P/jn7WqjnvxvLe/tfX+p4891XGPSWBosfgfAgQIECBAgAABAgQIECBAgAABAgQIECBAgMCcFZDAMGeHXsePlsArhw5N2aUfT4Hhf3vk8a5JBvlCEUDeueuFYkMKHJ/WJ5jetM4Iuj+8/ZfFU8+8UGxOAfd5XWZ52LP3QLHlX/59XBsXL1yYguwv5Sa2EhG2/MveYnUK+L/97FXt7XVvIvAd1+5VcvueSIkdG995dt8ge6+6qvsiIeO++x9NiQUHqrs6PsdMG/HXLdGg4+DShyYJH3F4GMT91M+rVHWjt9Gv+7Y9WoRhrxJ9i2SJYfWv17XtI0CAAAECBAgQIECAAAECBAgQIECAAAECBAgQmH0CEhhm35jq0YgLPPf8vnYLy7MxtDc2fBOJBg+88VR7nNKawSDNhnBCmuEhloyIJ+jjyf0n0nGRwBCf79v2WPHODWu7JjH8LD3t/9DDT7RbEHWuSk/ML1++tLXt0MFXi7G0lMTPfv5Me+aDuMbDj/2yNojeCvSnQHieGSKevo/6ot5c4vynUxLEk7/cnQLmLxc7UhvCJY6tKz9++Ml0zM72rnWpz1FfrjP6GckaMTtD1BdB+K33PTxlSQzRp6gvB/djBoOYZeHNqb15qY7oU8ycEO5RcrJF3WwJ7Y688eZAqf758+enhI5TW31blGa8iKU89qbkgqg7+hYlvMI0xj2X01OSysvJIcrOZ55v+5/2ppOKefOPLCeyIC0HUi3VhJNwDeN8X8XxkbiQ76v4HP2LBJbVb1kRH3uWuIfKflF/LKuiECBAgAABAgQIECBAgAABAgQIECBAgAABAgQIEBgfvWJCgMDQBCL4HcH1XE49+XBiQP7c9DXqiZkXcokA87q0nEC5RDA9B/ZPSsHtnJiwLSU9nLp8fe2MCStSgHv+9l+kQPz8NFvDW9pJAe16FxatQPbpbzo5JQj8sngkzYQQJYLoZ6clKqqzMOxOyzzkQH956YB2felNBMbj78y0HMVPHnmiVUe35IUI3OfkhUgciGSMavA7+h3nx19uY7QhlrDISzOUrz/o+3LwPRIHfi3NFpETF3Jd0Z9YJiHGZOu/PNJKNoggfySC5ESLfGz1NScmrE1JEf+hMhPF4oXHt86Pcfqne3/cTkyI5TTimrmUz9ty3yvtZJNIMOh1/WrCSd19FdfI91Ukbmz5l4db7fhxGrtTUv/K7cjtKb9GskqUqCNmBImlPhQCBAgQIECAAAECBAgQIECAAAECBAgQIECAAAECIXAsBgIEpkcggswR/C6Xt5y1svyx8fufpFkS8qwG3YLM5cremgLN57wRDI8ZCnb8/MgMBuXjIpj89nVnFRt/Y13PQHecE8H5cjD86V3Pl6tqvY/lJXKJYH+vEteOhIRuyyFEcP1npZkX6pIXqvWX25iXc6geM8jnmFEhJ2REAkUE4KvJC+X6DvdpTXtTJI80KRvOOWtc8kL5vKg3Ej5yeXFf76Us8nH9Xh9JM2nk/kUCSDUppnp+JCu8c8Pb2ptjdowmJe7ZSCaJfigECBAgQIAAAQIECBAgQIAAAQIECBAgQIAAAQIEsoAEhizhlcAEBSKwHskJdX9Pp9kWYlmGLfc9kp5UjyfxX2lfJYK4EwngxvWi3igRRO8XZM4XjCSG+fMPf+VjJoNDbywxkPfn1whcN21XefaDWN6gV4mlA5qUbgkB1dkcytfuVW8455JnjMifB32NGR1yiRkqmpQI8q9O9lFi/CORoleJpJBVp7+p1yGtfXlZj/jQz75vZemASGzJS17E8U3vqzwbQ5wTfcszSMTnuhLLWDStu+582wgQIECAAAECBAgQIECAAAECBAgQIECAAAECBGavgCUkZu/Y6tk0CRwOih9eSqHpJZvMmtCtrvLsCae/6cRuh9VuX7NqZfHw9qdaweoX9+7vmEGh9oQ+Gxek5Rp6lZOWLmovmRFLDMQSE6csX9brlK77tpdmX+g3m0O5khxgj+D6ntTnSNyoLnVRPr7b+0hQyQkoJ6akhPLsE93OydtPW3FSa5mN+LwrJZ8Mcm6uo/q64Lip/fkuL20SSQZNk1iiXTEeOTEj6ln9lu4zi8yb3/ueqfbTZwIECBAgQIAAAQIECBAgQIAAAQIECBAgQIAAgbkjMLURsLnjpqcEJiQQMyb82roziwhoT7Ts2XtkuYAVA9az9IRF7cv2CqTHLA+RKLFz155i/0svtc6J2RtOWLqkFaxenpIQFi/sP/3/W1Mge/sTO1vLXUTwP2ahiOD96andy1JyQ9NkhpgdoNzvQRMAYraGCLBHPfv3v1yccMLitkPTNy/u298+9NSTl7bfN3lTbu+zz+9rcsq0HxMJLbmcMmD/lqcxzWWqlrPI9XklQIAAAQIECBAgQIAAAQIECBAgQIAAAQIECBCYOwISGObOWOvpkAQiCL+oTzD/pPTE/rIURC8HsifanAMHXm6fGksaLFp4fPtzvzflZSNeTsH8uhLLS/x0+y9aSQfl/QcPvtZKAohEgHg6f3WazaFfieUgNv3G2cV927a3lxaI8/PT+k2TIg6khIpcos77f/yz/LHRa8y8kMuelIgwkQSGPXuOJI48k/rw8oBtiL6GYb8lFnI7p/u1nCDy9LMvFIMkIpTvq72lBJvp7oPrESBAgAABAgQIECBAgAABAgQIECBAgAABAgQIzGwBCQwze/y0fgQEVp2+vDjzjFOnrSUxO0Iuz+2Op/kn9kT/oYPjExie/OVzxU8efiJX30q4iOUBli8/POPAgTSLQgSoI8khloRosszACSl5Y+NvrCuefOrZ4slf7u4I4JeTIuKiq89aUZy99oxxSzwcfOVQu00xi0K082iWCPaXA/6DtCXaP+plMvfVwUNHxmrU+6l9BAgQIECAAAECBAgQIECAAAECBAgQIECAAAECoyUggWG0xkNrCPQViKUbchLDmSm5YEmf2R+6VbgoLWdRLTGjQy5rUzLBfzh7Vf7Yel2cZnuIWSTemvbFsY889lTH/m4fItFh3ZozWn8xG8LutIzCs62ZGMbSrAQH26ftSIkRO595ofiPG3+tI4lh/oIjP1UxA8OadP2JlkiomGwJg0GXkZjsNafz/NPedFJxYpoxZCJlXhofhQABAgQIECBAgAABAgQIECBAgAABAgQIECBAgMBEBI5EBSdytnMIEJh2gXnzU4D4pcOXPT0FmleuOGlK2vDUM8+n2REOz+6wOCU3VJMXqheJhIQ4ftDZECKBIP4iCSJKLCfxRJpRIdcTde74+c7iV9JMDLmUl+iIGQxWv2VlR4JDPm6Yr0tSEkYui9L7cvvy9pn8WjY+5eSlLeOZ3B9tJ0CAAAECBAgQIECAAAECBAgQIECAAAECBAgQmHkCx868JmsxgbktEE//57I7Bf+nquzbc6Bd1elvOrH9vtebic7+UK4z+nPe299arFt7entzLFFRLjHrQsw8kcuLaRaH6S7Llw/Hfbr70e16J5xwZMaFp595sdththMgQIAAAQIECBAgQIAAAQIECBAgQIAAAQIECBAYmoAEhqHRqpjAcAROK8248HiaueBQmpFgqsvRWAYgZnSYP//wT1LMslAtq9JyGbk0XboiHz8VrzFrRG5fzBIRM0fMprLqjFPb3Ym+5WVK2hu9IUCAAAECBAgQIECAAAECBAgQIECAAAECBAgQIDBkAQkMQwZWPYGpFogZC/IsDBHof/ixXza+RF1iQD75uFia4o3y7PP78ttJv+7Ze2Rmh8lU9uZKgP3pXS80rq5Xv5tWErNArFm1sn34th//bKDkkaloQ/viQ3gT/cv3VVS/7aGfDXSVUe/fQJ1xMAECBAgQIECAAAECBAgQIECAAAECBAgQIECAwFERkMBwVNhdlMDkBMrLLexIyy389LGn+lYYT9Rvue/h4scPP1F77IlphoFcmjyBHwHrJ556Lp9S+xrt+p9bf9KofZGQcPDga616ym3JFS9etKBY/ZYV+WMRCQRNZkF4bvfe4p9SG5oc2668y5u3vmVlsXjR8a29MQvDPfc90nemgnD68cNPttowjNkyujS1dvOBAy/Xbs8bN6SlPPIsE+F1fzLuV6J/Dzz08+K++x/rd6j9BAgQIECAAAECBAgQIECAAAECBAgQIECAAAECBHoKSGDoyWMngdEUiCfly0kMD2//ZStAXjcrQQTwI5Hgn7b+uIjZECLhYc+e/eM6Vp7ZIXZuTckO3ZYRyEkBEcTvViKwHe2KEq93/fODxZNpyYtqnXFctG/bT3a0q1p91pFEhfbG9Obt61YVsZRDlDhvS0ogiCB7tT+xL9oY+7f8S0oySO2cigB7zFLwzg1r2kH+PXv3t5zq+rU/JQv8LFlH8sSOx3e22rDj5ztbbZ/O/1m0cEH7co9sf6pllX12VmaxiCSRt687q3189CuPW5xTLtG/GLe7/vmB4vGnnm0liMTxCgECBAgQIECAAAECBAgQIECAAAECBAgQIECAAIGJCsyb6InOI0Dg6AqsW3NGqwGPpCBylBdTcsJ92w4/Bb944cLWtoOvvtKe1aC1If1PJD6ccMKR2Rby9niNJ/C3tgL+L7cC7nf904OtZQVOWLaoWJCC92NpFofdu8dSEsJLrZkIzjzjlFZSQrmO/D6C/b9x3pri3x7+RarrcH35if5o36JF84sDBw626srnxGu0L+rtVja9c11rFokcLI/X+IuZA+YfdzhYH+0rl/nz56fEg9XlTRN+HwkUm37j7GS9vbZfUXGdeySIxAwO011WvTmN0RszZUQix/+899/aTYg2rVxxUvtzvAn745LlAykxJGbEiHNa4/bjouh1X61NSSfVujoq9oEAAQIECBAgQIAAAQIECBAgQIAAAQIECBAgQIBAHwEJDH2A7CYwygKRxHDm6acWP3nkiaI8+0I1gB99yLM2xGu3Ek/gb/yNdcUjacaEnCAQSwmUl1+IZIBIMlh91sriZ31mFDj9TScXJy5d0qpv5zN7UkD8YOvS0b5qG6Pes9esLN6a6u1VIjHivJRocWrqR8woEMkRUSLYfvDg+MSF1Wed2mprnDdVJZIYslO1X9VrhPeqlBTQKymjes5Ufs7jnhNdynVXZ1XI+1rjdv7hccv3Qeyrjllsy/X3uq/iOIUAAQIECBAgQIAAAQIECBAgQIAAAQIECBAgQIBAP4FjXk+l30H2EziaAtufeLF1+Xnzji3OOr178H0627j/pcNB87jm/Hnz0t/UBccjqHzw0KFWdwapO56U352SDQ6kgH7MlBBlSVo+YNGi41tPxg/axqhv1zMvFGOpvmhTnH9iCtzHU/a5rkHbGokQu9PSDq+0+nh4SYKTUp3L0gwPEw2AxzIOu5/f125n9DvXGYkGua2xfRglDJ59fk+xb8+Btnu2Wr58aZq14PhGly3fU8M4J+wjySWP5WlpHJuYx33w4r6xSfVv0PukEZiDCBAgQIAAAQIECBAgMIsF8n8LWXj8ccUZK5bO4p7qGgECBAgQIECAAAECBDoFJDB0evg0ggL5/7SPUgLDCDJpEgECBAgQIECAAAECBAgQIDBLBPJ/C5HAMEsGVDcIECBAgAABAgQIEGgscGzjIx1IgAABAgQIECBAgAABAgQIECBAgAABAgQIECBAgAABAgQIEBiSgASGIcGqlgABAgQIECBAgAABAgQIECBAgAABAgQIECBAgAABAgQIEGguIIGhuZUjCRAgQIAAAQIECBAgQIAAAQIECBAgQIAAAQIECBAgQIAAgSEJSGAYEqxqCRAgQIAAAQIECBAgQIAAAQIECBAgQIAAAQIECBAgQIAAgeYCEhiaWzmSAAECBAgQIECAAAECBAgQIECAAAECBAgQIECAAAECBAgQGJKABIYhwaqWAAECBAgQIECAAAECBAgQIECAAAECBAgQIECAAAECBAgQaC4ggaG5lSMJECBAgAABAgQIECBAgAABAgQIECBAgAABAgQIECBAgACBIQlIYBgSrGoJECBAgAABAgQIECBAgAABAgQIECBAgAABAgQIECBAgACB5gISGJpbOZIAAQIECBAgQIAAAQIECBAgQIAAAQIECBAgQIAAAQIECBAYkoAEhiHBqpYAAQIECBAgQIAAAQIECBAgQIAAAQIECBAgQIAAAQIECBBoLiCBobmVIwkQIECAAAECBAgQIECAAAECBAgQIECAAAECBAgQIECAAIEhCUhgGBKsagkQIECAAAECBAgQIECAAAECBAgQIECAAAECBAgQIECAAIHmAhIYmls5kgABAgQIECBAgAABAgQIECBAgAABAgQIECBAgAABAgQIEBiSgASGIcGqlgABAgQIECBAgAABAgQIECBAgAABAgQIECBAgAABAgQIEGguIIGhuZUjCRAgQIAAAQIECBAgQIAAAQIECBAgQIAAAQIECBAgQIAAgSEJSGAYEqxqCRAgQIAAAQIECBAgQIAAAQIECBAgQIAAAQIECBAgQIAAgeYCEhiaWzmSAAECBAgQIECAAAECBAgQIECAAAECBAgQIECAAAECBAgQGJKABIYhwaqWAAECBAgQIECAAAECBAgQIECAAAECBAgQIECAAAECBAgQaC4ggaG5lSMJECBAgAABAgQIECBAgAABAgQIECBAgAABAgQIECBAgACBIQlIYBgSrGoJECBAgAABAgQIECBAgAABAgQIECBAgAABAgQIECBAgACB5gISGJpbOZIAAQIECBAgQIAAAQIECBAgQIAAAQIECBAgQIAAAQIECBAYkoAEhiHBqpYAAQIECBAgQIAAAQIECBAgQIAAAQIECBAgQIAAAQIECBBoLiCBobmVIwkQIECAAAECBAgQIECAAAECBAgQIECAAAECBAgQIECAAIEhCUhgGBKsagkQIECAAAECBAgQIECAAAECBAgQIECAAAECBAgQIECAAIHmAhIYmls5kgABAgQIECBAgAABAgQIECBAgAABAgQIECBAgAABAgQIEBiSgASGIcGqlgABAgQIECBAgAABAgQIECBAgAABAgQIECBAgAABAgQIEGguIIGhuZUjCRAgQIAAAQIECBAgQIAAAQIECBAgQIAAAQIECBAgQIAAgSEJSGAYEqxqp07g2GOOmbrK1ESAAAECBAgQIECAAAECBAgQGGGBQ4deG+HWaRoBAgQIECBAgAABAgSGKyCBYbi+ap8CgWOPO1xJ/B/41157fQpqVAUBAgQIECBAgAABAgQIECBAYDQFDr16JIFhwYI3/qPIaDZVqwgQIECAAAECBAgQIDDlAhIYppxUhVMtsGTh/HaVe8cOtt97Q4AAAQIECBAgQIAAAQIECBCYbQJ7xl5pd+n4+fPa770hQIAAAQIECBAgQIDAXBCQwDAXRnmG93Hx4lICw/4j/yd+hndL8wkQIECAAAECBAgQIECAAAECHQIx++S+0sMbi443A0MHkA8ECBAgQIAAAQIECMx6AQkMs36IZ34HFx0/r1iY/qK88sqrxYt7JTHM/FHVAwIECBAgQIAAAQIECBAgQKAqsHvPS+1NS5csKObN85/u2iDeECBAgAABAgQIECAwJwT8v6A5Mcwzv5Mnn3h8uxPPvXCg2Dt2qP3ZGwIECBAgQIAAAQIECBAgQIDATBfYvefl9uwLxx5zTLH8hCP/LWSm9037CRAgQIAAAQIECBAg0FRAAkNTKccdVYGYheGEZQvabXhm91jx/Isvtz97Q4AAAQIECBAgQIAAAQIECBCYiQKvvfZ68fSz+4sXXjwy+8IpJy8y+8JMHExtJkCAAAECBAgQIEBg0gLHvJ7KpGtRAYFpEti1e3/7aYS4ZEyluHjRvGLpwvnFggXHFccee8w0tcRlCBAgQIAAAQIECBAgQIAAAQITEzh06LUi/va9dLD13zkiiSGXk9PMCyefuDB/9EqAAAECBAgQIECAAIE5JSCBYU4N9+zobKwH+YLZF2bHYOoFAQIECBAgQIAAAQIECBAg0BKIZSNi5oVlS+YTIUCAAAECBAgQIECAwJwVkMAwZ4d+Znc8nlKI2RheevnVmd0RrSdAgAABAgQIECBAgAABAgTmvMDSJQuK5WnmhZhpUiFAgAABAgQIECBAgMBcFpDAMJdHfxb0PRIZxg4cKg68fLAoT7c4C7qmCwQIECBAgAABAgQIECBAgMAsFjjuuGOLhQvmtWZcsCTmLB5oXSNAgAABAgQIECBAYCABCQwDcTmYAAECBAgQIECAAAECBAgQIECAAAECBAgQIECAAAECBAgQGIaAeemGoapOAgQIECBAgAABAgQIECBAgAABAgQIECBAgAABAgQIECBAYCABCQwDcTmYAAECBAgQIECAAAECBAgQIECAAAECBAgQIECAAAECBAgQGIaABIZhqKqTAAECBAgQIECAAAECBAgQIECAAAECBAgQIECAAAECBAgQGEhAAsNAXA4mQIAAAQIECBAgQIAAAQIECBAgQIAAAQIECBAgQIAAAQIEhiEggWEYquokQIAAAQIECBAgQIAAAQIECBAgQIAAAQIECBAgQIAAAQIEBhKQwDAQl4MJECBAgAABAgQIECBAgAABAgQIECBAgAABAgQIECBAgACBYQhIYBiGqjoJECBAgAABAgQIECBAgAABAgQIECBAgAABAgQIECBAgACBgQQkMAzE5WACBAgQIECAAAECBAgQIECAAAECBAgQIECAAAECBAgQIEBgGAISGIahqk4CBAgQIECAAAECBAgQIECAAAECBAgQIECAAAECBAgQIEBgIAEJDANxOZgAAQIECBAgQIAAAQIECBAgQIAAAQIECBAgQIAAAQIECBAYhoAEhmGoqpMAAQIECBAgQIAAAQIECBAgQIAAAQIECBAgQIAAAQIECBAYSEACw0BcDiZAgAABAgQIECBAgAABAgQIECBAgAABAgQIECBAgAABAgSGISCBYRiq6iRAgAABAgQIECBAgAABAgQIECBAgAABAgQIECBAgAABAgQGEpDAMBCXgwkQIECAAAECBAgQIECAAAECBAgQIECAAAECBAgQIECAAIFhCEhgGIaqOgkQIECAAAECBAgQIECAAAECBAgQIECAAAECBAgQIECAAIGBBCQwDMTlYAIECBAgQIAAAQIECBAgQIAAAQIECBAgQIAAAQIECBAgQGAYAhIYhqGqTgIECBAgQIAAAQIECBAgQIAAAQIECBAgQIAAAQIECBAgQGAgAQkMA3E5mAABAgQIECBAgAABAgQIECBAgAABAgQIECBAgAABAgQIEBiGgASGYaiqkwABAgQIECBAgAABAgQIECBAgAABAgQIECBAgAABAgQIEBhIQALDQFwOJkCAAAECBAgQIECAAAECBAgQIECAAAECBAgQIECAAAECBIYhIIFhGKrqJECAAAECBAgQIECAAAECBAgQIECAAAECBAgQIECAAAECBAYSkMAwEJeDCRAgQIAAAQIECBAgQIAAAQIECBAgQIAAAQIECBAgQIAAgWEISGAYhqo6CRAgQIAAAQIECBAgQIAAAQIECBAgQIAAAQIECBAgQIAAgYEEJDAMxOVgAgQIECBAgAABAgQIECBAgAABAgQIECBAgAABAgQIECBAYBgCEhiGoapOAgQIECBAgAABAgQIECBAgAABAgQIECBAgAABAgQIECBAYCABCQwDcTmYAAECBAgQIECAAAECBAgQIECAAAECBAgQIECAAAECBAgQGIaABIZhqKqTAAECBAgQIECAAAECBAgQIECAAAECBAgQIECAAAECBAgQGEhAAsNAXA4mQIAAAQIECBAgQIAAAQIECBAgQIAAAQIECBAgQIAAAQIEhiEggWEYquokQIAAAQIECBAgQIAAAQIECBAgQIAAAQIECBAgQIAAAQIEBhKQwDAQl4MJECBAgAABAgQIECBAgAABAgQIECBAgAABAgQIECBAgACBYQhIYBiGqjoJECBAgAABAgQIECBAgAABAgQIECBAgAABAgQIECBAgACBgQQkMAzE5WACBAgQIECAAAECBAgQIECAAAECBAgQIECAAAECBAgQIEBgGAISGIahqk4CBAgQIECAAAECBAgQIECAAAECBAgQIECAAAECBAgQIEBgIAEJDANxOZgAAQIECBAgQIAAAQIECBAgQIAAAQIECBAgQIAAAQIECBAYhoAEhmGoqpMAAQIECBAgQIAAAQIECBAgQIAAAQIECBAgQIAAAQIECBAYSEACw0BcDiZAgAABAgQIECBAgAABAgQIECBAgAABAgQIECBAgAABAgSGISCBYRiq6iRAgAABAgQIECBAgAABAgQIECBAgAABAgQIECBAgAABAgQGEpDAMBCXgwkQIECAAAECBAgQIECAAAECBAgQIECAAAECBAgQIECAAIFhCEhgGIaqOgkQIECAAAECBAgQIECAAAECBAgQIECAAAECBAgQIECAAIGBBCQwDMTlYAIECBAgQIAAAQIECBAgQIAAAQIECBAgQIAAAQIECBAgQGAYAhIYhqGqTgIECBAgQIAAAQIECBAgQIAAAQIECBAgQIAAAQIECBAgQGAgAQkMA3E5mAABAgQIECBAgAABAgQIECBAgAABAgQIECBAgAABAgQIEBiGgASGYaiqkwABAgQIECBAgAABAgQIECBAgAABAgQIECBAgAABAgQIEBhIQALDQFwOJkCAAAECBAgQIECAAAECBAgQIECAAAECBAgQIECAAAECBIYhIIFhGKrqJECAAAECBAgQIECAAAECBAgQIECAAAECBAgQIECAAAECBAYSkMAwEJeDCRAgQIAAAQIECBAgQIAAAQIECBAgQIAAAQIECBAgQIAAgWEISGAYhqo6CRAgQIAAAQIECBAgQIAAAQIECBAgQIAAAQIECBAgQIAAgYEEJDAMxOVgAgQIECBAgAABAgQIECBAgAABAgQIECBAgAABAgQIECBAYBgCEhiGoapOAgQIECBAgAABAgQIECBAgAABAgQIECBAgAABAgQIECBAYCABCQwDcTmYAAECBAgQIECAAAECBAgQIECAAAECBAgQIECAAAECBAgQGIaABIZhqKqTAAECBAgQIECAAAECBAgQIECAAAECBAgQIECAAAECBAgQGEhAAsNAXA4mQIAAAQIECBAgQIAAAQIECBAgQIAAAQIECBAgQIAAAQIEhiEggWEYquokQIAAAQIECBAgQIAAAQIECBAgQIAAAQIECBAgQIAAAQIEBhKQwDAQl4MJECBAgAABAgQIECBAgAABAgQIECBAgAABAgQIECBAgACBYQhIYBiGqjoJECBAgAABAgQIECBAgAABAgQIECBAgAABAgQIECBAgACBgQQkMAzE5WACBAgQIECAAAECBAgQIECAAAECBAgQIECAAAECBAgQIEBgGALzhlGpOgmMgsDY2P5i39iBYuWKU0ahOdpAYM4KxHfxH267s9i167ni3HPWFRdftHnOWgyr44/teKL4bjJetmRR8d5L3+V3b1jQ6iVAgAABAgQIECBAgAABAgQIECBAgAABAgSGKnDM66kM9QoqJzBNAg889NNi69Z/LbY99Ejx9K7dKXlhf/vKS5csLtauPrPYeP55xQUbzxPca8t4Q2D4An/8if9WPLrjyfaFrvyj9xfvu/Si9mdvJiewMyWGfOwTf9H+zVuWfu++cM0nizWrV02uYmcTIECAAAECBAgQIECAAAECBAgQIECAAAECBKZZQALDNIO73NQLxJPdf/ed77eDd02u8O4LNxVXXH6JRIYmWI4hMAmB7WlmgCtTcL1cTkuzonzz69eWN3k/CYEbbrqluPX2Oztq+O1LLiz+84d+t2ObDwQIECBAgAABAgQIECBAgAABAgQIECBAgACBURewhMSoj5D2dRWIp46v//LftGZc6HpQlx0/uGtL8UCaqeFzV1/pKeUuRjYTmAqBJWk2gGqp21Y9ZrKff5i+49sefLhdzUxbuuLGb9xS7Nt3ZBaZXglXK2qWyVlU497G8IYAAQIECBAgQIAAAQIECBAgQIAAAQIECBAgMKICx45ouzSLQE+BWO89pkyP5SImWp5OCRDxZPgdd94z0SqcR4BAH4GVKbj+7os2dxx1WZodYNglkhciUSn/RcLSTCr33Lut3fbow860LE638u6LNhUxq0Uu8b5qnvd5JUCAAAECBAgQIECAAAECBAgQIECAAAECBAiMsoAZGEZ5dLStViBmXvj0Z75Yu2TE0vTU8WWXXlSce87ZaXmI5a0lIiLZYceOJ4u7t24r7rn3R+PqvPEbf1+sXbPKTAzjZGwgMDUCV/3JB4uN528otm9/otiw/lfT9/NXpqZitbQE4nfvC9dcVTyYkjT2pFkb3pMSGqZjlgv8BAgQIECAAAECBAgQIECAAAECBAgQIECAAIGpFpDAMNWi6huqwNjY/pS8cH1t8sIHLr+kuOL3fnPc9deuXlXE37su3JSeYo7kh+uLmH0hl72pzs9f+7Xiq1/6M0G/jOKVwBQLXHD+eUX8KcMRiJkuVqbfOIUAAQIECBAgQIAAAQIECBAgQIAAAQIECBAgMJMFLCExk0dvDrb9W9/+fkfyQRDE08eRfFCXvFAliiBfPKlcnm59wznriqs+/oeSF6pYPhMgQIAAAQIECBAgQIAAAQIECBAgQIAAAQIECBAgQGAaBczAMI3YLjU5gZg94dbb7xxXyUf/6HdaMyyM29FlQ05iuOGmv39juYlm09nH7A//eOeWtBzFE62ZHOJzTNMe9Z2bkiDOXR/LVhxZh77L5Yu8pEXev2LFqe0p9fM1Hnzop8WuXc+069+88bxiU83T63H8P9x2Z7F9xy+KsbGxVpXRhosvuqBdZ75O+XXQNixZsqTYfP65jftYvtYDqS+Pbn98nFvUuT4tJXBB6ls/txj7mB6/XGJGjVziGlu3/mvx1K7n2w65zRdftDkf1n7tV1/7wC5v7r73/uLA2IH23vIYtjf2edNvDLbcu63Y9uDDqT/7i89e/bGetZX7n++b3P+m92X1ArnOR9PyK/lef9vqM4uNG3+9fW9VHZcsWVR7n1a9Vqd6YlaUbiV/D6rftX59Kl8n2lYu8fmHd21pb6q2oXxuHLQ+fafzfVluz4r0/YrZXupKHBfjtj3d72W3OLZqVz1/Xzp3azo3l31pKYhyift7165n25s2pSU5ystElPsWB1X3t0+svIlx3vbgv3f8hsQh0d716Tet7nenUkXrY1O/8rjENd576bvaznX1TnRbHov4DsU143P26jcW5Ws26Vf8Xq9Z/eau90XU1609cY/Fvx/xG5/bV75+r/e5zrjf4rcvf/fjnEHHr9d17CNAgAABAgQIECBAgAABAgQIECBAgAABAtMpcMzrqUznBV2LwEQFIlB/4zdu6Tj93SmIfdXH/6Bj21R/iCDRDTfdUvygFPzsdo2YBaJbcDOf861v317c/J3v549F7kP07+/S9ghk1pXLLrmo+OiH3t/aFW2K2SjqEjryub3aMtE2xMwVkTjQr4/RhgiM3vzt24ptlcSD3L7yaxhE37oF8KKuT33muvIpxT9+78ZWYPL6L/9Nz2tEm2PWjRyMjkrC+Lf/t/+jo76/vOZP24H5jh2VDxEM/f0PX92x9XP/15WtAGTHxj4fuo3BlpQcEfdbXuYk2v/Nr19bW1v12NqD0sZ+vuXzIrHixnT9XuMW9V2Rgvg7d+3uGJdubY1lW8r1dbs3m9zXua25DeVxrV4nH1v3Wm1D9dw//ZMPpkSgza0EofL3Mq5b/c2Jdsf397u339X1+5vbEEYx48u5KXmnXOruq/L+6vu//fo16Z4+tb35Pe/9SPt9vKnu79iZPjQZ5zgn2htWdYlA5Tq7+cV93s+lOhblegd9H443p2vek5JBuv2W5jqjb5+7+sqUfNA9maZbv6q/13X3Rb5OE4NoS9Pf1kHvt/htbZqIktvslQABAgQIECBAgAABAgQIECBAgAABAgQIHC0BMzAcLXnXHVjgzrvuGXdOBFGHWSLI9+fXfq0dTO53rUhMiCehqwHzfudFEL5fgkQkK8QT7u9OQdU/v/arrSe8e9UbbXnbmlWNA1cRNO+VEBHXiqB61DuWZh/IyRTVNkRwrWnCRz43+r49WYdbtySGfGx+vePOe4obvvH3fYOU0eYIQsYyI7nuWHYklg4pB9Uj2SKu369EcLRcIvAYT09PRakmNfSqs8l45fPD94GUSNLvvoz7/dOf+WJf01xfk0SW3IZ+r3HfxDjFzAVNSrQhZjv4SJqBpV9wvUl9dcc0+V5GEsl1X/5mX7Ncf9yPkYyTEyTy9ul8rUsG63b9aO91X/lm6/7plWRUPT+PZ/k7Vj0mf47flGXpO/m+Sy/Kmyb02vQ3IVcefbvyE39RNE1eyuc1uS/i2DD4fPr3o4lBtCUcYjadP/3477d/q/I182skc13/5b9u/G9S1PtfUxuu/KP3T9o3t8ErAQIECBAgQIAAAQIECBAgQIAAAQIECBAYpsCxw6xc3QSmSiCepK0GNmMK+vLT11N1rVxPPMkbwdwIAFVLBMAjcF1X4vgIxEbwqkmJJ4UjGJtLr7q/l57wjuBZ2SLaEefUlVvTU+FNSrShnLyQ29C13pRM8d0udccyG+X+5OtHOyNpIP7q6o0+RWC1aYmgavkJ66i/15jckdpVLldcfmn5YyvI2GTMIhGgXCYbdM11xRhEALNJiUSH8njFOWEatvEk+Obz39GaQr5cV7/7Mu73SNYpm5bPr95nUd/XUtLLVJWYUaR8X0e90Z/fvuTC1gwA8Rqfy2Vv+o7t239kKY/yvsm+j7Gou4+r9dYlL8RYxBT+0d5u9+SNKfmmyf1Wvd5kP/dKXuj1HQqL6778t40vf/N3/kdH4D5MullEpU3v/W4NiPu2LqGpyVhEQljTsWh6X0Q7q7M3xLZoT3xH8/e0anLPvT9qJYDFsXXl86mt1X+Tyn2M+66uRLub9rHufNsIECBAgAABAgQIECBAgAABAgQIECBAgMB0CZiBYbqkXWdSAvFUarWcV5mCvbp/sp8j+FQN5kZAMgLf5enf656IjQBTBPs+d/VH+zYjX6Na9+GAcudMCxGwzU/zxtPvl6Wgbp5VoK4d+dh+jai2YW1azz3XG0/l3/zt/5GmZP9RRzURELv4ok3t4/LOd6dt30sJDmEQgbXL0lPV5Xbm42KmigiA52vH9kjQ+K10fL52Prbba9T/v6fp7d9Take4ReJGNcC/LT25XE42iDGM88vXj+Bur1kFos3V4OHm86dm9oVyOyIB4YKNG4oVaYmAJUsWdnQ/2lAN9oZZTMNfdaveE9H2SBSomz0jZpao9i2Cq1FvzDCR6w7fODYC2uU2dzRyAh/uSPWVy39NU/vXTXtfvn60L5ZWySX6tW/spdbH7952R3F3SgrJJX+/8ueVK5bnt7Wv2SLukfdcuLF4+/qz0ywBS8aNxxWX/2Y74JyvUf59iMqjzZF4VP4+xne5fL/F7CoxE0Au13/lb4qndz6bP6aZJt6fZlQ5q/25vHxEe2OfN9GOWA6jWuL+eV9yzAlhEeiO2S0iUSY7xDnxGxCJS+XvUbWu/Dn6FyUC9RdfdEHHb2bcw9W64/idu57tWBYj19XkNcbpfen3MH83uo1F/J59MY1FOVkmrh0JTk36lT363RcxQ0r5GtGHuD/L92vuV/W3ML5b56Z/a+pmFml6v91w0993/GZX77d8ba8ECBAgQIAAAQIECBAgQIAAAQIECBAgQGDUBCQwjNqIaE+twL59Y+O2R3B3WKUuUB2B7QjmVksEK/8qLU8QT6+XA5QR7IsAcjWYWT0/PtfVHcHEz179seL3P3x1xykROPvCNZ8sYgaKconrvDcFIW/8RudT8U2DgnVtiPrjOpGIUV2yoFtALNp31cf/sLjxpu+02p+DouW2xvtY7z3GMKbTzyXqfCwlqzQxiyeN65aciOtFoDCWpCiPx/Ydj+fLtF/LAc/YGOPeK4HhB2nZinKJ4Gy3/pWPa/o++hRj3qvOCPyWS7dxi2PCMYw+lqbJz8kGkdgRSSXla0RguzrbQCQH1C05Eedd9fE/SIk8l7SeMM8B3XKbBn0fY5XbF+fGteuSF2Jfvv6GlFCwpvK0+ZrSd+KOO++Ow9slzmtyX7VPSG9iuZaPpiUqcvJGeV9+HwHpLVvvbx0b93RdiWuH5R9/4r91BLXLiVnxvenVvkhe6LW/7rrVbZF4UnaO/Z9KY1ltd/Q3tq1PQfRI5CqPcbfEpeq1utUd2+u++7H9se1PpvGd+O963Ndb05IecW92u3/i9+y/t8biLzr6VU1wivZ0K90ShvLx8X2qJlB1S16Ic+o8DjtvzlW2X/P9tiklFdUlQ8SBcb/Fb3Z1BohISun1+9a+iDcECBAgQIAAAQIECBAgQIAAAQIECBAgQOAoClhC4ijiu3Rzgf0108THE8vDKrfe9sOOqvOT6B0bSx8i+PjZ9MR4vJZLNYha3pffx9P2dYkRsT8CUaet7AzofSAlUVSTF3JdF6Sg1kRKrzbk+uLJ33Aolwj415UcOI97WAxBAABAAElEQVT29ypxXLV/O3c+0+uU9r4I9PcKLEfwuV+JgGe5RKA2kk7qSgQlywkRcUw8WT5VpVvCQLn+amJNv/syzo0xiFkqyqWaiHF3CsBXSySh9Bq/2BezAgyjjI0daM1a0KvuCPqWExZ6HTuRfZGcctWffLDnPZbrjeSEaE+/ctml7+o4pC6ppuOAKfxQl6QSfezV7hjjuA/KJc9WUN5W9z5+03rVHd/96u/lZJc4iPr+6kv/pWvyQm5nHBfJXuUSiV5NSpjFfd/rtycSRcolfl+7JRvk48Ij6s6l12/R59K/Nf3qi3qqv4GT9c1t80qAAAECBAgQIECAAAECBAgQIECAAAECBIYpIIFhmLrqnpECEeirTv3dLcGg3MEIisUT/eUST7z2K0srSwRUj1/5ps6p7nslbvQKOFfrLX/u14Y4ti7oF0G2bkGxHOALz0gKiL940r5aqv2r7u/2uV9fm8zQEX2KqebLpVvSSTXoH8kDEXScqhJTxmezbnVue/Dhjl1xTpMSy3qUS/W+fOihznojQaZJ35YuXVKudsLvVyTLGItcIkgeT4/Hsgt190w+bpivTW3LbYjvQrQ33+/V70aTe7Jc31S+f2z7+O9ezFTQr8R9UP2OxGwF/Uo12anu+KVLj4x53f7JbOs3FidUrl0dq27XbnJfPPDQIx2nX5yWIGlSqglRW7f+a+1p+XeiXx+P5v1W23AbCRAgQIAAAQIECBAgQIAAAQIECBAgQIBAAwFLSDRAcsjRF1i8ePxsCztqguFT0dK6QN/mhjMbbFj/q+012KMtEYhtuoTDVLR92HXEDA/jl6h4Lj0JPz4Q+Q+33Vl8Ly1XUJ5+Prcvnkj+wOX/aahP0Odr9Xu94vJLi22lZSwiuB+BwRwkzOdXZ5toktSSz52q17pgfrVd3a4VCQJ5+YDHKt+dSDIpl/OmMDGjXG+399G2i9PT5+Vp9+O+eTrN8BFLW8T+tWm5iFjSIL5jTZIrul1rGNvD88abbknLnzzZNs7XybNkXNxgRpB8zjBeq0H1SFLplwSU27Hx/PM6Zh+ZzpkjchuavkbyyM3fvq2jvfncWKLlfWnmhWGORXzHqr95cX/UzSKU25Vf49+Lcrm/S6JIfF8juafb/RazM1xcSVoq1+s9AQIECBAgQIAAAQIECBAgQIAAAQIECBAYZQEJDKM8OtrWFli7ZlX7fX5TnSUhb5/sazX4FAHIajC72zVWruicLSGO27nr+RQo7FwGotv5o769LuD59M5IYDgyPhH8//y1X6sNIOb+3XPvj4r4OxpJALkN+TWC4eXgfp4i/32l5SUiKFq9L85df3auYtpeq/d8BPfjbyKlnFizb/9LHVUcjSe3Y4mSB9NMENU+RsMiKBzLd8Tfzd/5fmspk7h3hhmI7gDp8eGOO+8prvvKN7seEfdN7I92f6DBjAddK5rkjuoMA4P8JlVnK6h+FybZtCk7PZKmqglW5crj3spj0Wt5i/I5g77fvuMX406JsZ9IqY5Z1BH32w3f+PtxiTK5/hibr33jllYy0NG833J7vBIgQIAAAQIECBAgQIAAAQIECBAgQIAAgUEFJDAMKub4oyIQgfPTVp5aPL3zyDrlEcyse1J+sg2sCxpNts65dP4N6Un0GJtyyU/QxzjuG3up2LXrmVagOgJ7se9ol1j6oxxkvOfe+4tyAkN1WYlYq74umeNo92MmXz/ug7/60n9pjUMEaXsFyXNSwHfTDB9fuOaqxglGU+0TT8LXJS/Ek/45qSeOiSflW4Hl9N0YldJk2Zjc1qOR0JKv3fQ1kozqkhe6jUX5+970GtN93NjYgY5LdrvfDi9nc3g5mfh9fSAlAo3a/dbRER8IECBAgAABAgQIECBAgAABAgQIECBAgEAPAQkMPXDsGi2BTf/Lho4p5qN18cTtVD9lenpKlCiXahCpvK/6vi75YZBAYbW+UfuclyAot2vp0iXtjxFgq84IEAHEuiBzHPvpz1zfM1DdrnjIby5Lsy2UA5qRgBEB0Zidoa5P1bXqh9y8dvXVJJ4NaUmFiSZS9Eoc2bXrSKJQ++LT9CZmVoi/8N+69V9biS7VhJjclNYT9V/+2+JzV380b5rW1xtv+n87rhemf/rxDxab0pIL1RL317e+fXt181H7HPd103I074embYxlI8olxuJzV39s3HIj8Rt96+13DW0s6mbhiSVzpuLfgZtr7p9PffwPirrZJGI5lkgmUwgQIECAAAECBAgQIECAAAECBAgQIECAwEwTkMAw00ZsDrd388Z3jEtgiKDgBRvPaz/t3JQnglh33Lml2JTOrQaAq08bx5ICOZjdr/7t6UnraqnWX90/kz7XTY9eDszdvfX+ju7Ek8F1yQtxULj81Zf+rPjjT/zFUU9iiGBnJAOUA+URPI8Ehgcrs0msTctlxPajUVa+aXnHLCSRHPKfP/S7k27K2re+uaPeumUcJn2RASsI47JzfAdjJoxqgkwsRRLf56bLvAzYjJ6H333vto79sQxGXfJCHBRJGUuWLDpqQeXVrWVejiw3Uvdb1dGZ0odtDz5c+lQU8R0YpZKXGCm36aN/9Dsd90/eF/dJjMXrr7/ekbSU90/2te73/uILNxab0781ky33VO63SN6rS16I61x2yUXFstTXv/zy30z2ss4nQIAAAQIECBAgQIAAAQIECBAgQIAAAQLTKnDstF7NxQhMQiCCmRFkrpbPX/u11lPy1e29Pl+XntqOdcJjBoB4Krr8NPKa1W8et6zBtgf/vVd17X0/SFPfl0u092gEVsttmMr31aUUIkCWp8qP6+zY8UTH5dasPqtn/yNxoC7g11HJNH244vJLO670g7u2tgLj1afmL0vLTRytsr5y/0cbp6Kcc87ZHdXkGSg6Nh7lD/H9vyo9bf63X7923PfznkrizHQ0tfybka9X9/uU98Xr2vR9OFrlbWs6r50Ts/q1J/r5wLgknjP7nTat+3fVzCbRL2GgOtPOVDa4eh/cMQXf00jSqM6As/n8DT2bXU3G63mwnQQIECBAgAABAgQIECBAgAABAgQIECBAYEQEJDCMyEBoRjOBCGBG0LtcYq3vSESIJ7T7lXhS+/r0RGo8tR0lzo1ZHGJb7IsS9V984abW+/w/30tTjm+vBOfzvvway1mUn+CP7dV68rGj9rolPdlbF5Att/Ox1P/q0+/rK4Hv8vHxvjw7Q3XfqH2OAHnMGJFLBHgj0SXukVxif7/AaD52GK8b1v9qR7XRxu+m+65Jyfd33bHnrR+fGHT9l/+65z0R90scM1Ul6rujkgBUV3ckvPQL3NadNx3bYoaFYZV9+8YmVXXc3zFjR7nE+PW6L+LYW9P9Vf4OxLZYcmWUyqgliW2sLCES/940+fdpUNNh3m+DtsXxBAgQIECAAAECBAgQIECAAAECBAgQIEBgqgQkMEyVpHqmRSCCl1d+6P3jrhUBtk995rpWIkJdoCiCo/Ek/e9/+DPjgvBRWSQalINg1QBdBIp7zfQQgdcb04wO5RLB7osv2lzeNLLvo3+RBNItgBymf55muqiWmBq9XA5PU39kSyRG9AuQ9kucOFLb8N9Vp2PPiS75yuce5Rk16mYhiZlEqrNE5Pbm10g+ifHtluwQs2hUnxqP71TdPRHjGdf72BQv/XFzqvO6r3yz9R3ud09UZwRYufJNuatdX/vV2fXELjvit6iaTPWDtCxNr/Lo9sd77e65L8ZwsuWyS9/VUUUe4242N9x0y7hlezaf/46OWVc6KjxKH+oC+f1m5Xhq57NDa+27L9rUkQwVF/rza7/aNwkufmc/+OGra4+Le23Q+23XruH1cWh4KiZAgAABAgQIECBAgAABAgQIECBAgACBOS8wb84LAJhxAhFkjsBbXdA2ZgjIswTkp+n3jR0YN/V2udOxjng10SCCkx9NiRIRwMslrvn7KbgUAbz16WnmE5YuLrangOSjO54cN/NCnBPrrM+kEv2LAHLMSBHGMcX6nn37i6333l/bvwh4V2cjiMBdOZEjz2Lw0Q/9zrilIiIge2PyjeuOSonEle+m2TaqU7Xn9l2R7pWjXWIWkkgsKLvFmEWySCxvsXbNqlYyTiQabE/3ZixrkmcG2ZmO27TxvHFjEX2KeiMpodz3fE/c8I2/T8HTw7MLlK87VRY/LH1v4/t7T+pLzLJw8UUXpGUX3tzuz2M7fjFuRoD4nkdiR7WsSNvLJQxippUN689ufW9jev33TXImgQ3punentuYSM7XUJS7FWMQMLTFOTcvSxQs7Do26o0SiVXwnr/r4B9M4ntpxTL8P8b0u3w9xfPx+xe/au9O+SEDKv2v/mJY9KN8LcWwE0OO7PGol2hW/R/k+j/bdmO7ZsKr+Rk1kLAbtb7Tnqo//YSupLp8bv4VXpu9XOEeb4t+YaF+05/4HH+n4nY1kua9+6c9a+/P58RqJdrfefmTGlW73Wxwb99vfDXC/xTkKAQIECBAgQIAAAQIECBAgQIAAAQIECBAYBQEJDKMwCtowsEAkB6xO06H/Pz0C4E0CrZGkcNkl9dOhx/YcAC43MJ7Krz6ZX94f7+uSIqrHjNLnCP7FU9hhFn/9Aq0RpI2Ad7VE4C7cykG2w9OnP5yCzGcXp684udibEkpiOY4InI5aORwI7QxK5zaGUQQdj3aJNnz26itbM2KU7/FICIkElF4lgqgx00Hd2EW9MbvJX6Ygf7VEILsazI57IO7zuuOr5/f7HO0ql7hWORmpvK/6vluiUCy3Ub2Py3XGeE42geEjH/rdFDT/adumlbCTxuC7Kcgcs1osS0kfT+16Pi0f8HD7mGr7u32O5VnK35HW2JUC0lu2bptQ++Pe+T9TAky57mjD4cSv7jNIxHfjC9d8ciS+A3VmH0n37qc/88W2c3h9/v/+WiuxIe7tyYxF3fX6bYukmmoSXJxTvge71RHf620pqaGafBEJVnekBJ/8Xcz3W9znMTtM9DF+XyMBKB/T7Rq2EyBAgAABAgQIECBAgAABAgQIECBAgACBURWwhMSojox29RW4IK0z/oVrrmo90dr34MoBEbz8y2v+tGvyQj78qj/5YCtImz/3e40g36dSYL9bULXf+UdrfwT4wjKC0v1KHBPHxjl1pS4pJIJpkcjw/6WnyCOAl4OnEQCPsRil8r5LL65tTjz9PCplbQqONx2vcpt/KwVAY3y6lXhCP5787ncfxJjF9WMWg6kokfQS35t+161eK/pSnT0lH1O33EbeF6/xtH48/T6Zcvh788lxU/vH/R33edzvcd/H/f+2lHAVfWxaIlgdvyfdyj1pFoaJlKjzvw/4u3n4O//JNBvGqolcclrOibZFAk7VLMa5OhZx/07Hb3Tc15EwMsh9He2P+7qavBCI+X6r1hcJD7mP8Rr3WxwzyP02LYPkIgQIECBAgAABAgQIECBAgAABAgQIECBAoIGAGRgaIDlkdAUioBNPk8fU/t+77YetoGQOjldbHYGhtSmIeMXll9ZOOV89Pn+OQFcEr+PJ9QdSMKz81Hs+JoJFEUiNKfxjWvBeJfaXA1BL01IUvUr0sXx8v/rLx/aqt7rvcHDsqtYU/VtScLTaz/CLoGqTPkYA7m1pKYNY5qOunvI4XJ/Woi+3ua5/S5cs7Dim2va6z9Vzon9NSgS+I9hcvo+ifd0C5U3qrDtm0PugWkf055tfv7ZoLb9QWiaielxue9zDTQwiEJzr3fbgw62ZOWJ2jlhCIgK/Gzf+evv7s3PX7urlaj/HdfuNcSRPxF+//sR9+J4LNxbvvfRdffsTweNYpiSCuuUSdcRyJ+XSpI3l4/P78Iqkj/h9qF4njol7adPGd7QC5jHzSNmh13jEvqi3ulxI1Bntj6VAyqVcb3l73fs4P343Y4mOO+68u+sT+63xToli70lWdd/Lct0T8Vv5puVF8frr7Wr6XaN9YJc3cf+sT/dot7GI/sT3IL7Ld6ffuLJZt7GYSL/KzYtEu/iL+/rW9G9U+XelfFy07dy0vEm/39e43yJ5qFsfo0/536L43jbpY7kd3hMgQIAAAQIECBAgQIAAAQIECBAgQIAAgaMtcMzrqRztRrg+gakUiKeqI2g+NvZSu9qVK5b3DXa2D+7zJqbqH1bdfS49ZbsjsaA8vX6sy15dVqDcz8n4RRAtB7qXvJGIMNlA5ZRBdKnogx++uiPxos6ny6lHdfMDaTmDXKbD+h9uu7O48Ru35Eu2EhwiuDpVpXwPRp0TvQ/jN+GxHb9oNWuYLuXrxMXWrn5z38B/q1F9/qfsEO2PIPZUl+o1IvA96t/TXgbDGote12yyr9quyd6P5e/8RL8fTdrtGAIECBAgQIAAAQIECBAgQIAAAQIECBAgMF0CZmCYLmnXmTaBCLqtXd17VoPJNGYYwcPJtGdY505VP+MJ5m5PNw+r7ZOpNwKC1VkjYoaPmVBi9ojJlgiwNg1cf+/2OzsuN9XjPFX3YPRnKmw6OlvzYVjXmSqHmib//+zdX5Bc1Z0n+INUJVWV/gBCSAgjQJIRu4ARXhNhCY/7AYxf1rhNR4zDxOBub4w7xt0vnmja/WBP9Ox0DH5w44nxRKx7ero7ov1n1r3e6PYf/DLY8DBegxyNpxF/7JGwJIwAISEJ0L+SVBLs+aV0UzezMqsyKytTmZWfE1HOm3nvPfecz8meCXS+eU71o148o/qwHhx0ayw6bfp8t6sX3+tO++x+AgQIECBAgAABAgQIECBAgAABAgQIECDQjsCidi52LQECBBa6QCypXy6xtPt8T8yX6++n41iZ45GvfbOybcRs7Wq0Pci2vFS+QoAAAQIECBAgQIAAAQIECBAgQIAAAQIECBAgQGCuAlZgmKuc+wgQWBACe/KWIPGr6Cjfy1siPJb3qi+Xe/P2GsNQYquPYluRPXtfTg9+6mPp9vfdPC28EStUhNOTP/+nGpbYcuCurQIMNSjeECBAgAABAgQIECBAgAABAgQIECBAgAABAgQItCUgwNAWl4sJEFhIAsfzdgl/8K//fdMuxaT8vffc1fT8QjrxZ1/+erU7sYXGI//pG5X3y3O4Y/my8crx8ROTKczqS1zzlYcfqv/YewIECBAgQIAAAQIECBAgQIAAAQIECBAgQIAAAQJtCdhCoi0uFxMgsJAE9ux9tWl3IrwwTJPyf/rFP0zR5/oSgYUINMRfo/DCeac/mrZSQ3093hMgQIAAAQIECBAgQIAAAQIECBAgQIAAAQIECBCYTcAKDLMJOU+AwIIVOH78RMO+bbltc3ro858Zqkn5tTm88I2/+nL6Sd5C41vfebQSWGiIc+HDWHXh/o/fk+6/7+7qFhwzXe8cAQIECBAgQIAAAQIECBAgQIAAAQIECBAgQIAAgdkELns3l9kucp4AgYUlcCL/qj62AyhKbBGwLE9ID1vZvXdfenL7M+lgXl1gRTZYvWZ1eu/G69Ptt900bBTT+vvs8y+mX+95OcV3pfAZz9+R+J4wmsblAwIECBAgQIAAAQIECBAgQIAAAQIECBAgQIAAgXkQEGCYB0RVECBAgAABAgQIECBAgAABAgQIECBAgAABAgQIECBAgAABAp0JLOrsdncTIECAAAECBAgQIECAAAECBAgQIECAAAECBAgQIECAAAECBDoXEGDo3FANBAgQIECAAAECBAgQIECAAAECBAgQIECAAAECBAgQIECAQIcCAgwdArqdAAECBAgQIECAAAECBAgQIECAAAECBAgQIECAAAECBAgQ6FxAgKFzQzUQIECAAAECBAgQIECAAAECBAgQIECAAAECBAgQIECAAAECHQoIMHQI6HYCBAgQIECAAAECBAgQIECAAAECBAgQIECAAAECBAgQIECgcwEBhs4N1UCAAAECBAgQIECAAAECBAgQIECAAAECBAgQIECAAAECBAh0KCDA0CGg2wkQIECAAAECBAgQIECAAAECBAgQIECAAAECBAgQIECAAIHOBQQYOjdUAwECBAgQIECAAAECBAgQIECAAAECBAgQIECAAAECBAgQINChgABDh4BuJ0CAAAECBAgQIECAAAECBAgQIECAAAECBAgQIECAAAECBDoXEGDo3FANBAgQIECAAAECBAgQIECAAAECBAgQIECAAAECBAgQIECAQIcCAgwdArqdAAECBAgQIECAAAECBAgQIECAAAECBAgQIECAAAECBAgQ6FxAgKFzQzUQIECAAAECBAgQIECAAAECBAgQIECAAAECBAgQIECAAAECHQoIMHQI6HYCBAgQIECAAAECBAgQIECAAAECBAgQIECAAAECBAgQIECgcwEBhs4N1UCAAAECBAgQIECAAAECBAgQIECAAAECBAgQIECAAAECBAh0KCDA0CGg2wkQIECAAAECBAgQIECAAAECBAgQIECAAAECBAgQIECAAIHOBQQYOjdUAwECBAgQIECAAAECBAgQIECAAAECBAgQIECAAAECBAgQINChgABDh4BuJ0CAAAECBAgQIECAAAECBAgQIECAAAECBAgQIECAAAECBDoXEGDo3FANBAgQIECAAAECBAgQIECAAAECBAgQIECAAAECBAgQIECAQIcCAgwdArqdAAECBAgQIECAAAECBAgQIECAAAECBAgQIECAAAECBAgQ6FxAgKFzQzUQIECAAAECBAgQIECAAAECBAgQIECAAAECBAgQIECAAAECHQoIMHQI6HYCBAgQIECAAAECBAgQIECAAAECBAgQIECAAAECBAgQIECgcwEBhs4N1UCAAAECBAgQIECAAAECBAgQIECAAAECBAgQIECAAAECBAh0KCDA0CGg2wkQIECAAAECBAgQIECAAAECBAgQIECAAAECBAgQIECAAIHOBQQYOjdUAwECBAgQIECAAAECBAgQIECAAAECBAgQIECAAAECBAgQINChgABDh4BuJ0CAAAECBAgQIECAAAECBAgQIECAAAECBAgQIECAAAECBDoXEGDo3FANBAgQIECAAAECBAgQIECAAAECBAgQIECAAAECBAgQIECAQIcCAgwdArqdAAECBAgQIECAAAECBAgQIECAAAECBAgQIECAAAECBAgQ6FxAgKFzQzUQIECAAAECBAgQIECAAAECBAgQIECAAAECBAgQIECAAAECHQoIMHQI6HYCBAgQIECAAAECBAgQIECAAAECBAgQIECAAAECBAgQIECgcwEBhs4N1UCAAAECBAgQIECAAAECBAgQIECAAAECBAgQIECAAAECBAh0KDDS4f1uJ3DJBc6efSedOn0uTZ09d8nbogEECBAgQIAAAQIECBAgQIAAgVYEli5ZnJaMLk4jI35f1IqXawgQIECAAAECBAgQGA4BAYbhGOcF18t33nk3vX3sTDoxOZXOTAkuLLgB1iECBAgQIECAAAECBAgQIDAkAmNLR9KKZUvy3+iQ9Fg3CRAgQIAAAQIECBAg0FzgsndzaX7aGQL9J3Dq1Nl08M3JFCsvKAQIECBAgAABAgQIECBAgACBhSAQQYY1q8atyLAQBlMfCBAgQIAAAQIECBCYs4AAw5zp3HgpBI6dOJveOHKi5tFjS/OSi3nZxbFRC4rUwHhDgAABAgQIECBAgAABAgQI9K3AydNT6dSpc+nsuYs/0IjtJNaunkhL89YSCgECBAgQIECAAAECBIZRQIBhGEd9QPsc20UcOHSy2vrYJ3L1lWMpfqGgECBAgAABAgQIECBAgAABAgQGUeDYian05tunqkGGRYsuS9etXW4lhkEcTG0mQIAAAQIECBAgQKBjAQGGjglV0AuB2C7ilQPH0zvvnN/xZHneF3LNqolePNozCBAgQIAAAQIECBAgQIAAAQJdFYh/93g9/2jjzNS5ynNiJYYIMUSYQSFAgAABAgQIECBAgMAwCSwaps7q6+AKHDl6qhpemBgXXhjckdRyAgQIECBAgAABAgQIECBAoF4gAgvXrlmWRhaf/6e6CDS8fex0/WXeEyBAgAABAgQIECBAYMELCDAs+CEe/A7Gf7Qfz8spRon/kF99xdjgd0oPCBAgQIAAAQIECBAgQIAAAQIlgVht4eqrxqufvH38TPXYAQECBAgQIECAAAECBIZFQIBhWEZ6gPtZ/sXBxMSoPSAHeCw1nQABAgQIECBAgAABAgQIEGguML50JI3lvyixjebkqbPNL3aGAAECBAgQIECAAAECC1BAgGEBDupC69LpqXeqXVqZAwwKAQIECBAgQIAAAQIECBAgQGChCqxctqTatROnzq9IWf3AAQECBAgQIECAAAECBBa4gADDAh/ghdC9M2fOVboRSykuWbJ4IXRJHwgQIECAAAECBAgQIECAAAECDQXGll78t4/YVlMhQIAAAQIECBAgQIDAMAkIMAzTaA9oX995991KyyPAoBAgQIAAAQIECBAgQIAAAQIEFrJA+d8/YhsJhQABAgQIECBAgAABAsMkIMAwTKOtrwQIECBAgAABAgQIECBAgAABAn0tUA4w9HVDNY4AAQIECBAgQIAAAQJdEBBg6AKqKgkQIECAAAECBAgQIECAAAECBAgQIECAAAECBAgQIECAAIH2BAQY2vNyNQECBAgQIECAAAECBAgQIECAAAECBAgQIECAAAECBAgQINAFAQGGLqCqkgABAgQIECBAgAABAgQIECBAgAABAgQIECBAgAABAgQIEGhPQIChPS9XEyBAgAABAgQIECBAgAABAgQIECBAgAABAgQIECBAgAABAl0QEGDoAqoqCRAgQIAAAQIECBAgQIAAAQIECBAgQIAAAQIECBAgQIAAgfYEBBja83I1AQIECBAgQIAAAQIECBAgQIAAAQIECBAgQIAAAQIECBAg0AUBAYYuoKqSAAECBAgQIECAAAECBAgQIECAAAECBAgQIECAAAECBAgQaE9AgKE9L1cTIECAAAECBAgQIECAAAECBAgQIECAAAECBAgQIECAAAECXRAQYOgCqioJECBAgAABAgQIECBAgAABAgQIECBAgAABAgQIECBAgACB9gQEGNrzcjUBAgQIECBAgAABAgQIECBAgAABAgQIECBAgAABAgQIECDQBQEBhi6gqpIAAQIECBAgQIAAAQIECBAgQIAAAQIECBAgQIAAAQIECBBoT0CAoT0vVxMgQIAAAQIECBAgQIAAAQIECBAgQIAAAQIECBAgQIAAAQJdEBBg6AKqKgkQIECAAAECBAgQIECAAAECBAgQIECAAAECBAgQIECAAIH2BAQY2vNyNQECBAgQIECAAAECBAgQIECAAAECBAgQIECAAAECBAgQINAFAQGGLqCqkgABAgQIECBAgAABAgQIECBAgAABAgQIECBAgAABAgQIEGhPQIChPS9XEyBAgAABAgQIECBAgAABAgQIECBAgAABAgQIECBAgAABAl0QEGDoAqoqCRAgQIAAAQIECBAgQIAAAQIECBAgQIAAAQIECBAgQIAAgfYEBBja83I1AQIECBAgQIAAAQIECBAgQIAAAQIECBAgQIAAAQIECBAg0AUBAYYuoKqSAAECBAgQIECAAAECBAgQIECAAAECBAgQIECAAAECBAgQaE9AgKE9L1cTIECAAAECBAgQIECAAAECBAgQIECAAAECBAgQIECAAAECXRAQYOgCqioJECBAgAABAgQIECBAgAABAgQIECBAgAABAgQIECBAgACB9gQEGNrzcjUBAgQIECBAgAABAgQIECBAgAABAgQIECBAgAABAgQIECDQBQEBhi6gqpIAAQIECBAgQIAAAQIECBAgQIAAAQIECBAgQIAAAQIECBBoT2CkvctdTYBACPxq5750+uy5ljGWjS1Jq65cka5atWLWe3bteS2dnDxTuW7zxmvTxPiSWe9xAQECBAgQIECAAAECBAgQIECAAAECBAgQIECAAAECBAZdQIBh0EdQ+y+JwP6Db6WTp86HDFpvwP5KGCFCCddde1XT2w4fOZ4Ov3mscn59vk6AoSmVEwQIECBAgAABAgQIECBAgAABAgQIECBAgAABAgQILCABAYYFNJi60v8CsbLCMy+8lCbz602b1vV/g7Vw4AWs6DHwQ6gDBAgQIECAAAECBAgQIECAAAECBAgQIECAAIGhERBgGJqh1tFuCWy4fk26Zs0VTas/dmwyHcorKryeV20oys68TcTIyOK04YY1xUdeCXRFwIoeXWFVKQECBAgQIECAAAECBAgQIECAAAECBAgQIECAQBcEBBi6gKrK4RK4fMV4uurKFU07HeduzCGHWH1h+y925dfTlWtf2LUvrV17RZoYW9L0XicIECBAgAABAgQIECBAgAABAgQIECBAgAABAgQIECAwLAKLhqWj+kngUgtMjC9JW269oaYZr756qOa9NwQIECBAgAABAgQIECBAgAABAgQIECBAgAABAgQIEBhWAQGGYR15/b4kArEaQ3m1hn37D1+SdngoAQIECBAgQIAAAQIECBAgQIAAAQIECBAgQIAAAQIE+k3AFhL9NiLas+AF1q65PB1+81iln7GtxHyVw0eOpdffeCsdPTZZrXJl3t7i8hUT6bprr6p+1s5BUedkbufU2XPVW6Pea66+Il21qvnWGdWLLxzE/a++dji9dexkivqKMp5Xplidgx2rcl3tbqfRrM65tK9oT7uvjYxGRxana9Zc0XKfoh8HDrxVefT4xJKakEvUf+TN4+nt7FaMQWHWbFxfP/hWOjt1fryKe6Lyg/nzyZMX7a/JW5iM5LbOVOajfydPnUlHDp//zjfqX3xv4ztx5x2bZmqKcwQIECBAgAABAgQIECBAgAABAgQIECBAgAABAgtcQIBhgQ+w7vWfwJKR+f0/u1dyKOCFXS+nqal3pnW2CErs2vNa2rzx2paDDDEB/std+1KzgEXUu/flgym2xdh6582zBg/25Gtf3PNqwzamN1OKPkTZcP2adPOma2edVI9J+Zd+czDt2fd6wzrbbd80uBY+iKDICzv3VcMo9bfEpHyUVvo0lcMGz/zypcr1sULHtjtXpJj03/H8S43rv2AW49rI/5e5XXF/fdmdx6Fc7l51W1PrCC7s2rO/8fNzJUX/bs7fq5s2rStXO+34SK6r6F+ELqKPM/ZvWg0+IECAAAECBAgQIECAAAECBAgQIECAAAECBAgQGAaB+Z1JHQYxfSTQocDk5OlqDfFL/U7KCztfyUGCA9UqRkdH8+TwssqkdPyi/ejxU3mCf6oSRHjmhZcqv+K/9eb11esbHdTXGddMjI2l8fHRygoAR/NKAEWJgMNPn/pl+vC2W5qGGF7cvT/tzBPtRYm6Vq1aVnl7NgcRIghw8oJJhCIO5In/RpPyxf0x8f30M7+uWWki6ly5cqxySYQBiuBGtO+Jnz6Xbr/1xnT9HFehKJ5bfn05By5+VRcaWZlXuoiVH+bSp3LdcRwBkh2/3FsNZ8S4ji5enKbOnauMZ3F99C9CDtvu3Fx8NC+v9WMWzx8fG630L75Xk3kMijGLsd2fx+yu3IbZVnMoGhdj/tQv/me1f8XnXgkQIECAAAECBAgQIECAAAECBAgQIECAAAECBIZbQIBhuMdf7y+BwL7951cbiEfHpPdcS0wyF+GFmGC+eePa9J5rV6f6UESsbhC/pI8J5wgIxAoQzX4xH9eW69xw/eq8gsDamjpj9YPYCmLnhRUV4n2zSfQIGxThhWjjnVs21GyPUPQ9QhGxSkM8v7Lqw7vFmdrXeNb2p3eevyafCr9bb75uWp1Rxyv7D6Vd2SjKszm8sSyvFhG//O+0RLgg6ivKprxqxHvzqhH17hGi2PHCbyru0Z6nn9nd0iR/WDy9Y3el+litYP2FFQuK58X5CJkUIY14jb9y37bcdmNxeWWViGJbkdtyeGVFDlkUZWJ8aXFYfa0PL2zOqyvUfwfi4v1vvJl+tfPVSv+iTc/kIEUrW0BEAKIIL0Sb1+WtNsptqjbEAQECBAgQIECAAAECBAgQIECAAAECBAgQIECAwNAJCDAM3ZDr8KUUiMnhygT9hUbE5PRcSkz0F8GAmITe+oHNle0cGtUVk+Cr8kTx9l/sqkw2x32rVi2vmfAu7otrI0gQk/ExGV0/KR/XxWc35kn7mHR+6uldlVtjAv3o0ZN5FYTaQMbe31xcHeLWze9p+MyoIIIId+RVEq7Ir2fOnm3al9iyofCLe2LlgUZtjK0tYsuMibGlKVaeiLIjv/7W1ltaXiWgclPd/0QgI7bWKMptOTxxYw54NCoxOX/3P7utEkaI0ENM8ofHTTnsMFOJkEaM6Z1bNlVWPKi/NvodY/PT7b+qjGecP5jrLwcYysejpS1LYszK5+rrLgdO4lz4Nrt+3dVXptVXrqx8B6JvsaVEfC/jOzRTie9KhFluu/napnYz3e8cAQIECBAgQIAAAQIECBAgQIAAAQIECBAgQIDAwhVYtHC7pmcE+kcgJqXjV/NF6CBaFpPUs032NuvBrtKWDJs3rms64V/cHxP6W269oXhbXZmg+kHpICbOmwUDSpdVJrbLk9tHj1/cWqK4rvjlf7wfz22YrUQwIoIHjUpMrscEeZRigr9ReKF8b/huuGFN5aMIPpQDFeXrWj3etfu1aoAi6m4WXijXtyUHM0ZHz/8/tREOiS0mZipFICW2o2hWzodIrq6ePpH7Nh8lVtIoSqy8UB7f4vPya7Qjvi9F/8rfy/J19cfbPnBTS3b193lPgAABAgQIECBAgAABAgQIECBAgAABAgQIECCwsAWswLCwx1fveiAQW0IcevN40yednTqXDr91NE1NvVNzTTlQUHNiljexdH+xCkFMMLcagohr46/YciAm0kfyBHR9ibBDq2X1lcurWxnE1gD1ZXzsYl1HjtRuc1B/7WzvIzxQlLVXXz5raKO4NgIRr7x2qOIf43RTcaLN1wihHMj2RWkWtCjOF68xyb9x/docXtmfoo59rx7KoYrGqzbEPWHWyhiUAyFRb6clAiLx3YgSIYpW+xdtvW7d6sr2JPG9jDpmCj5cc/UVDVeW6LT97idAgAABAgQIECBAgAABAgQIECBAgAABAgQIEBh8AQGGwR9DPbjEAoePRHiheYChvnmxfP6WW66fcZK3/p7y+wMH366+vSZP5LdT1q65vDpJ/frBN3P4YfWMt5+cPJ23PphMEcKICfPYImK2VQ/KFa5cmVcR2H/+k5jAP3v2nXRDXhFhohRsKF8/0/GRC5Prcc36dTNvU1CuJ9q7cvmySr9jcr1ZcKN8T6PjQ29eDKHEBH0rIYOinvdk5+h/lMM5RDFTgKG4Z7bXJYvn9//5ju9DUVblYEo75Zo1V1QCDHFP/XYW9fWMjE4PzdRf4z0BAgQIECBAgAABAgQIECBAgAABAgQIECBAgMBwCszvDNhwGuo1gZYEIriw4frV+W9tWyGA+sqPHru4VUMECtop5V/tH8vBhGYltjp4cc+r01aNiOtXrphIG/NWD62s/LAx9/WV147kEMT5Nu9++UCKvwgAxBYJlV/jtxCKiBUGilUnKoGENvsdzypWFzicV4JYmyfc2y3Hj170umKG7R0a1VsOOzTaaqPRPb3+LIIVRbl8efPtK4pryq/jY0urb+drO4tqhQ4IECBAgAABAgQIECBAgAABAgQIECBAgAABAgSGRkCAYWiGWke7JRAT+avzhHyzsnh0Ubo8T/pPlCZ5m13byuexGkJRnnp6V3HY9uvpJtsOPL1jd3r94Fs19U2MjeUVGEbT0eOnKmGEZ154Kb2dQwmLaq5q/ObOLZvSrj2v5SDD4eoFESaIv705KBElAg3rs2OzUMTRoxdDGxFm+NGPf1Gtq92DqbNn272lcn15Yn53bnf8zaUUQYy53NvNe8rfqxd2vZLiby6lXwMac+mLewgQIECAAAECBAgQIECAAAECBAgQIECAAAECBHorIMDQW29PW4ACq/Ny+80m3rvR3alzc5uAr2/L5OSZ+o/SCztfqQkvbN60btqKETEBv3ffgbT3NwdbWkkiVh+449Yb0+aN11aCDEfyL/1ja4pyKQINEXTYeufNc9piolyfYwIECBAgQIAAAQIECBAgQIAAAQIECBAgQIAAAQIEBk9AgGHwxkyLh1xgdPFI3trhfPjgtpvXpxVtbmdQ8MVWDOVy8lQOJuTtHYpy283XpRvzFhD1JQIJt25enzasX5u2/2JXihURWilFkCGujRDEkbwCw6H8Vw40xOc/feqX6cPbbqkJMYyPX9yiIO7fdufmeJlTiS0wOi0RWIkVIxZSGRm9+H3YkLcIuWYO22yER/33aiEZ6QsBAgQIECBAgAABAgQIECBAgAABAgQIECBAgEB3BQQYuuurdgLzLrBi5USKsEGUkZFFle0X5uMhR44cq1YTWzo0Ci9UL8gHEUhYv25V2rlnf/njlo7j3onxi1tGxPYSu3I9sTJDBCJ2PP9STUhhtDS5Hg+ILTlG6gIYLT24g4tWrhxP6UJXY7uFMFpIZWJsSbU7sTXIQutftXMOCBAgQIAAAQIECBAgQIAAAQIECBAgQIAAAQIE+laglS3s+7bxGkZgGAWuWJ4n0i+Ufa8dKQ47fp0sbesQ22L0ssSKBltuvaH6yKPHTlaP4yB+1V+eUN/36qGa8714E6GJosSWF2dbXHmiuKffX8v92//GW/3eXO0jQIAAAQIECBAgQIAAAQIECBAgQIAAAQIECBBYgAICDAtwUHVpYQusWXNltYMxkV6sxlD9cB4OLsXkfAQUilUAGm1LsXbN5dWe7d13sHrcq4NoX7H9RLRv728ubrfRqzZ08zlr85YRo6Pn/7+E2MojvlsKAQIECBAgQIAAAQIECBAgQIAAAQIECBAgQIAAgV4KCDD0UtuzCMyDwOUrxmtWI3j6md0trwYQYYdmgYfx8aXV1r11bLJ63MlBPGvXntdarmLq3NnKtbHiQn1Zf+3qmgn2F3buq7+k6fv5mozfeP2a6jP2vHywqWX1ogsHEXh4/WB/r2oQ5hvXr602fccLL7Xcvxjn+lUzqhU5IECAAAECBAgQIECAAAECBAgQIECAAAECBAgQINCigABDi1AuI9BPAltuvbE6mR8Tx08+vWvWyeaYcP/p9hfSjudfatiV8i/wY8L/5dcON7yu+PBoDjns2z/zNbt2v5Z27d6fnvj/npu1fS/m66am3qlUH22pLzHBfnvud1H25v7EPTOVCA68sPOV9FT2me3ameopzsVWF8VWFlH39qd3pgOzBBMOHzmWn78ztRMIKJ43H68joxfDIEdyW2YqN96wNk1cCLLEKgzRv2aBl6Ke6F9c9/SO1oM0xb1eCRAgQIAAAQIECBAgQIAAAQIECBAgQIAAAQIECJQFRspvHBMgMBgCE+NL0rYP3Jye+sXOyqR/hBie+OlzKSbYr7n6ispWDDFxHSGDY5WgwaEUE9JRIpwQf8VEfNHjCAjcvPE96fkLKxs8m3+Bfzrf8573XFXd2iGuPTl5Or362pG0M6+sMDo6Wtw+7TUm+I+8ebzyeTw72hdtuyaHE1YuH0/FxHq0McII5VUSNm+8dlp98cG6q69Mmzetq4Qi4n20Yd/+Q2lt1Jv/xrNLlKgz6nslnytCERG22HDDmjTSYHWHyk0t/s+dd2zKQZBfVRyiX/+YJ+7Dcn22Hx9bUmnD2anc97eOp/053FDu14EDb1Xa0OKj5uWyYluOqCxCLCldVmnnobeOpWW5vTdtumgd34GtH9ictv8iB2LyOBfj1uh7dSqvulDfv1hlIq5VCBAgQIAAAQIECBAgQIAAAQIECBAgQIAAAQIECMxFQIBhLmruIdAHAitXTKQPf/DW6mRzNOmVvGpC/DUr8ev6O7dsSivzNhSNyo15i4QTp06nvb+Jie7zAYEICUyMjVXeT507Uw0EbMrXRhhg557GqyAUk+GxhUTRptffeCvFX7MSgYhbbl6XVwE4H0RodF2EG5aMjFQm44tJ9ghAxF+zEgGDCB50Gl6I+hv1K0IK5aBCfTuiXzdvXJvCt9dlw/Vrq0GOCJXEeBYltiMpBxji87CPEEOsGFH0abbvVfRvyy3XV8IpRd1eCRAgQIAAAQIECBAgQIAAAQIECBAgQIAAAQIECLQrIMDQrpjrCWSB8coy++d3YBnNk+nzWeJX/EVgYLZ6Y7L57n92WyUgEL+uj5UYGpVihYBWfh1/6+b16fLlE5WAQFHfyVOnqtVGXbEKQry+lJ9ZtHV0dLpDtO+OvO1DrE5wfpWFEzkAMVWtqziICfDr1l2ZYrJ9pvBCcX0EAdbkFRciHBGrPESQob5EnVdduSzXuWbaahP117b7vr5fsfJAoxI2173nfL8i+DBTqTrOcl1Rx+iSkYv2M9wTbY2tN36189Uap/BptFVH1B/3bLtzc+V7tS8HYoogQ/Hs4jW+A1etWl4Zt5n6t3h0UbWtS2doa1GvVwIECBAgQIAAAQIECBAgQIAAAQIECBAgQIAAgeEUuOzdXIaz63o9KAJ79r1daerIyKJ0/boVg9LsS9LO+IV9ETqIBsSkcoQtZppcnqmhsYXAZF6RYT7qKp4T7Yt2FiW2fZgYW1q8ndNrN+pstyHlNnTq3u6zW72+CCK02775/l612l7XESBAgAABAgQIECBAYFgFin8LGVu6OF27ZvmwMug3AQIECBAgQIAAAQJDKCDAMISDPmhdLv6jXYBh0EZOewkQIECAAAECBAgQIECAAIG5CBT/FiLAMBc99xAgQIAAAQIECBAgMMgC59fAH+QeaDsBAgQIECBAgAABAgQIECBAgAABAgQIECBAgAABAgQIECAw8AICDAM/hDpAgAABAgQIECBAgAABAgQIECBAgAABAgQIECBAgAABAgQGX0CAYfDHUA8IECBAgAABAgQIECBAgAABAgQIECBAgAABAgQIECBAgMDACwgwDPwQ6gABAgQIECBAgAABAgQIECBAgAABAgQIECBAgAABAgQIEBh8AQGGwR9DPSBAgAABAgQIECBAgAABAgQIECBAgAABAgQIECBAgAABAgMvIMAw8EOoAwQIECBAgAABAgQIECBAgAABAgQIECBAgAABAgQIECBAYPAFBBgGfwz1gAABAgQIECBAgAABAgQIECBAgAABAgQIECBAgAABAgQIDLyAAMPAD6EOECBAgAABAgQIECBAgAABAgQIECBAgAABAgQIECBAgACBwRcQYBj8MdQDAgQIECBAgAABAgQIECBAgAABAgQIECBAgAABAgQIECAw8AICDAM/hDpAgAABAgQIECBAgAABAgQIECBAgAABAgQIECBAgAABAgQGX0CAYfDHUA8IECBAgAABAgQIECBAgAABAgQIECBAgAABAgQIECBAgMDACwgwDPwQ6gABAgQIECBAgAABAgQIECBAgAABAgQIECBAgAABAgQIEBh8AQGGwR9DPSBAgAABAgQIECBAgAABAgQIECBAgAABAgQIECBAgAABAgMvIMAw8EOoAwQIECBAgAABAgQIECBAgAABAgQIECBAgAABAgQIECBAYPAFBBgGfwz1gAABAgQIECBAgAABAgQIECBAgAABAgQIECBAgAABAgQIDLyAAMPAD6EOECBAgAABAgQIECBAgAABAgQIECBAgAABAgQIECBAgACBwRcQYBj8MdQDAgQIECBAgAABAgQIECBAgAABAgQIECBAgAABAgQIECAw8AICDAM/hDpAgAABAgQIECBAgAABAgQIECBAgAABAgQIECBAgAABAgQGX0CAYfDHUA8IECBAgAABAgQIECBAgAABAgQIECBAgAABAgQIECBAgMDACwgwDPwQ6gABAgQIECBAgAABAgQIECBAgAABAgQIECBAgAABAgQIEBh8AQGGwR9DPSBAgAABAgQIECBAgAABAgQIECBAgAABAgQIECBAgAABAgMvIMAw8EOoAwQIECBAgAABAgQIECBAgAABAgQIECBAgAABAgQIECBAYPAFBBgGfwz1gAABAgQIECBAgAABAgQIECBAgAABAgQIECBAgAABAgQIDLyAAMPAD6EOECBAgAABAgQIECBAgAABAgQIECBAgAABAgQIECBAgACBwRcQYBj8MdQDAgQIECBAgAABAgQIECBAgAABAgQIECBAgAABAgQIECAw8AICDAM/hDpAgAABAgQIECBAgAABAgQIECBAgAABAgQIECBAgAABAgQGX0CAYfDHUA8IECBAgAABAgQIECBAgAABAgQIECBAgAABAgQIECBAgMDACwgwDPwQLvwOLLrsskon33nn3YXfWT0kQIAAAQIECBAgQIAAAQIEhlrgzJlzQ91/nSdAgAABAgQIECBAYLgFBBiGe/wHovdLliyutDMCDGfPvjMQbdZIAgQIECBAgAABAgQIECBAgMBcBE5PXfy3j+LfROZSj3sIECBAgAABAgQIECAwiAICDIM4akPW5rGx8wGG6PaxE2eGrPe6S4AAAQIECBAgQIAAAQIECAyTQPnfPpaPjQ5T1/WVAAECBAgQIECAAAECSYDBl6DvBcr/sf728TPJVhJ9P2QaSIAAAQIECBAgQIAAAQIECMxBILaPOHX6bOXOkcWL0tjYyBxqcQsBAgQIECBAgAABAgQGV0CAYXDHbmhaHsslji09/x/sEV44eGRyaPquowQIECBAgAABAgQIECBAgMBwCMS2ma8fPlnt7JWXj1WPHRAgQIAAAQIECBAgQGBYBAQYhmWkB7yfa1aNp0WXXVbpxcnJKSGGAR9PzSdAgAABAgQIECBAgAABAgQuChThhXiNEqsvrFhm+4iLQo4IECBAgAABAgQIEBgWgcvezWVYOqufgy1w7MRUeuPIxV8ijIwsSmuuHLec4mAPq9YTIECAAAECBAgQIECAAIGhFoh/73jz6KlUhBfiBxzXXbM8xb97KAQIECBAgAABAgQIEBg2AQGGYRvxAe9vfYghunN+i4m8zcSofSEHfHg1nwABAgQIECBAgAABAgQIDI3Aqamz6XgOL8R2mUWJlRfWrp5IS/N2mgoBAgQIECBAgAABAgSGUUCAYRhHfcD7fPrMuXTg0Ml09tz5ZRUHvDuaT4AAAQIECBAgQIAAAQIECBBIY0sXpzWrJqy84LtAgAABAgQIECBAgMBQCwgwDPXwD3bnK0ssvp2XWBRkGOyB1HoCBAgQIECAAAECBAgQIDDEAhFcWHX5WA4wWFlyiL8Guk6AAAECBAgQIECAwAUBAQZfhYEXOJNXZIgQQ6zMoBAgQIAAAQIECBAgQIAAAQIE+l1g0aJFaXTkskpoYdGiy/q9udpHgAABAgQIECBAgACBngkIMPSM2oMIECBAgAABAgQIECBAgAABAgQIECBAgAABAgQIECBAgACBZgKLmp3wOQECBAgQIECAAAECBAgQIECAAAECBAgQIECAAAECBAgQIECgVwICDL2S9hwCBAgQIECAAAECBAgQIECAAAECBAgQIECAAAECBAgQIECgqYAAQ1MaJwgQIECAAAECBAgQIECAAAECBAgQIECAAAECBAgQIECAAIFeCQgw9EracwgQIECAAAECBAgQIECAAAECBAgQIECAAAECBAgQIECAAIGmAgIMTWmcIECAAAECBAgQIECAAAECBAgQIECAAAECBAgQIECAAAECBHolIMDQK2nPIUCAAAECBAgQIECAAAECBAgQIECAAAECBAgQIECAAAECBJoKCDA0pXGCAAECBAgQIECAAAECBAgQIECAAAECBAgQIECAAAECBAgQ6JWAAEOvpD2HAAECBAgQIECAAAECBAgQIECAAAECBAgQIECAAAECBAgQaCogwNCUxgkCBAgQIECAAAECBAgQIECAAAECBAgQIECAAAECBAgQIECgVwICDL2S9hwCBAgQIECAAAECBAgQIECAAAECBAgQIECAAAECBAgQIECgqYAANd3ViQAAQABJREFUQ1MaJwgQIECAAAECBAgQIECAAAECBAgQIECAAAECBAgQIECAAIFeCQgw9EracwgQIECAAAECBAgQIECAAAECBAgQIECAAAECBAgQIECAAIGmAgIMTWmcIECAAAECBAgQIECAAAECBAgQIECAAAECBAgQIECAAAECBHolIMDQK2nPIUCAAAECBAgQIECAAAECBAgQIECAAAECBAgQIECAAAECBJoKCDA0pXGCAAECBAgQIECAAAECBAgQIECAAAECBAgQIECAAAECBAgQ6JWAAEOvpD2HAAECBAgQIECAAAECBAgQIECAAAECBAgQIECAAAECBAgQaCogwNCUxgkCBAgQIECAAAECBAgQIECAAAECBAgQIECAAAECBAgQIECgVwICDL2S9hwCBAgQIECAAAECBAgQIECAAAECBAgQIECAAAECBAgQIECgqYAAQ1MaJwgQIECAAAECBAgQIECAAAECBAgQIECAAAECBAgQIECAAIFeCQgw9EracwgQIECAAAECBAgQIECAAAECBAgQIECAAAECBAgQIECAAIGmAgIMTWmcIECAAAECBAgQIECAAAECBAgQIECAAAECBAgQIECAAAECBHolIMDQK2nPIUCAAAECBAgQIECAAAECBAgQIECAAAECBAgQIECAAAECBJoKCDA0pXGCAAECBAgQIECAAAECBAgQIECAAAECBAgQIECAAAECBAgQ6JWAAEOvpD2HAAECBAgQIECAAAECBAgQIECAAAECBAgQIECAAAECBAgQaCogwNCUxgkCBAgQIECAAAECBAgQIECAAAECBAgQIECAAAECBAgQIECgVwICDL2S9hwCBAgQIECAAAECBAgQIECAAAECBAgQIECAAAECBAgQIECgqYAAQ1MaJwgQIECAAAECBAgQIECAAAECBAgQIECAAAECBAgQIECAAIFeCQgw9EracwgQIECAAAECBAgQIECAAAECBAgQIECAAAECBAgQIECAAIGmAgIMTWmcIECAAAECBAgQIECAAAECBAgQIECAAAECBAgQIECAAAECBHolIMDQK2nPIUCAAAECBAgQIECAAAECBAgQIECAAAECBAgQIECAAAECBJoKCDA0pXGCAAECBAgQIECAAAECBAgQIECAAAECBAgQIECAAAECBAgQ6JWAAEOvpD2HAAECBAgQIECAAAECBAgQIECAAAECBAgQIECAAAECBAgQaCogwNCUxgkCBAgQIECAAAECBAgQIECAAAECBAgQIECAAAECBAgQIECgVwICDL2S9hwCBAgQIECAAAECBAgQIECAAAECBAgQIECAAAECBAgQIECgqYAAQ1MaJwgQIECAAAECBAgQIECAAAECBAgQIECAAAECBAgQIECAAIFeCQgw9EracwgQIECAAAECBAgQIECAAAECBAgQIECAAAECBAgQIECAAIGmAgIMTWmcIECAAAECBAgQIECAAAECBAgQIECAAAECBAgQIECAAAECBHolIMDQK2nPIUCAAAECBAgQIECAAAECBAgQIECAAAECBAgQIECAAAECBJoKCDA0pXGCAAECBAgQIECAAAECBAgQIECAAAECBAgQIECAAAECBAgQ6JWAAEOvpD2HAAECBAgQIECAAAECBAgQIECAAAECBAgQIECAAAECBAgQaCogwNCUxgkCBAgQIECAAAECBAgQIECAAAECBAgQIECAAAECBAgQIECgVwICDL2S9hwCBAgQIECAAAECBAgQIECAAAECBAgQIECAAAECBAgQIECgqYAAQ1MaJwgQIECAAAECBAgQIECAAAECBAgQIECAAAECBAgQIECAAIFeCQgw9EracwgQIECAAAECBAgQIECAAAECBAgQIECAAAECBAgQIECAAIGmAgIMTWmcIECAAAECBAgQIECAAAECBAgQIECAAAECBAgQIECAAAECBHolIMDQK2nPIUCAAAECBAgQIECAAAECBAgQIECAAAECBAgQIECAAAECBJoKCDA0pXGCAAECBAgQIECAAAECBAgQIECAAAECBAgQIECAAAECBAgQ6JWAAEOvpD2HAAECBAgQIECAAAECBAgQIECAAAECBAgQIECAAAECBAgQaCogwNCUxgkCBAgQIECAAAECBAgQIECAAAECBAgQIECAAAECBAgQIECgVwICDL2S9hwCBAgQIECAAAECBAgQIECAAAECBAgQIECAAAECBAgQIECgqYAAQ1MaJwgQIECAAAECBAgQIECAAAECBAgQIECAAAECBAgQIECAAIFeCQgw9EracwgQIECAAAECBAgQIECAAAECBAgQIECAAAECBAgQIECAAIGmAgIMTWmcIECAAAECBAgQIECAAAECBAgQIECAAAECBAgQIECAAAECBHolIMDQK2nPIUCAAAECBAgQIECAAAECBAgQIECAAAECBAgQIECAAAECBJoKCDA0pXGCAAECBAgQIECAAAECBAgQIECAAAECBAgQIECAAAECBAgQ6JWAAEOvpD2HAAECBAgQIECAAAECBAgQIECAAAECBAgQIECAAAECBAgQaCow0vSMEwQI9EzgH374ePrBo4+n4ycm0713b0uf++wne/bsdh504ODh9NWv/W3a8fyutOW2zemhz38mrV1zVTtVuJYAAQIECBAgQIAAAQIECBAgQIAAAQIECBAgQIAAAQINBS57N5eGZ3xIoM8Enn3+xfSFLz3SsFUPfupj6dMP3Nfw3Ewf/uSJp9Kf5wn5RuXPH/7jdPttNzU6Na+fRSjgd3//izV1zrU/NZV04c3v5Xa+nttblAgxfOXhh4q3ffnayPebf/VwDl6s7sv2ahQBAgQIECBAgAABAgQIECBAgAABAgQIECBAgACBYRWwhcSwjvwC6/cPHn0inThxsu1efes7j7Z9z3zf8FxezaC+7Nn7av1Hl/x9BAHK4YVoUKzEoBAgQIAAAQIECBAgQIAAAQIECBAgQIAAAQIECBAgQGA+BGwhMR+K6rjkAsdyeGHHc7vSXVvvaLktsaJD/YR8yzfP44VrGqwEsG7NlfP4hPmpatmy8bR82UTe5uJiUGTThvXzU7laWhYothspbrj9wlYexXuvBAgQIECAAAECBAgQIECAAAECBAgQIECAAAECBAZVwAoMgzpy2j1N4PuPPj7ts5k++PHjP5vpdM/OxTYV5e0vYluG3/74R3r2/FYfFOGFP/jsJ9M1a66q3BKvD33+91q93XXzJBArjUTwpviLlTEUAgQIECBAgAABAgQIECBAgAABAgQIECBAgAABAgtBwAoMC2EU9aEiENsZ7Nm7L21sYVWAmPR97Imn+kbuwU99LN1/3915dYPJtPZCQKBvGldqyEfu3pa2fXBLpZ3L84oMy3KoQSFAgAABAgQIECBAgAABAgQIECBAgAABAgQIECBAgMB8CFiBYT4U1dE3Aj/b/kxLbXkuhx36rUQYoJ/DC4VX0U7hhULEKwECBAgQIECAAAECBAgQIECAAAECBAgQIECAAAEC8yEgwDAfiuq4ZAKxrUG5/ODRJ1IssT9b+dZ3Hq25pL6empMtvonnxsoOl3pJ/6IdrTi02LWuXTZfXoPU5wKz6Hu/jFO/tKPw8UqAAAECBAgQIECAAAECBAgQIECAAAECBAgQIDB8AraQGL4xX1A9vitvZ1DeCuJYDhHseG5XumvrHU37+ezzL6bXc9CgXOrrKZ9rdhwTvv/t8afS9p8/k3bvfSVvq1AbnHjvhuvSlts2p9/++EdmXVnhL//mu+n48Yv3P/jAfdPueTb368dPPFltTqyA8LnPfrLyPibDf/DDn6Sf/XxHTd8imBF9a1RftaI2Dn6St93Y8dzO6h3hvO2Dtdbh8Jd//d3qNXEQ7Yz2htk//PDxFCtgxJYf5RJWn7jvnhnHrnx9UVf4/zr7F+WavAXH7bmudvv8VK7nydIKHlHHvffcVVTb8LXeY7Z74vrHHn9y2vclxmlT/r7cm7fouP19N08b+/JzYpuUctmT+/7Vr/1t9aP6NpTvjYvKYxb/t/Dt7/yw0p54/v0fv6fGoPwdqz6gyUF8B79dFwyK+lrZ0qVJlT4mQIAAAQIECBAgQIAAAQIECBAgQIAAAQIECBAYMgEBhiEb8IXW3TV5sjomvsuT4d9/9PEZJ8F//PjPahhiwntLnjQuByFqLmjwJibh/+vf/WhaaKF8aUyqx9/f51UhHvzUx9KncyihWXkyggcHDlVP33vPh6ZNYh9843BNG6PdEQyI1SS+ndvSqESYIPr1VK7/Kw//UceTyRFeKDuFf32A4cSJyZprol0PPvCx9GwOLDzytW80NYsxjL/ZrKK+mHj/d1/+esO6IpzyegQF8l/U9dFZQghRX5Rf79k3rd2zBRjqPaKeRvfE5P6f5faWgxZxbVFinIr+x7h+JAcZyt+XRs8p7o3QTnlM4vNyG+rvjTGLkMMjX/tmevLn/1RUU3ldtmzZtLru2vr+fP1NNdc1ehOhlHI7VpQCNo2u9xkBAgQIECBAgAABAgQIECBAgAABAgQIECBAgACBegFbSNSLeD9wAg8+8PGaNsdEcExwNyoxkVyeZI1rYpK71RK/+v+TL301VVZMyMetlggYfD+HHua7xC/vm4UXys+KSe4/+dJ/aGl7jfJ983X87e/8KP2fX/6LhoGD+mdEf5qNX1wbKyV84UuPtFxX/aoA9c/r9vv4zsV3pll4of75EcAIg3/35f9cf2pe3k/m78If/ut/Py28EJVHUCECQeWyffv/KL9tely/Lcu2vPJHrOCgECBAgAABAgQIECBAgAABAgQIECBAgAABAgQIEGhVwAoMrUq5rm8FYtI1luAvb+EQk66NfjUevxKvL7Fkf6PP66+L9+/mv9guolziF/MfypO14xcmaw/mCehYbaB+m4qYlL73nm3zNqlbrDQQbSm2IFib2xKl0fMjxPDjvOXFJ/Ky/r0u5dBITJAX7YzJ/Qic1JdYJaPR+MX1/7lue4ri3mb1lp9dXNvL1whQlL8LMVaxtcKGvGXDirziQZRf73m5shVJ2eKuD97elWbGiiD1Jb7DRdmatwQpt+OxJ7anf5FXD5kpjBCBk3Ifo67YwkMhQIAAAQIECBAgQIAAAQIECBAgQIAAAQIECBAg0I6AAEM7Wq7tW4FP3Hd3zUoEzSZd638l/tG8VH9Mpj/XYs9i8jm2Q4hJ9Jj0fejz/0fDifaoLgIL5edFgODJ7c/ULO/f4mNnvOx38mR4rCJRP8Fc//yoZPfefTPW1c2TETCILS82blhf85hoU6wOUQ6gRACjUakPA8Q1781BgD/6/GfSprp6I+wQK1SUJ+Mb1dntz2J7kHL5+n/8N9UAR/F5hDViHIvVGpYvG6/5njyU+xd/Ueq3DAnXrzz8UOVcO/8T98XqJZs2vKfmu/PRHLIpb4/SSvClfluWcpiknTa5lgABAgQIECBAgAABAgQIECBAgAABAgQIECBAYLgFbCEx3OO/YHofv2gvl2LStfxZhAfqfyV+7z0fKl/S0vH9992T7vrg+1NMRDdaJaCoJEIFMZFbLs0m5svXtHMcgYB/9S8/WTMBXdzf6PkxQX4pykfvuasyyV4fXoi2RPAgAijlUj9OcS4CDvWrKUSI5E+/+IfTwgtxfQRTYmI/xutSlWhzOZixIgdgitUnGrUpzv1f+XsVfepm+XReHSFs4vtbH3yJkM69OdhTLk/mbTualfhO1Y9L/f3N7vU5AQIECBAgQIAAAQIECBAgQIAAAQIECBAgQIAAgbKAAENZw/HACsSka31YoH7S9SdPPFnTv5j8nimAUHNx3Zt/+8XPTZv4rbuk8rbRhH2j6+byWbR/tsn599UFKObynPm458FP/e8zVvOhrXfMeD5OPvvc9FUZIqQxUyAg7qsPt8Rnl6pEsKa8KkejdsR3ebY+Nbqv1c9i1ZFwm6nctfX9NadjFYvYJqJRqd9+Jb6X9+bAikKAAAECBAgQIECAAAECBAgQIECAAAECBAgQIECgXQEBhnbFXN+3ArEcfrmUJ13jV+I/q1vKf7ZJ3HJdjY5P5MnonzzxVPovf/3/VLYqiInpp/Iv1curHCzLWwFcyrJu7epL+fiWn12/CkCjG+tXrxiEifJGwZrY2uP3fv+Lle9NhALie9TLsiYHDGYrEeypDwRt3/4/Gt72vR/+pObz2/skNFPTKG8IECBAgAABAgQIECBAgAABAgQIECBAgAABAgQGQmBkIFqpkQRaEIhJ15gwLi/ZH5Ou8fljj9euvhBL+d/Vwq/+Gz02Jpy/9Z0fpe89+nij05XPKr9yz8v0K/MncPDgoZrKNm64vuZ9v76JYM2OLz1S07zYIuPvH32i8hcn3rvhukpgYOvW/23Oq4LUPGAe3vx23pYlQkBFeeyJ7elf5O90OWyyZ+++9Ou9rxSXVF4f9L2v8fCGAAECBAgQIECAAAECBAgQIECAAAECBAgQIECgdQErMLRu5coBEPjEfXfXtDImXYuVEsontn1wS81EbPncTMdR15986aszhhfi/sfyygxx3Z69r85UnXNtCBw/MVlz9fJlYzXv+/VNBGg+PcukfoQAItDwhRx0iNUZyqt4XKp+xQoMEQgqSmx/saNuG4/v/bA2xBP3dHP7i6ItXgkQIECAAAECBAgQIECAAAECBAgQIECAAAECBBamgADDwhzXoe3V/flX4+USk64RJIhfvJfLXH8lHisv1P/iPLYyiAnqP/3iH6Q/f/iP07/6l5+s/Jo+nvnkz/+p/FjHQyoQ25V886++nGJljvi+zFTie/O7OcQQ20tcyhLhhfpA0PfrVh2p39bj3tw/hQABAgQIECBAgAABAgQIECBAgAABAgQIECBAgMBcBWwhMVc59/WlQEy6xq/Ay0vf1wcO5vor8diaon7biLs++P70x5//3ZrVHOIX97+TgxQ/yasw/MVff7dmS4u+RBuQRi1fNl7T0uMnTtW87/c3sTLBQ5//TKWZEU749Z6X03P5dc/el6cFbOKiP/vy19M3/urhmu9W5eYe/s+H8jYr3/67H1WfGP93FauQxDYS8f0uB4MimHHvPXdVr3VAgAABAgQIECBAgAABAgQIECBAgAABAgQIECBAoF0BKzC0K+b6vhd48IGPz9jGuf5KvNF2EJ/77D9vOsH8kfxr9PpfsM/YMCdnFFizZnXN+eee31nzfpDeFCGXf/vFz+WQwpcrK3dEGKZcGm3ZUD7fi+ONG9ZXAkHlZ/3DhW0jHnv8yfLHKb7vCgECBAgQIECAAAECBAgQIECAAAECBAgQIECAAIFOBAQYOtFzb18KxORwrMTQqHTyK/GDBw/VVBl1xa/qld4I3J5X1iiXmOD/cd0kevl8cRwrBsylHKjbdqRRHXOtu76u+M5GmCFWBymX3Xv3ld9ekuP6QNAPHn0ihU15lZNo2EetvnBJxsdDCRAgQIAAAQIECBAgQIAAAQIECBAgQIAAAQILSUCAYSGNpr5UBZqtfFA/CV69oYWDiYnaLQxOnJhs4S6XzJfA7e/bPC2Y8pd/8/9WJtObPSMCBt+7sGJAs2uafb5n7yuV7RKanY9tIHbkv9lKTPZ/9Wt/O2M7izreVxdgKD6f6fV4l7+H9YGgCI7E9hbl8tG8+oIwT1nEMQECBAgQIECAAAECBAgQIECAAAECBAgQIECAwFwEBBjmouaevhe4/+P3NGzjgw/c1/DzVj6MCfRyiYnc788wOR6T59t//kz5FscdCMSqGvXBlBiDP/nSVxuuxBABgzj32BNPtfTUdWtrt6iIuh/52jenBQ9iXL/1nUfTF770SDqej2cr387XRhuatbO4P+r9SV1bN+UtHOrLsrrVRQ7mgER5tYioZ75Lvfuvc7ijXO6950Plt44JECBAgAABAgQIECBAgAABAgQIECBAgAABAgQIzElgZE53uYlAnwvEZHcsx19e5j7ed/Ir8UZ1/sXffDfFRHcsn1/UHRPIzzy/K/2Xv/5uer2FbQj6nLKvmhfBlJjkL7vG8SP/6Rvp23/3o+oY7M4T7K2EC8qda7T6wZM//6cUf8XWDjG29ZP35Trqj6OtRYCi3M5YCWRDDie8d+P1KbYm2X/g0LR+xRYld229o77KtHJ57fYoRYgjvn8RZIi6H/r8Z6bd18kH4R6+jUq0M1ZpUAgQIECAAAECBAgQIECAAAECBAgQIECAAAECBAh0KiDA0Kmg+/tW4MEHPp525F/JF+XevMx9pyUmhuOX9OUJ9JjYjb+YyI1SPhefld93+vxhvz9CJH/6xT/IY/AfpgUUwrmRdYRLHnv8yVnpIgBQH3opbioHYYrP3rvhuhSrITQ6V1yzIV9T/x2otLOy0sLMK0N87rOfLKqped36wS2VrTTKAY1y30/8fEdl64v6lRpqKmnzTaPwTlHFg5/6WHHolQABAgQIECBAgAABAgQIECBAgAABAgQIECBAgEBHAraQ6IjPzf0sEL8Kj4nXKDGJfG+eyO60xCT3Vx5+qBpWKNdXnkSO58YE9EfmITRRfobjlGJbha//x3/TcAzKPjEGX8iBk3Ym2COgUgRRynXVH/9OXpEgvgfFqhv154v30da47qNtfA/i+X/+8B+nbR+cvvpC1Bv9evCB5qGBWJGhvKVE0ZZOXyMQ1Kjc/r6bG33sMwIECBAgQIAAAQIECBAgQIAAAQIECBAgQIAAAQJtC1iBoW0yN1wqgbVrVk2bjN7yvv9lxub80ed/L+3Zs2/WSen4pXz9RHc8r1GJSetv/NWXK0v+xy/7i+0KYmJ5U64nJnTvv+/uyq/zn33+xZoq3rtxfc374s1vf+zuyq/mi/eNnl3fxhX5ebOV+ntamZyfqc6teUuDNbn/RWnkv2zZ+DTLsJmpNLpnpuvbGYNYqaB+bJu1Z6Z6r8nfh21b359iJY8iuFDv0Wh849oIRjz4wH3puby1yM+278jbRrxR3Yoi2rI8m8XWD7FlRLzOtnrC/ffdk2L8G33/on0bc3CiKPVtbDRmxbUzvRaBoPLKDxHMKCxmutc5AgQIECBAgAABAgQIECBAgAABAgQIECBAgAABAq0IXPZuLq1c6BoCBAgQGF6BWNXhd3//izUAsVJEBBsUAgQIECBAgAABAgQIECBAgAABAgQIECBAgAABAvMhYAuJ+VBUBwECBBa4wLe/82hND2M1D+GFGhJvCBAgQIAAAQIECBAgQIAAAQIECBAgQIAAAQIEOhQQYOgQ0O0ECBBY6AKx+sKTP99R0836bTlqTnpDgAABAgQIECBAgAABAgQIECBAgAABAgQIECBAYA4CI3O4xy0ECBAgsIAFjp84mf7vvOLCxo3Xpz17Xk7/7YntKT4rSqy+cNfWO4q3XgkQIECAAAECBAgQIECAAAECBAgQIECAAAECBAjMi4AAw7wwqoQAAQILR2DP3lfT3z/6RNMOfeLj96RlyyaanneCAAECBAgQIECAAAECBAgQIECAAAECBAgQIECAwFwEbCExFzX3ECBAYAEL/DqvutCsfPqB+9L9993T7LTPCRAgQIAAAQIECBAgQIAAAQIECBAgQIAAAQIECMxZwAoMc6ZzIwECBBamwPPP75zWsS23bU733r0t3XvPXdPO+YAAAQIECBAgQIAAAQIECBAgQIAAAQIECBAgQIDAfAhc9m4u81GROggQIEBgYQicOHEy7c7bSBRl7ZpVae2aq4q3XgkQIECAAAECBAgQIECAAAECBAgQIECAAAECBAh0RUCAoSusKiVAgAABAgQIECBAgAABAgQIECBAgAABAgQIECBAgAABAgTaEVjUzsWuJUCAAAECBAgQIECAAAECBAgQIECAAAECBAgQIECAAAECBAh0Q0CAoRuq6iRAgAABAgQIECBAgAABAgQIECBAgAABAgQIECBAgAABAgTaEhBgaIvLxQQIECBAgAABAgQIECBAgAABAgQIECBAgAABAgQIECBAgEA3BAQYuqGqTgIECBAgQIAAAQIECBAgQIAAAQIECBAgQIAAAQIECBAgQKAtAQGGtrhcTIAAAQIECBAgQIAAAQIECBAgQIAAAQIECBAgQIAAAQIECHRDQIChG6rqJECAAAECBAgQIECAAAECBAgQIECAAAECBAgQIECAAAECBNoSEGBoi8vFBAgQIECAAAECBAgQIECAAAECBAgQIECAAAECBAgQIECAQDcEBBi6oapOAgQIECBAgAABAgQIECBAgAABAgQIECBAgAABAgQIECBAoC0BAYa2uFxMgAABAgQIECBAgAABAgQIECBAgAABAgQIECBAgAABAgQIdENAgKEbquokQIAAAQIECBAgQIAAAQIECBAgQIAAAQIECBAgQIAAAQIE2hIQYGiLy8UECBAgQIAAAQIECBAgQIAAAQIECBAgQIAAAQIECBAgQIBANwQEGLqhqk4CBAgQIECAAAECBAgQIECAAAECBAgQIECAAAECBAgQIECgLQEBhra4XEyAAAECBAgQIECAAAECBAgQIECAAAECBAgQIECAAAECBAh0Q0CAoRuq6iRAgAABAgQIECBAgAABAgQIECBAgAABAgQIECBAgAABAgTaEhBgaIvLxQQIECBAgAABAgQIECBAgAABAgQIECBAgAABAgQIECBAgEA3BAQYuqGqTgIECBAgQIAAAQIECBAgQIAAAQIECBAgQIAAAQIECBAgQKAtAQGGtrhcTIAAAQIECBAgQIAAAQIECBAgQIAAAQIECBAgQIAAAQIECHRDQIChG6rqJECAAAECBAgQIECAAAECBAgQIECAAAECBAgQIECAAAECBNoSEGBoi8vFBAgQIECAAAECBAgQIECAAAECBAgQIECAAAECBAgQIECAQDcEBBi6oapOAgQIECBAgAABAgQIECBAgAABAgQIECBAgAABAgQIECBAoC0BAYa2uFxMgAABAgQIECBAgAABAgQIECBAgAABAgQIECBAgAABAgQIdENAgKEbquokQIAAAQIECBAgQIAAAQIECBAgQIAAAQIECBAgQIAAAQIE2hIQYGiLy8UECBAgQIAAAQIECBAgQIAAAQIECBAgQIAAAQIECBAgQIBANwQEGLqhqk4CBAgQIECAAAECBAgQIECAAAECBAgQIECAAAECBAgQIECgLQEBhra4XEyAAAECBAgQIECAAAECBAgQIECAAAECBAgQIECAAAECBAh0Q0CAoRuq6iRAgAABAgQIECBAgAABAgQIECBAgAABAgQIECBAgAABAgTaEhBgaIvLxQQIECBAgAABAgQIECBAgAABAgQIECBAgAABAgQIECBAgEA3BAQYuqGqTgIECBAgQIAAAQIECBAgQIAAAQIECBAgQIAAAQIECBAgQKAtAQGGtrhcTIAAAQIECBAgQIAAAQIECBAgQIAAAQIECBAgQIAAAQIECHRDQIChG6rqJECAAAECBAgQIECAAAECBAgQIECAAAECBAgQIECAAAECBNoSGGnrahcT6DOBs2ffSScmz6ZTZ86lc+feSWfzn0KAAAECBAgQIECAAAECBAgQ6FeBRYsuS4suy3/5ddn4aBpfujiNjPiNUb+Ol3YRIECAAAECBAgQINBbgcvezaW3j/Q0Ap0LnDp1Nh05ejqdOn2288rUQIAAAQIECBAgQIAAAQIECBC4hALLly1Jq1YuFWS4hGPg0QQIECBAgAABAgQI9IeAAEN/jINWtCEQwYW33j7Vxh0uJUCAAAECBAgQIECAAAECBAj0t0CsyHDlyrF0+Yol/d1QrSNAgAABAgQIECBAgEAXBQQYuoir6vkXOHhkMh0/caZacSy5uHLlkjSxdCQtGV1cWX6xetIBAQIECBAgQIAAAQIECBAgQKAPBd555910ZupcOpr/jeP4iamaFkaI4crLl9Z85g0BAgQIECBAgAABAgSGRUCAYVhGegH0s37lhZX5Fwmr8n/Uxy8UFAIECBAgQIAAAQIECBAgQIDAIAqcPftO3ibzVE2Q4epVy9KKZSOD2B1tJkCAAAECBAgQIECAQEcCAgwd8bm5VwLH8q8R3jhysvq4q1dN5P+QH62+d0CAAAECBAgQIECAAAECBAgQGGSBCDG89fbpShfixxrXrV2eRkYWDXKXtJ0AAQIECBAgQIAAAQJtC/ivoLbJ3HApBN7M/xFflCtXLhVeKDC8EiBAgAABAgQIECBAgAABAgtCIFaZnBg//2ON2GIiVqJUCBAgQIAAAQIECBAgMGwCAgzDNuID2N9Tp8+mWE4xysjiRXkfyLEB7IUmEyBAgAABAgQIECBAgAABAgRmFlizajwtuuz8VpknJ6dSBBkUAgQIECBAgAABAgQIDJOAAMMwjfaA9vXoiTPVlgsvVCkcECBAgAABAgQIECBAgAABAgtMILaOKLbMjPDCicmzC6yHukOAAAECBAgQIECAAIGZBQQYZvZxtg8Ezpw5v/pCNGV86eI+aJEmECBAgAABAgQIECBAgAABAgS6IzA2NlKt+OQpAYYqhgMCBAgQIECAAAECBIZCQIBhKIZ5sDt5ZupcpQMjI4tS/CkECBAgQIAAAQIECBAgQIAAgYUqsHT04o83zp07/28iC7Wv+kWAAAECBAgQIECAAIF6AbPB9SLeEyBAgAABAgQIECBAgAABAgQIELhEAn68cYngPZYAAQIECBAgQIAAgb4QEGDoi2HQCAIECBAgQIAAAQIECBAgQIAAAQIECBAgQIAAAQIECBAgMNwCAgzDPf56T4AAAQIECBAgQIAAAQIECBAgQIAAAQIECBAgQIAAAQIE+kJAgKEvhkEjCBAgQIAAAQIECBAgQIAAAQIECBAgQIAAAQIECBAgQIDAcAsIMAz3+Os9AQIECBAgQIAAAQIECBAgQIAAAQIECBAgQIAAAQIECBDoCwEBhr4YBo0gQIAAAQIECBAgQIAAAQIECBAgQIAAAQIECBAgQIAAAQLDLSDAMNzjr/cECBAgQIAAAQIECBAgQIAAAQIECBAgQIAAAQIECBAgQKAvBAQY+mIYNIIAAQIECBAgQIAAAQIECBAgQIAAAQIECBAgQIAAAQIECAy3gADDcI+/3hMgQIAAAQIECBAgQIAAAQIECBAgQIAAAQIECBAgQIAAgb4QEGDoi2HQCAIECBAgQIAAAQIECBAgQIAAAQIECBAgQIAAAQIECBAgMNwCAgzDPf56T4AAAQIECBAgQIAAAQIECBAgQIAAAQIECBAgQIAAAQIE+kJAgKEvhkEjCBAgQIAAAQIECBAgQIAAAQIECBAgQIAAAQIECBAgQIDAcAsIMAz3+Os9AQIECBAgQIAAAQIECBAgQIAAAQIECBAgQIAAAQIECBDoCwEBhr4YBo0gQIAAAQIECBAgQIAAAQIECBAgQIAAAQIECBAgQIAAAQLDLSDAMNzjr/cECBAgQIAAAQIECBAgQIAAAQIECBAgQIAAAQIECBAgQKAvBAQY+mIYNIIAAQIECBAgQIAAAQIECBAgQIAAAQIECBAgQIAAAQIECAy3gADDcI+/3hMgQIAAAQIECBAgQIAAAQIECBAgQIAAAQIECBAgQIAAgb4QEGDoi2HQCAIECBAgQIAAAQIECBAgQIAAAQIECBAgQIAAAQIECBAgMNwCAgzDPf56T4AAAQIECBAgQIAAAQIECBAgQIAAAQIECBAgQIAAAQIE+kJAgKEvhkEjCBAgQIAAAQIECBAgQIAAAQIECBAgQIAAAQIECBAgQIDAcAsIMAz3+Os9AQIECBAgQIAAAQIECBAgQIAAAQIECBAgQIAAAQIECBDoCwEBhr4YBo0gQIAAAQIECBAgQIAAAQIECBAgQIAAAQIECBAgQIAAAQLDLSDAMNzjr/cECBAgQIAAAQIECBAgQIAAAQIECBAgQIAAAQIECBAgQKAvBAQY+mIYNIIAAQIECBAgQIAAAQIECBAgQIAAAQIECBAgQIAAAQIECAy3gADDcI+/3hMgQIAAAQIECBAgQIAAAQIECBAgQIAAAQIECBAgQIAAgb4QGOmLVmgEgQETeOrpXWlycqrlVo+Pj6aVK8bThhvWpomxJTPe9487dqdjR09Vrrlzy4a0cuXEjNc7SYAAAQIECBAgQIAAAQIECBAgQIAAAQIECBAgQIAAgYUgIMCwEEZRH3ouMDl5Op08dabl5548dSodfvNY2vvywXTdtVelzZuubRpkODt1Ltd9PsAwde5cy89wIQECBAgQIECAAAECBAgQIECAAAECBAgQIECAAAECBAZZQIBhkEdP2wdS4JXXDqcjOczwW1tvSSMjiweyDxo9OAJW9BicsdJSAgQIECBAgAABAgQIECBAgAABAgQIECBAgMCwCwgwDPs3QP87Frjj1hvyqgqrm9ZzcvJMJbCwa8/+dDKv3BAlPvvHZ3anbXdubnqfEwTmQ8CKHvOhqA4CBAgQIECAAAECBAgQIECAAAECBAgQIECAAIFeCCzqxUM8g8AwC0yML6lsG/Hhrf9rWrliokoRW0rEn0KAAAECBAgQIECAAAECBAgQIECAAAECBAgQIECAAAECKQkw+BYQ6JHAaN4uIlZcGB29+H92+/J2EgoBAgQIECBAgAABAgQIECBAgAABAgQIECBAgAABAgQICDD4DhDoqUCEGK5bd3G7iSNdWIFh6uy5ylYV8TqfJba/KLbA6LTebrRxPts31/5FG+bbvWhLN8yKult5vdTPb6WNriFAgAABAgQIECBAgAABAgQIECBAgAABAgQIEBhsgZHBbr7WExg8gfG8pURRTk6eKQ47ej185Fjat/9wOvDGm2lq6p1qXbHaw9qrr0zr112Vrlq1ovp5KwdR5+tvvJUOHDyaTp46VXNLbIWxcsV42rzp2jQxdrE/NRfVvYn6du3Zn44ePzGtjVddsTJds+aKylYbdbfN+Pb1g2+lvS8fnFbnXNo344OanIxJ/Zd+czDte+1IjVG4r1y+LK2/9qqW+hT1vLBzX+Uply8fTxtuWFs5Luo/VLfdSDGuzfx/les6fSHAMnnqdLX1u/a8lsbHllbf33bz+jSSQzXNyslTZ9Le3xyY9h2I57czZrFVSrHayOorV1RNiv4Vfh+79wPNmuJzAgQIECBAgAABAgQIECBAgAABAgQIECBAgACBIRAQYBiCQdbFhSsQE8A7XngpxUR+oxJhhlfyNhXxd12eTG824V2+t5hMj3ualaPHTqb4i2tu3nhtumnTumaXVlYkePqZ3SkmsRuVaGMEJeIvJtjv3LIphyMmGl1a/ezoscn0zAt7cxsmq5+VD9ppX/m+do735ODEi3terQljFPdHn6K/8Rd92nrnzTMGPaamzlUs4/7JPMEfAYbZ6g/7A3ncY1uSeq/9+fMIH9SXw0eO54/i73zZvHFd0wDDCztfyeGQA8WlNa/1YzZb/yZzUKf8fYrv4kz9q3mYNwQIECBAgAABAgQIECBAgAABAgQIECBAgAABAkMjIMAwNEOto/0iUJ50nxi/+Gv4dtsXE9Tbn96Zt3U4P1E9OjqaV1tYma7Ik//xq/qzOdzw1oWQQdQdE8ixZcVMk831dcZ9V+UJ9VhtYcmFX+ofevN4TRhhZ56gj+dtuGFNXD6tlMML0cbr1l2ZLs9tXJx/xX8uT/S/ndt44I23K9tTRF/++/ZfVUIMsSJDoxJ+T/3if1aDA+U64/rod0zgF4GJaN+JvArBHbfe2Ki6OX327PO/SS/vP1S9N4zW5fYWqxnEiglHstP5bS3OpJ8+9cuGQYNqBXUHL+7en6LdUSbGxtKqVcvSsrzSxdvHJyuhjWIrjwibPPX0rnTPh99XfXZdVW2/PV/nzppwSLl/xfeq3L/4Hs70vapvRLl/cS7GUCFAgAABAgQIECBAgAABAgQIECBAgAABAgQIECAgwOA7QKCHAhEQiBBBUVbm7QLmWsrhhfgFfqxcMFHanqKod3NeIeGXu/ZVVmmIgMCO51+qTKYX58uvk5Onq4GICBDcsnn9tDpvyjdEPdt/sasyQR/3xyoD699z1bRJ9AhNFEGCCGts/cDmafVdl65Kt+atDOLa2GIiSv2KApUP8/+EXzm8sOn6Nem9eRuL0bptEG7Mn5fbGHVfvnyiaciiqL+V15h8L8IL0actt95QCXmU740VBqKEy658fRE0+PC2W2ZciSHuKVZuaFZ3ud44jrpfP/hmXmFjdbytlLtzoKEoEXAoxiBWa4gwwkwltrIoQjYztSF89+47kLeYOHjeOocYfmvrLdO+A/XPKrY5idDChutXV1YGmShta1F/vfcECBAgQIAAAQIECBAgQIAAAQIECBAgQIAAAQLDI7BoeLqqpwQuvcAv8+RwTPwWZf2Fie7ifauvMYle1PP/s3evQXKe9YHoX0saSaPLyJJljWRbxpKwHJBvWXzKsr3kg43Jh40J5NTmLOcQklObbIBULTkx5IOdDbupwKkNkIVULZBKUhsSdklxzknC5csC9ocQLFElCstGTiSQZEu2dbElWdfR3ef59+jtefud7p7umZ7p6Z7fUzXq9/pcfs/bTZnn/z5PDDLHwHS94IXIL45HcEM+cB2D2TGgXy/FNTGTwua0JESjgIg8zwhGGEizKESKQfSYSaGcYiaCPMVAf6M6xjUx6B95vn3zLQ2vi6CNWL4gUtTxbSnwoRy8UDmZ/omyinWMYIIIgJhKivvzmRFiAD7yz13r5RvBI1HPSGEUwSOtpHgu3rn1bQ3zjnyL5casGJ1I8Vzkz0Y8V83aF75bUoBLPvNGJaDhpfpLThTrFv0Xeb/z/p/Joh2CF4o6tgkQIECAAAECBAgQIECAAAECBAgQIECAAAECc1tAAMPc7n+tnwGBGLg+dvx0WhrhhcosCHmRMQA93GCZhPyaep/FQfQ4XxmkL81AUO++e9ISCnnAwf4DjQeaY1A6BpYnSjGAPbx6ZfWyU6fGBzBE2/N0+dLYdn6s/Bl5Nlo6IgbWi0EbrdZxy+ZbK8VEXV55ZWzZh3LZrewXAxC2bL65YaBFMa9isEEEj+TLPxSvKW6PznqQ+mqCPi0Gv7RiWyyj0XYEeeRp88Z1Lbcvf672HThaWcIjz6PeZx4YEX0tESBAgAABAgQIECBAgAABAgQIECBAgAABAgQIECgKWEKiqGGbwCQEdqXlGfbsbRwQcO78+XG55oPU4060cOB4CobIU8xa0OpAcB5w8PKhY2m2hJHKsgLFt/jzPNv5XFoYhL5cCFbI81iyeGyQ+tBrb0wqYCPPK+7PUwyut5rCaNeeA5WZG2KA/fa05MRkUgSO5EsxRP/ly0S0klcEG+T3vpICMZrVYbBg1izv4nXFQJFm9zQ7F0E2xQCRVtsXgRYb1w+nmSlGl8ooL2dRLnPVymUtP7Ple+0TIECAAAECBAgQIECAAAECBAgQIECAAAECBAj0t4AAhv7uX62bAYGYEv/SpfFBCo2KjqCBmA2h1cCDcj7FgfzVKa920upVy7MIYIgUMyY0C2CIAe3TZ0ayN64tDRED1SuWL8lWpTyKgQnNyo/ZFPanoIFIMYPC8TQDQcxI0E4eef7HT5zKN7NVbbY7ZoqIdsdAf8yAEAEI7aZi4MjQssG2bq/MtLFr9JZY7uH2tu6emYujb/K07sYV+WZLn8PDKysBDHFxtO+Wm1a3dJ+LCBAgQIAAAQIECBAgQIAAAQIECBAgQIAAAQIECBQFBDAUNWwTmCaBJYsXp0H7pVm8id8saKCV4kfSAHyeLqVlGSLQoNVUnCXhZApOqJdipoFYKiGfMaDeNfF2/uYWZjKItm7etC7NUHGokk284f/srhcr20MpGGJo+WC29sbrs6GhJU2DIuK+CBSJFIEUYVB0qJxo9s91YydPp9knJhPAcPJaIEfktGBgflvuY6Vn2cj5sf4rHu/29huF52F+m+0bSf2Tp+J2fswnAQIECBAgQIAAAQIECBAgQIAAAQIECBAgQIAAgVYEBDC0ouQaAk0E7t3ylhl947w4AB7LV0w2XU7BD+UUwQvbd+yuLiUQ5yMIIQINFqbAgYtpBoNj6Q37fDaFVmZCiBkXlixelO1JSwzE7Ad5OpUCAuIv8oqUB0XUm92hGKwQsyhs++GePJu2Py9dvtz2PXFDBIvkKeqc1zs/1upnvkxDq9fP1HXF52E04GQ06KTd8ovPZ7v3up4AAQIECBAgQIAAAQIECBAgQIAAAQIECBAgQGBuCwhgmNv9r/U9LhAzO3QyxcwL+QB7zFJwTwrOqDdjRAQe7Ni5r+VB/AhOiL+Y1eFgGvw/lWZBiDyKKQ8KuCMFPNyeZm1olqbS7oEFU//ZGxgYyAbmz29WxZ4+N5X2DS4e6Om2qzwBAgQIECBAgAABAgQIECBAgAABAgQIECBAgED3BKY+kte9uiuZwJwUGJi/IM0GMDpl/5Y7bs6G11zfEYdYiqK4bMTWd2xOSy0srJt3LP/wzq1vy7bt2DMuEKHuDdcORjBEHhARMym8fuJUduToyZpAiN37Xs2Wx9IShXYNpmCKPMUSEg+/c0u+O2OfA2lZhTzdum5l9rY71ue7ffEZy2LkafOG4WzDW4bzXZ8ECBAgQIAAAQIECBAgQIAAAQIECBAgQIAAAQIEZkRg3oyUohACBDomUFy2obgkw1QLOHlmbEaEtTde3zB4IS8nAgnW3bgi3237c/T+ldm9W27LHv6Xd6VlKpZU89h/4Gh1OzYikGJgYPTnKgIfOtnumoKa7Kwo1O+NNINEv6Xi0h0nz/Rf+/qtv7SHAAECBAgQIECAAAECBAgQIECAAAECBAgQINCPAgIY+rFXtamvBYaGBqvtO/zayer2VDeuXLpSzWJFmgFhJlMEKDxw3+ZqkEJxJoi8HkPLluab2StpGYqZTsWZLqJ+l1MgRT+l4owXR46+0Xft66e+0hYCBAgQIECAAAECBAgQIECAAAECBAgQIECAQL8KCGDo157Vrr4VWH/T6pqB/sNpsLnTqZOD8zFjQispZmSI5TEapc2b1lVP7UszNJw7P7qMRvXgNG9E/fLlL6Ko3XtfneYSZzb7aNuSa0t1RJ/tf+nIzFZAaQQIECBAgAABAgQIECBAgAABAgQIECBAgAABAnNeQADDnH8EAPSaQAykb1w/XK32zl0vtjyYHwP/9WY3iMxWrVpezfNAmuGglSCGsxMEEUSQwfe2v9BS/eLaPCghH0ivVihtxAB7HkAQA+w7nt3bUh3j2n/a/XI172Ke7W4XgyhimYuf7D3UUhan0pIT+1+qXRajpRs7fNHlwiwb9bJ+2x03Vw/v3ncoi+eglXTs+OlZ0b5W6uoaAgQIECBAgAABAgQIECBAgAABAgQIECBAgACB2SsggGH29o2aEWgocPumm7Kh5Usq52OA/nvbXshebjLYHAPM23bsyV7YfbAy8J8HChQLKL+B/+N0bbMUg/fNyox6bd+xOzs3koIYUv3i+nrlRhmjAQk/rRa3auWy6nZx454tt1Vnnzh1+lz2Dyk4ItrWKMW5CKDYe+BItvPHLza6rOXjYVQMYti979VsV3Jq1q5od9Rz156D2XTMljFR5QcXL6xecui1sdk6wrxc73U3rszW33RD9frnUnBMsyCNyGNXCg7Z9sM9lfZFn0gECBAgQIAAAQIECBAgQIAAAQIECBAgQIAAAQIEJivQeL72yeboPgIEZkTgvns2ZdvTwPG5kQuVAIBn02DznjSgvioNsi+9Nmh9MQ0wHztxJisOLA8MpK/9m/WreM+Wt1QCHeJsBCccP3E627wxBUssG8wWDMzPRlIwwvGU38FDr1cCEyKIoph3MdeYKWJ4zfWVN/NjoDsG++Nv7Y3XZyuWD2aDixdll69cyd5Ig95HXjuRXbp0tXJ7zL4QZdZLSwYXZg+8445sx859lXZHcEQMnkc9bkhBDwtTmZFiZohinnEs7u1Eyuu259rsCzETQ/zl7Yoywj1mXTh15my1XQMDA9mlK5c6UYW28hgaGsyyaxNFRJ9GHw4mi/C5dd3q7G13rK/JL4JEIh28FhATfRb9PbRsSaXf4lzevuJsHqOzZlwXpyUCBAgQIECAAAECBAgQIECAAAECBAgQIECAAAECkxIQwDApNjcR6L5ADMi/c+vbKkEL+fIEMaB/bqT+tP8xgL7h1tXpbziL4IJ6KWYYeMe9G9OSC69UAwQiMKKcYrD6gfs2Z8fTDAeNAhjini2b12cr0sD3nrQcQQRaRDqcZgGIv3opyo8B9GbBBhGssPUdmytv/B85OppP1KFRPaLdd2wczm5L7e5UiiCGJSkAo5Pt6lTdyvmsv2l19uKB16r+laCDE6NXxRIR5QCGOBN9EEEOL796vPocxLPVqN/WpkCVt6e+btZv5XrZJ0CAAAECBAgQIECAAAECBAgQIECAAAECBAgQIFAWuO7NlMoH7ROYTQL7Dp6sVGfBgnnpjfHls6Jq+9KSBFcuXanUJWYZyJdz6ETlRt+SHx3svzkNPrcyKByDy0dTUMChNKB/6sz59Nb/6Jv+SxYvTgPRA9m6VMeb09IAjQIXyvWO/F5Ob90fPnqyGhgQgQBDyxbX5BWD4RHEEGnVquVpFoTG/RPtigHwyLsYbBB1XLVqaWXpgmb3l+sY+1F+zBRQme2gsHxBnufqVJ/on1bbXa+MiY7l7Tp16nxakuF85fKwGlw8UJkVIgb3J2pXzFDx4ktHKvcOpuCQWwrLODQqP5Z/eOWV11u6J8xjdo4jr52qPBt5X8ZyGM3qFvfFLBwV48Jzld9/w6pllZknJnr+o7/zYJPlKQAlTCQCBAgQIECAAAECBAgQaCyQ/38hixfNz25aU3+ZxcZ3O0OAAAECBAgQIECAAIHeFRDA0Lt9N2dqnv9H+2wKYJgz+BpKgAABAgQIECBAgAABAgQIzLhA/v+FCGCYcXoFEiBAgAABAgQIECDQZYF5XS5f8QQIECBAgAABAgQIECBAgAABAgQIECBAgAABAgQIECBAgACBTACDh4AAAQIECBAgQIAAAQIECBAgQIAAAQIECBAgQIAAAQIECBDouoAAhq53gQoQIECAAAECBAgQIECAAAECBAgQIECAAAECBAgQIECAAAECAhg8AwQIECBAgAABAgQIECBAgAABAgQIECBAgAABAgQIECBAgEDXBQQwdL0LVIAAAQIECBAgQIAAAQIECBAgQIAAAQIECBAgQIAAAQIECBAQwOAZIECAAAECBAgQIECAAAECBAgQIECAAAECBAgQIECAAAECBLouIICh612gAgQIECBAgAABAgQIECBAgAABAgQIECBAgAABAgQIECBAgIAABs8AAQIECBAgQIAAAQIECBAgQIAAAQIECBAgQIAAAQIECBAg0HUBAQxd7wIVIECAAAECBAgQIECAAAECBAgQIECAAAECBAgQIECAAAECBAQweAYIECBAgAABAgQIECBAgAABAgQIECBAgAABAgQIECBAgACBrgsIYOh6F6gAAQIECBAgQIAAAQIECBAgQIAAAQIECBAgQIAAAQIECBAgIIDBM0CAAAECBAgQIECAAAECBAgQIECAAAECBAgQIECAAAECBAh0XUAAQ9e7QAUIECBAgAABAgQIECBAgAABAgQIECBAgAABAgQIECBAgAABAQyeAQIECBAgQIAAAQIECBAgQIAAAQIECBAgQIAAAQIECBAgQKDrAgIYut4FKkCAAAECBAgQIECAAAECBAgQIECAAAECBAgQIECAAAECBAgIYPAMECBAgAABAgQIECBAgAABAgQIECBAgAABAgQIECBAgAABAl0XEMDQ9S5QAQIECBAgQIAAAQIECBAgQIAAAQIECBAgQIAAAQIECBAgQEAAg2eAAAECBAgQIECAAAECBAgQIECAAAECBAgQIECAAAECBAgQ6LqAAIaud4EKECBAgAABAgQIECBAgAABAuJNUNUAAEAASURBVAQIECBAgAABAgQIECBAgAABAgIYPAMECBAgQIAAAQIECBAgQIAAAQIECBAgQIAAAQIECBAgQIBA1wUEMHS9C1SAAAECBAgQIECAAAECBAgQIECAAAECBAgQIECAAAECBAgQEMDgGSBAgAABAgQIECBAgAABAgQIECBAgAABAgQIECBAgAABAgS6LiCAoetdoAIECBAgQIAAAQIECBAgQIAAAQIECBAgQIAAAQIECBAgQICAAAbPAAECBAgQIECAAAECBAgQIECAAAECBAgQIECAAAECBAgQINB1AQEMXe8CFSBAgAABAgQIECBAgAABAgQIECBAgAABAgQIECBAgAABAgQEMHgGCBAgQIAAAQIECBAgQIAAAQIECBAgQIAAAQIECBAgQIAAga4LCGDoeheoAAECBAgQIECAAAECBAgQIECAAAECBAgQIECAAAECBAgQICCAwTNAgAABAgQIECBAgAABAgQIECBAYJYIXL365iypiWoQIECAAAECBAgQIEBg5gUEMMy8uRLbFFiw4LrKHf4Dvk04lxMgQIAAAQIECBAgQIAAAQI9J3Dx0pVqnefNG/3/RKoHbBAgQIAAAQIECBAgQKDPBQQw9HkH90PzFg4sqDQjAhhGzl/uhyZpAwECBAgQIECAAAECBAgQIECgrsCFi1erxwcXDVS3bRAgQIAAAQIECBAgQGAuCAhgmAu93ONtHFw0GsAQzTh97lKPt0b1CRAgQIAAAQIECBAgQIAAAQKNBU6euVA9ObhofnXbBgECBAgQIECAAAECBOaCgACGudDLPd7G5UsHsnnXjU6ZeObsRbMw9Hh/qj4BAgQIECBAgAABAgQIECBQX+Dk6YvZ5cujMzAsHJifLVwogKG+lKMECBAgQIAAAQIECPSrgACGfu3ZPmpXrPc4NLSw2qLXToxU/2O+etAGAQIECBAgQIAAAQIECBAgQKCHBS5cvJIde2Ok2oIVyxdVt20QIECAAAECBAgQIEBgrggIYJgrPd3j7bx+2aJswfzRxzXeRHj1tbOCGHq8T1WfAAECBAgQIECAAAECBAgQGBU4f/5ydij9fx15WrZ0YRYzUkoECBAgQIAAAQIECBCYawLXvZnSXGu09vamQCVw4WgKXLgyOpVitCL+g37VUApuWCAWpzd7Va0JECBAgAABAgQIECBAgMDcFYjAhTfOXMzOjVyqIsTSETetWZrFjJQSAQIECBAgQIAAAQIE5pqAAIa51uM93t56QQzRpFgTMmZouO46/3Hf412s+gQIECBAgAABAgQIECBAoO8F4n2ii5eujJtdcvGi+dna1YIX+v4B0EACBAgQIECAAAECBBoKCGBoSOPEbBW4evXN7Pip89mp0xdnaxXViwABAgQIECBAgAABAgQIECDQssC89ELGqusXZ0PLFrZ8jwsJECBAgAABAgQIECDQjwICGPqxV+dIm2I2hjfOXMhiusWLl8aWlZgjzddMAgQIECBAgAABAgQIECBAoMcFYsaFxYsXZNcvW2TJiB7vS9UnQIAAAQIECBAgQKAzAgIYOuMoly4LxKwMEdBwNU3BKBEgQIAAAQIECBAgQIAAAQIEZrNALIM5b951ghZmcyepGwECBAgQIECAAAECXREQwNAVdoUSIECAAAECBAgQIECAAAECBAgQIECAAAECBAgQIECAAAECRYF5xR3bBAgQIECAAAECBAgQIECAAAECBAgQIECAAAECBAgQIECAAIFuCAhg6Ia6MgkQIECAAAECBAgQIECAAAECBAgQIECAAAECBAgQIECAAIEaAQEMNRx2CBAgQIAAAQIECBAgQIAAAQIECBAgQIAAAQIECBAgQIAAgW4ICGDohroyCRAgQIAAAQIECBAgQIAAAQIECBAgQIAAAQIECBAgQIAAgRoBAQw1HHYIECBAgAABAgQIECBAgAABAgQIECBAgAABAgQIECBAgACBbggIYOiGujIJECBAgAABAgQIECBAgAABAgQIECBAgAABAgQIECBAgACBGgEBDDUcdggQIECAAAECBAgQIECAAAECBAgQIECAAAECBAgQIECAAIFuCAhg6Ia6MgkQIECAAAECBAgQIECAAAECBAgQIECAAAECBAgQIECAAIEaAQEMNRx2CBAgQIAAAQIECBAgQIAAAQIECBAgQIAAAQIECBAgQIAAgW4ICGDohroyCRAgQIAAAQIECBAgQIAAAQIECBAgQIAAAQIECBAgQIAAgRoBAQw1HHYIECBAgAABAgQIECBAgAABAgQIECBAgAABAgQIECBAgACBbggIYOiGujIJECBAgAABAgQIECBAgAABAgQIECBAgAABAgQIECBAgACBGgEBDDUcdggQIECAAAECBAgQIECAAAECBAgQIECAAAECBAgQIECAAIFuCAhg6Ia6MgkQIECAAAECBAgQIECAAAECBAgQIECAAAECBAgQIECAAIEaAQEMNRx2CBAgQIAAAQIECBAgQIAAAQIECBAgQIAAAQIECBAgQIAAgW4ICGDohroyCRAgQIAAAQIECBAgQIAAAQIECBAgQIAAAQIECBAgQIAAgRoBAQw1HHYIECBAgAABAgQIECBAgAABAgQIECBAgAABAgQIECBAgACBbggIYOiGujIJECBAgAABAgQIECBAgAABAgQIECBAgAABAgQIECBAgACBGgEBDDUcdggQIECAAAECBAgQIECAAAECBAgQIECAAAECBAgQIECAAIFuCAhg6Ia6MgkQIECAAAECBAgQIECAAAECBAgQIECAAAECBAgQIECAAIEaAQEMNRx2CBAgQIAAAQIECBAgQIAAAQIECBAgQIAAAQIECBAgQIAAgW4ICGDohroyCRAgQIAAAQIECBAgQIAAAQIECBAgQIAAAQIECBAgQIAAgRoBAQw1HHYIECBAgAABAgQIECBAgAABAgQIECBAgAABAgQIECBAgACBbggIYOiGujIJECBAgAABAgQIECBAgAABAgQIECBAgAABAgQIECBAgACBGgEBDDUcdggQIECAAAECBAgQIECAAAECBAgQIECAAAECBAgQIECAAIFuCAhg6Ia6MgkQIECAAAECBAgQIECAAAECBAgQIECAAAECBAgQIECAAIEaAQEMNRx2CBAgQIAAAQIECBAgQIAAAQIECBAgQIAAAQIECBAgQIAAgW4ICGDohroyCRAgQIAAAQIECBAgQIAAAQIECBAgQIAAAQIECBAgQIAAgRoBAQw1HHYIECBAgAABAgQIECBAgAABAgQIECBAgAABAgQIECBAgACBbggIYOiGujIJECBAgAABAgQIECBAgAABAgQIECBAgAABAgQIECBAgACBGgEBDDUcdggQIECAAAECBAgQIECAAAECBAgQIECAAAECBAgQIECAAIFuCAhg6Ia6MgkQIECAAAECBAgQIECAAAECBAgQIECAAAECBAgQIECAAIEaAQEMNRx2CBAgQIAAAQIECBAgQIAAAQIECBAgQIAAAQIECBAgQIAAgW4ICGDohroyCRAgQIAAAQIECBAgQIAAAQIECBAgQIAAAQIECBAgQIAAgRoBAQw1HHYIECBAgAABAgQIECBAgAABAgQIECBAgAABAgQIECBAgACBbggIYOiGujIJECBAgAABAgQIECBAgAABAgQIECBAgAABAgQIECBAgACBGgEBDDUcdggQIECAAAECBAgQIECAAAECBAgQIECAAAECBAgQIECAAIFuCAhg6Ia6MgkQIECAAAECBAgQIECAAAECBAgQIECAAAECBAgQIECAAIEaAQEMNRx2CBAgQIAAAQIECBAgQIAAAQIECBAgQIAAAQIECBAgQIAAgW4ICGDohroyCRAgQIAAAQIECBAgQIAAAQIECBAgQIAAAQIECBAgQIAAgRoBAQw1HHYIECBAgAABAgQIECBAgAABAgQIECBAgAABAgQIECBAgACBbggIYOiGujIJECBAgAABAgQIECBAgAABAgQIECBAgAABAgQIECBAgACBGgEBDDUcdggQIECAAAECBAgQIECAAAECBAgQIECAAAECBAgQIECAAIFuCAhg6Ia6MgkQIECAAAECBAgQIECAAAECBAgQIECAAAECBAgQIECAAIEaAQEMNRx2CBAgQIAAAQIECBAgQIAAAQIECBAgQIAAAQIECBAgQIAAgW4ICGDohroyCRAgQIAAAQIECBAgQIAAAQIECBAgQIAAAQIECBAgQIAAgRoBAQw1HHYIECBAgAABAgQIECBAgAABAgQIECBAgAABAgQIECBAgACBbggIYOiGujIJECBAgAABAgQIECBAgAABAgQIECBAgAABAgQIECBAgACBGgEBDDUcdggQIECAAAECBAgQIECAAAECBAgQIECAAAECBAgQIECAAIFuCAhg6Ia6MgkQIECAAAECBAgQIECAAAECBAgQIECAAAECBAgQIECAAIEaAQEMNRx2CBAgQIAAAQIECBAgQIAAAQIECBAgQIAAAQIECBAgQIAAgW4ICGDohroyCRAgQIAAAQIECBAgQIAAAQIECBAgQIAAAQIECBAgQIAAgRoBAQw1HHYIECBAgAABAgQIECBAgAABAgQIECBAgAABAgQIECBAgACBbggIYOiGujIJECBAgAABAgQIECBAgAABAgQIECBAgAABAgQIECBAgACBGgEBDDUcdggQIECAAAECBAgQIECAAAECBAgQIECAAAECBAgQIECAAIFuCAhg6Ia6MgnUEdi3/2D23I9/UueMQwQ6L3Dk6LHK83b27LnOZy5HAgQIECBAgAABAgQIECBAgAABAgQIECBAgAABApMQWDCJe9xCoCsCMdC6d/8rdcseXrMqG15zQ91zzQ42y3PThpuzpUuXNLu9Y+c++/m/zL799LZKfmtTO/7ok49Pqj0dq5CM+lrgr7/6zewrf/Ot6vP2iSc+nG3csL6v2zyTjfv+D57Ndj2/Ozt9dqRS7IZk+9DWe/vuO10OuJrJ38yZ7E9lESBAgAABAgQIECBAgAABAgQIECBAgAABAjMncN2bKc1ccUoiMHmBGCz7+JOfqZvBg/f/bPaJJz5U91yzg8XAgfJ1n/7kx7K777y9fLjj+89sfzb7T//3F2vy/V8fezj7d7/+v9Ucs0OgEwIx88IHf+OJmqzuuXNzJWim5qCdtgX2pllU/uBTX8wOJ+Ny2pSCGL7wud8rH+7Z/XrP0V/92SdTkMbqnm2TihMgQIAAAQIECBAgQIAAAQIECBAgQIAAAQLdFzADQ/f7QA06IPDMD36UxWwK7c6Y8NyP93Sg9Kllce7c6FvaxVx+uv/l4q7tOSJQb0aQTgfRRBnlFIPR0tQEwvB3n/zj7Ewd38j53hkIhppaC9xNgAABAgQIECBAgAABAgQIECBAgAABAgQIEOi+gACG7veBGnRI4G+/8VT2K+9/rOXcvpuWbKj3pnTLGXTowrvS2+/L0lIVxYHPRx9+oEO5y6aXBLb9YGf26bScSJ5iOZEv/9mn8t2OfK5JeUa+xWf/wbS8gTQ1gZjNpfgdjtzie71pwy1p6ZuXs61b/8XUCnA3AQIECBAgQIAAAQIECBAgQIAAAQIECBAgQGAOCAhgmAOdPFea+PVvPt1WAMO3n3pmVtAMp8Hk3/nor2ZfTwEY8Rb3e9/zSPboIw/OirqpRP8JxKD6H33y8SwG3ON5i2ftfWnJEmnyAuG4szSbSwRTfeDf/MLkM3UnAQIECBAgQIAAAQIECBAgQIAAAQIECBAgQGAOCghgmIOd3q9NPp2mbn/uxz/JWplyv96AYzddHrr/3iz+JAIzIRBBMxHEIHVGYO++gzUZxQwXghdqSOwQIECAAAECBAgQIECAAAECBAgQIECAAAECBFoSmNfSVS4i0CMCX/nqN1qq6Ve++s2WrnMRAQIEJhLYu782gCECRCQCBAgQIECAAAECBAgQIECAAAECBAgQIECAAIH2BczA0L6ZO2aRQEyHX1x3PqZxP5tmYliajjdLz5Wmey/n0+ze8rkoL2Z02JfWuc/T0qWD2cYN67OZHsjclwZSi/VYs2Z1SzNS5PWe7Odo+w8m+5FKFtH+aHsYTCbVa8fwmlUz7jmZusfzsHf/K9nRo69XLbrxLOR1j1lJzp49mz3QoRk+6rVv6dKlk37OIr/4PubPTtQ7nttNG26e8Huct3Gyn+W2zGTZ7da5006N8pup71m934xufk/a7Q/XEyBAgAABAgQIECBAgAABAgQIECBAgAABAtMjIIBhelzlOkMCjz78QPadp7fVBDH87TeeymL9+Ubpu+n6wyngoJje+9jD2Vf+5lvFQxNux8BwzPgQQRONUj6V/KOPPNjoksrxX/13T2aHj4wOeMeBT3/yY+MGhKPen/78X1auj38i7y//2acq+9Hmr3/zqXHtyq+L6ewnqkMlozb/+es0k8X2Hzyb/bQQvFHMIur4vsceyd77nkeKh+tux4BqtOPvv/l0TX8WL77nzs1Z9PlEbYm++fiTnynemv3Pr/9pzX55p3xP0bd47WdTH3w79UWewjaet4nq/9YNt2S//8RHxgVhhGGjZy+e05//xd/Mi8qi/cWlH8r3vjvZPP7RXxtXl2hLMYDhd5/8bM1z+7F//6sTmsYsA3/6519LwRkv1+2fvIz3pb5uJXCnle9Pq/1dBWpxo5Wyw/IDqV8btaX8HBSLjt+EYr/l/VK8ptXt3L3Z70w7TvE78u2nnqnp/3Jd2smvfO9E+xOVH9+T96bfjIm+4xOV4zwBAgQIECBAgAABAgQIECBAgAABAgQIECDQmwICGHqz39T6mkC86R8D2n+XBu/z9PU0AN4sgOHvvvHd/NLKZwzWrRteXXOs2U68ORyDl80GFPP7YwD6M3/y5eyZHzyXfeyjH+z4G+VRlz/41BcaBhBEPfI6xGczl7zOrXxGuTEIHnk2S3H+i3/xtUr/xMB7o8HgCFz47ymApDibRr18wzz+4o39ZoPL9e6dzmPfSQPCX/qL/6dp/SPI47d++w9TAMLvTHpmilba0GrftJJXfk05UCI/XvyMvo7v4bYU0PKJJz7ctI3R33+anouJUt7f8f350K//64bPz0T5FM9/KQVhFH8viueK2xGkEn95gErx3Extt+sUwVwRwFLvexaBEH/wqS9O+J2NtuXunf7NaOV3M74n8ZvZrC0z5a8cAgQIECBAgAABAgQIECBAgAABAgQIECBAYOYF5s18kUok0FmBB7f+bE2GpytT0v+k5li+E0sTlGcLiACIVlMMsH8kDULHAF876Zkf/Cj7669+q51bJrw2ptyPIIJyexrdGG/5xywBU00xQB4GEwUvFMuJa6OucW85xeB4DGZPFLxQvC8GlhvlV7xuJrbjjfIYcG2l/vFsxgD6dKXpCF6I+jaaIaJeO0b7+o/TUiYH653Owqte8EIs4xKzONRL8f35einwqN51Ex2LAfRWgheK+UTb476ZTjFLRLtO8bv0lfR9Kqfnnt/T9nc28oi2/30KNplqyp/Ldn4349r4jnfiN2uq9Xc/AQIECBAgQIAAAQIECBAgQIAAAQIECBAgMHMCZmCYOWslTZPA3XfeXplavzg4Fks7FKfaz4v+u9JgXAyYxlTlMajaSopB1mVp1od8sDr2f/7hrdmWu+7I3rphfeX42bPns+889f2aZQYi7xg4/ZX3/0LHZmGIwfD4ixSzSGy9/97srRtvrexH+c/8YGe1npWD6Z/vPLWtpeUc8uvLn/lAZN7+/Hw4xNIBG9L078uXLs2OHn09+/72nakOP8ovqbhVd65tVKbyT4Ok5RTteXfqlzVrVqc2ns22b3+2MutCMWgitmNguV4/l/Obzv28TvmzsDH1QbHexeUmoh7xnB5JPsOpbZFi9o9ob6QYrC0HpOTn4nxMr98sFb8DcV3cG2/jL039M5kUwSXlAf/I8wPvf0+2acPNlXyjztvSsxbX5hbxXP6n9Lb/Fz73e+PKLs+A8uD9P5u+F/+qZsaGmC1gZxp0Ly6L8ovveddkmlC9J+pX7otW+yzu25S+38WlUNYk17xv4nuRtz0KjHw3FfpqQ7q33RS/YcWUu8fvXZ7qOcXMJOW0ceMtlTrl39vi9zX/3Yr6f/ep7TXf2cgnghgefeSBcf1YLqPZfswSU/SJa2M2mAgey2eLiLbEcxS/0Xk9454I/PrQr/9ys+ydI0CAAAECBAgQIECAAAECBAgQIECAAAECBPpIQABDH3XmXG5KDN4XB29jOwZWiwO3MSgWg/rF9K42Zl/I73v8o/9n9vEnP5P9Uhqwj+nli2UMZ6NvkFeCKlJQw6dLb25PNYAgr0P+GQEYUZ/ioGaci/0PpMG/mCkhHwyM4zFIOJUUb3eXByLrOWTZ7VnYRmDIF9Mb/GvXrKoEGhStoh6f/fx/G1edj6cp8Mv98lDq3xgkLi+XEf0cyzdEEEo3Uwwu15u6P+odbS4HAcQb8Y8+MhrAEG3N2xtexWcm+ncyARoxOPy+xx6ueTbb9Qnv8swLkW8888UU7Yv6b73/ntSff1UdAI/nJJZAKC5bEs9iMUBjebr3E098qJhdZTuCBeLv3Wng/CtpAHvZsiXVge5xF7dwoF5bctt8AD3PJvosggDi7f/isx4WD2y9t1qPYrsiOKJoFcELk+m3vA7hVPw9C6d6+bXqFAELH0jBUzGbRr1nI363Iq9oe7Qj2pOnCEbZu/+Vcb8x+fmJPuOZLvZ5XB+BLVFeMeVtiaCGon18d2KWnfJvXPFe2wQIECBAgAABAgQIECBAgAABAgQIECBAgED/CFhCon/6ck63JAY6Y5CumGLwtJi215mRIN7ybzfFQNp/fOLD2W/+219uOkAcg7r5G9p5GVMNIMjzic98ULPRwF4MzD6YBpWLKQZyJ5vi3vIb7PH2fDOHMPjEEx/J/uvn/sM4qxjYLA4QR73iTet8ML9cz2jPf/7k4+OWGfhOyqebKfo4BpfLA+F5nWLguPxs5uem4/PTn/zYuMCayZRTXoogZn8oBy8U8402Pv7RD9a09evffLpmCYBY9qSdFHnGM9Gs3FbyK7cl7mnWZ9GXv5++48UUA/nfTsEyM5HqOTVbSiF3iqCVRul9jz1S+d0qB12Vr4/za9OsIMW0b9+B4m5b28VgiLgx+rMcvFDMMOwjKKuYyrNRFM/ZJkCAAAECBAgQIECAAAECBAgQIECAAAECBPpLQABDf/XnnG1NDODFm7vFFIOnxVQeSHt3ur7RoHPxvnrbD6Q3lVtJd6XB7elKS9NSFhPVfzJT1zeq7/NptoNy+tCv/+vyoXH7jQIsntk+trxE3BRvxMcga7MU/Vx88z2ujTfV901xZolmZU50bqI+jjrHDBQzkSKgpJF3u+U/V+rv/+PfjF+aoJxn+XsYg/7PpOU/8hTPbDGNLjXxpcrsGsXjnd4uz7zSync/BtnjumIq/6YUz3Vyu57TZ9LsFhMFIJVnOCnXqdXfrbu3jC1TEXlEP00mxRIxxSClCLqa6Dse5cQzXAyi2Lf/5ZpAmMnUxT0ECBAgQIAAAQIECBAgQIAAAQIECBAgQIBAbwhYQqI3+kktWxCIacaLU/XHoFsMoMVgWHkgLbJ79JGHWsi1/iXxNvT/fGpb9nzKf9/+0beTl6XB2TVrbkyzHtyd3Z2Wj5gouKB+zp09OpSm3u9UKgccxMwDU2njzmRXTK0MbMb1sVRBDJQXl8aIJRk2lqakL+bd7e2JBpY7Vb9lSxd3JKsICCkOPEem99zVWjDO3em5KH4P9xeCS6Lf4rkpLo/wzA9+VFl2ImZ4iHN3pe9O9OVUnq0iQrSl+KzEuVa/+3FdcdaR+E05cvT1VLfaGQqK5XVie7qcJvrd6vRSLDuf/+cajrvuvKNmv9lOBFEcPvJ65ZJR92Ppuejc71mzsp0jQIAAAQIECBAgQIAAAQIECBAgQIAAAQIEuicggKF79krusEAEKpQHR2Pq8Zgq/jtPfb+mtHjbf7JvqscyEH/wqS+OG+CNAmKt9xiQjfynOu19TYVnwc6Z0vT/MeA82RQDyuVB5Y0bb20puxjcjRkNfrp/7K3wo2lQWeqcwOEj45ca+aX//f+aVAGHjp6oue830xICv/vkH4/r//juxN//d23mlHi+tqaZTmKZl6kEM9RrS6vf/Y0bbq6pe+zs3ffytAcwRDmPf/TXso/89h9O6BS/NQ+loJ5ffM+7mjpt+8Gz2Wc+/+Vx+UVZ+e/WV/7mW+OWb4jzk01HS0vWxG/jz//ib04qu737Ds7qIKVJNcpNBAgQIECAAAECBAgQIECAAAECBAgQIECAwDgBS0iMI3GglwViwLOY4k3vCDgovkUd5ycbXBBTuMfga/nt9GKZsR3nP/MnX86++/S28qme3T/y2vGaug+mQILJprOlYIh28ynPaHB6ivm1W36/X3/u3EjHmnj27NmavGJphi987vcqQT41J0o7MageA+q/lQbx//4bT5XOtr47lbZEsEw5xSwGM5EiaKMVp/itiaCPD/7GE1l5mZy8nhG88B9T0FU5aCg/n39GXh9/8jNpxprxy8Xk17TzOdGSF+3kNdFvbjt5uZYAAQIECBAgQIAAAQIECBAgQIAAAQIECBCYvQJmYJi9faNmkxB49yMPZP89DXoWB+r++PN/OS6nWOJhMumzKa9i3pHHL73nkey9jz1Sffs5Aib2p8HXGEzsp0G3ZUtqlycYmaGB3Fb6aXlavkPqHYEYnP/yn30q+34aWN++/dnKgHmj70osH/DFv/hapXHvTd+1bqfh4RtnrArtOEWlIuBjeQq6KDt96c9H/YoV/5X3P5Y9+vADNb9b30kBV99JS+M06ovi/a1sT2XmjFbydw0BAgQIECBAgAABAgQIECBAgAABAgQIECDQfwICGPqvT+d0i+KN6RiU+7tvjr2xHW9yF9O7C4N2xeMTbcfbxDGjQzHFIGB5Nod4wzz+7rpzc1pq4guV6dmL9/TqdgxGFi2L2+22KfKKvioGg+zbd6DlZT32lvp0zZrV7VbB9U0ENtZZHuRv/8d/ycozXzTJoqVTD6UZU+IvUh74s/P53XUDGmJw/tEUoNRuHeq15UhacmS4hWfmuR//ZFw7li2tDeQZd8E0HJiKU7ShHJDwobSMx/tS0FUxVX63/u36yvHfffKz4+4pXtvqdrmvYomfWNJHIkCAAAECBAgQIECAAAECBAgQIECAAAECBAg0ErCERCMZx3tW4MGtP9u07o8+8lDT841OHjlau4RCXFcOXijeG4P05SUtiud7bfvOO2tnrdiXggimMp3+ptIg+TPpbfxWUgzIFgMf4p6NG29t5VbXtCiw5lqASfHyZ9JMCdOZYgD9XSm46PGP/lpldoYIDiqmmIlh5/O1AUTF842267Xl22mWgVbSd576fs1lMbvBxlTPbqZWnIp99dMUGFRMcX85eKF4Pn637k6BBp1Ib91YazXV34xO1EkeBAgQIECAAAECBAgQIECAAAECBAgQIECAwOwWEMAwu/tH7SYhcPedt2fxpm+9tLYyOHd7vVMTHjua3toupshrLqV776o1jQHlv/7qtyYkaBTkUA7uiNkt6r3xXi7gT//8b2oO1evTem/Jx1v3zdLps2ebnZ5T52J2jHKAyd8XZjWZKkajZ6KYbwQHlb/HrdxXzCO267Xl6998esLgm5hx5bnSjCsP3H9POftp3W+lveH0UKlexRkXynksm8HlVrameoV/nuI342+/MTY7Tn7cJwECBAgQIECAAAECBAgQIECAAAECBAgQIEAgFxDAkEv47CuBX3xP7fToeeOazZiQX9PoszwVfQwSlgcHG93bD8fjzfPygHIs1fH3TQYkYxD4I7/9hynQ4ZvjCN6dlgMoDm7GBZ/9/H/L4p5GKfIpL13x6CMPjru8PHV9XNDsrfsInPjjz395XD7dPnD27EjXqvCB97+npuxw/9Kff63mWL2d+E40u+67T2+rPBPN+jnPtzzYXq9f82ubfZbbEgPpsUxCo+9vHI/lX4qBAJH/+xr8rjQre7LncqdWgnrKLjFTRJ7WDdcurxKzIEyUGrlMdF/5fHy/3/vYwzWHYymQ7zz1TM2xejvR7ma/LfXucYwAAQIECBAgQIAAAQIECBAgQIAAAQIECBDofQEBDL3fh1pQRyAG2suD43HZ3XfVLoNQ59aGh+pNRd9sBoK9+w9mMQjZT+k3f/2Xx7l+8S++lgIP/rIye0I+8BmD0xFsEMELMQgcg5blIIbonw+8/xdqeOLaGFiOAc59yS9S5BmDmXE88immmH3hfaUB0ji/NL1lXu7/vA718v34k58ZtyxFsZyZ2l6yZLCmqNFZLkaDP8K0lcHsmgymsBMzmTx4f+1yLBGwEv2QGxazj36KPv7gbzyZNQpsyZ+L6OcP/sYT1eemmE++HW39/g925ruVz02lJQlqTjbZqTcrSwRkxPMZz1rxuY0ZAuJ4OVDm3Wl5i5laPqLoFM9m/v2q18Rweqbk9MDWe6uX3lWajab4TFUvKmxsS0u5lN0Lp9vejKCP8nfxM3/y5cqzEu0sp2hPtDfaHd/ZeteU77FPgAABAgQIECBAgAABAgQIECBAgAABAgQI9I/Agv5pipYQGBOIAbN487c44B0DkLG++2RTvTxjoDYG/GJmh3xwNd5w/v72nWlQ8UeTLWrW3rcpzcIQQQflN+y/nQI14q9Zir54KA2sFgeB3/fYI2kw/OU0O8LYG9kxuB0DnBOl6I8/+uTjKVhh7G3z/J44F0sgxLIUxRR1KD4TxXOzYTt/hop1KdY53qz/f//Hfymentbtxz/6wWzfbx+omYkgTD+cBvhz46hADDJHvxVTBLbcnZYdKfb336XggOJ1+XMTgSgbN9ya8lxcySICJOoFEEzl+/v7T3w4+61rATV5PavP2gTPW9TvQyl4Z6ZSM6cwyB1acYprI6Cr+F2IZ+po6q8H0/dxLK/R72Hxuk60N56TTzzxkUpAQjG//Ll+a/qexnc4gkgOHz1eE0gUwRYxE8Z//dx/KN5qmwABAgQIECBAgAABAgQIECBAgAABAgQIEOhjAQEMfdy5c71pMVheHKx+9JGHpkwSbxNvTwELxcHV6iBoKfcYuLv7zjv6LpAhgg4ilYMYSs2v2Q2LD6cB4OJgdn7B4//+V7OlaeaBCAZpNcWAcgxI54Ov9e6L2SLiTfpWUgyivu8978o+nd787maqN9hcrE8M6MYb6jGjwEyk6LcIEolB5OIzH2WfSXVpNtgdszeU+ye+PzHoXr4vvkPFwIZy26K/P/D+x8qH29rP2xIzSDQrq5xpDP4//tFfqxsoU762U/vhFAP65aCgyTpF/cvtzoNHynUO6+i3ch+Vr2tnP57XL3zu99Jz9MVx9uXnqphv9Nm76iwRU7zGNgECBAgQIECAAAECBAgQIECAAAECBAgQINBfApaQ6K/+1JqCQAyWx+BjpBiU68Sgbwyo/ec0oJsP4heKq9mMcmPAbuOGm2uO98tOtP+v/uxTWcxqMVEKiz/65O9k72pybbzd/vE0yBr91CyF/6+kgeywjdkgmqU4H0EOzfLM84s3vNesWd0suxk7F4PNzep85szZGatLFBSD2eHTSv/E9dHfn/7kx9Jb9x8aN+gfeUVAROQVQSMTpbx/or/LwRAT3VvvfOTx5fTcxjPUzDjujbLjuYz6dqLsevVpdCzKi+cgnPLfsEbXxvGJnCK/aMdE39c43ynrcn3j+9hKHfL25HWZ6Le2XI59AgQIECBAgAABAgQIECBAgAABAgQIECBAoLcFrnszpd5ugtrPFYF443vf/ldqmju8ZlXTwcWY2v5Impa81euKmW9KwQf1lifIr4m8v7/92Wx/eqM8TxvSIF3M/JAPeObl5+cb1SPeqi+memWX81qaptufaBB/MvcU69HKdpTxfFpWYN++A9npsyPVW8oW1RMTbITFT1NeRdflSwezjRtvzR64/56mfdIo6++m5S2K9Yv8tm79F8lvrI/Lz1cj35hB4MzZ89WiGvVp9YK0Ub6nWG7xuuJ2uc71PMv920pdoozJ1CevW/TPzuf/ubIEQX4s75+7UvBC/uzn55p9Nnp28vwm29/Nyiyeq9eWNWmw/567fqatgKdyPzR6doplt7PdSafIK5ZsiSUk8hTP1s8/8kD1u1V+Puo9V+XvS+TVapBYzC7xbPrN2PX87prfjOj3LXfdkd2bnqNmv715vX0SIECAAAECBAgQIECAAAECBAgQIECAAAEC/ScggKH/+lSLCBAgQIAAAQIECBAgQIAAAQIECBAgQIAAAQIECBAgQIBAzwlYQqLnukyFCRAgQIAAAQIECBAgQIAAAQIECBAgQIAAAQIECBAgQIBA/wkIYOi/PtUiAgQIECBAgAABAgQIECBAgAABAgQIECBAgAABAgQIECDQcwICGHquy1SYAAECBAgQIECAAAECBAgQIECAAAECBAgQIECAAAECBAj0n4AAhv7rUy0iQIAAAQIECBAgQIAAAQIECBAgQIAAAQIECBAgQIAAAQI9JyCAoee6TIUJECBAgAABAgQIECBAgAABAgQIECBAgAABAgQIECBAgED/CQhg6L8+1SICBAgQIECAAAECBAgQIECAAAECBAgQIECAAAECBAgQINBzAgIYeq7LVJgAAQIECBAgQIAAAQIECBAgQIAAAQIECBAgQIAAAQIECPSfgACG/utTLSJAgAABAgQIECBAgAABAgQIECBAgAABAgQIECBAgAABAj0nIICh57pMhQkQIECAAAECBAgQIECAAAECBAgQIECAAAECBAgQIECAQP8JCGDovz7VIgIECBAgQIAAAQIECBAgQIAAAQIECBAgQIAAAQIECBAg0HMCAhh6rstUmAABAgQIECBAgAABAgQIECBAgAABAgQIECBAgAABAgQI9J+AAIb+61MtIkCAAAECBAgQIECAAAECBAgQIECAAAECBAgQIECAAAECPScggKHnukyFCRAgQIAAAQIECBAgQIAAAQIECBAgQIAAAQIECBAgQIBA/wkIYOi/PtUiAgQIECBAgAABAgQIECBAgAABAgQIECBAgAABAgQIECDQcwICGHquy1SYAAECBAgQIECAAAECBAgQIECAAAECBAgQIECAAAECBAj0n4AAhv7rUy0iQIAAAQIECBAgQIAAAQIECBAgQIAAAQIECBAgQIAAAQI9JyCAoee6TIUJECBAgAABAgQIECBAgAABAgQIECBAgAABAgQIECBAgED/CQhg6L8+1SICBAgQIECAAAECBAgQIECAAAECBAgQIECAAAECBAgQINBzAgIYeq7LVJgAAQIECBAgQIAAAQIECBAgQIAAAQIECBAgQIAAAQIECPSfgACG/utTLSJAgAABAgQIECBAgAABAgQIECBAgAABAgQIECBAgAABAj0nIICh57pMhQkQIECAAAECBAgQIECAAAECBAgQIECAAAECBAgQIECAQP8JCGDovz7VIgIECBAgQIAAAQIECBAgQIAAAQIECBAgQIAAAQIECBAg0HMCAhh6rstUmAABAgQIECBAgAABAgQIECBAgAABAgQIECBAgAABAgQI9J+AAIb+61MtIkCAAAECBAgQIECAAAECBAgQIECAAAECBAgQIECAAAECPScggKHnukyFCRAgQIAAAQIECBAgQIAAAQIECBAgQIAAAQIECBAgQIBA/wkIYOi/PtUiAgQIECBAgAABAgQIECBAgAABAgQIECBAgAABAgQIECDQcwICGHquy1SYAAECBAgQIECAAAECBAgQIECAAAECBAgQIECAAAECBAj0n4AAhv7rUy0iQIAAAQIECBAgQIAAAQIECBAgQIAAAQIECBAgQIAAAQI9JyCAoee6TIUJECBAgAABAgQIECBAgAABAgQIECBAgAABAgQIECBAgED/CQhg6L8+1SICBAgQIECAAAECBAgQIECAAAECBAgQIECAAAECBAgQINBzAgIYeq7LVJgAAQIECBAgQIAAAQIECBAgQIAAAQIECBAgQIAAAQIECPSfgACG/utTLSJAgAABAgQIECBAgAABAgQIECBAgAABAgQIECBAgAABAj0nIICh57pMhQkQIECAAAECBAgQIECAAAECBAgQIECAAAECBAgQIECAQP8JCGDovz7VIgIECBAgQIAAAQIECBAgQIAAAQIECBAgQIAAAQIECBAg0HMCAhh6rstUmAABAgQIECBAgAABAgQIECBAgAABAgQIECBAgAABAgQI9J+AAIb+61MtIkCAAAECBAgQIECAAAECBAgQIECAAAECBAgQIECAAAECPScggKHnukyFCRAgQIAAAQIECBAgQIAAAQIECBAgQIAAAQIECBAgQIBA/wks6L8madFcFbh8+epcbbp2EyBAgAABAgQIECBAgAABAj0kMG/edVn8SQQIECBAgAABAgQIECBQKyCAodbDXg8JXL36Znby9MVs5MLl7OKlK1nsSwQIECBAgAABAgQIECBAgACBXhCIAIaFA/Oz5UsXpr+BXqiyOhIgQIAAAQIECBAgQGDaBa57M6VpL0UBBDoscOLkhezkmQuCFjrsKjsCBAgQIECAAAECBAgQIEBg5gUWLJiXrRxaLJBh5umVSIAAAQIECBAgQIDALBMQwDDLOkR1mgvEMhGHj53LLl68UnPhvOvSWwsL59Ucs0OAAAECBAgQIECAAAECBAgQmK0CFy9eza6W3isaWr4oW3394tlaZfUiQIAAAQIECBAgQIDAtAsIYJh2YgV0SiCCF1597WwWn3lalqZZHErTLC5eZDWU3MQnAQIECBAgQIAAAQIECBAg0BsC59OymMdPns/OXxh7USP+P46b1iztjQaoJQECBAgQIECAAAECBDosIIChw6Cymz6BA4dOV4MXFsyfl625YVDgwvRxy5kAAQIECBAgQIAAAQIECBCYIYGTpy9mx94YqZZmJoYqhQ0CBAgQIECAAAECBOaYgDn351iH92pzj5+6UBO8EG8imHWhV3tTvQkQIECAAAECBAgQIECAAIGiwIrlC7N1hVkXTp2+kI2cv1y8xDYBAgQIECBAgAABAgTmhIAAhjnRzb3dyKtX38zOnL1YbUTMvLBggUe3CmKDAAECBAgQIECAAAECBAgQ6HmBwbR0xPUrFlXbcSK9zCERIECAAAECBAgQIEBgrgkYBZ5rPd6D7T07crk6+8KypQvNvNCDfajKBAgQIECAAAECBAgQIECAwMQCq4YWZ/Ouu65y4fkLl7OLF69MfJMrCBAgQIAAAQIECBAg0EcCAhj6qDP7tSlnRy5Vmza0ZKC6bYMAAQIECBAgQIAAAQIECBAg0G8CQ0MLq00auSCAoYphgwABAgQIECBAgACBOSEggGFOdHNvN/Ly5avVBixevKC6bYMAAQIECBAgQIAAAQIECBAg0G8CsZREns6bgSGn8EmAAAECBAgQIECAwBwREMAwRzq6l5t58dLo2wYLFnhce7kf1Z0AAQIECBAgQIAAAQIECBCYWGDRwPzqRVeumIGhimGDAAECBAgQIECAAIE5IWBEeE50s0YSIECAAAECBAgQIECAAAECBAj0gsC8edf1QjXVkQABAgQIECBAgAABAtMiIIBhWlhlSoAAAQIECBAgQIAAAQIECBAgQIAAAQIECBAgQIAAAQIECLQjIIChHS3XEiBAgAABAgQIECBAgAABAgQIECBAgAABAgQIECBAgAABAtMiIIBhWlhlSoAAAQIECBAgQIAAAQIECBAgQIAAAQIECBAgQIAAAQIECLQjIIChHS3XEiBAgAABAgQIECBAgAABAgQIECBAgAABAgQIECBAgAABAtMiIIBhWlhlSoAAAQIECBAgQIAAAQIECBAgQIAAAQIECBAgQIAAAQIECLQjIIChHS3XEiBAgAABAgQIECBAgAABAgQIECBAgAABAgQIECBAgAABAtMiIIBhWlhlSoAAAQIECBAgQIAAAQIECBAgQIAAAQIECBAgQIAAAQIECLQjIIChHS3XEiBAgAABAgQIECBAgAABAgQIECBAgAABAgQIECBAgAABAtMiIIBhWlhlSoAAAQIECBAgQIAAAQIECBAgQIAAAQIECBAgQIAAAQIECLQjIIChHS3XEiBAgAABAgQIECBAgAABAgQIECBAgAABAgQIECBAgAABAtMiIIBhWlhlSoAAAQIECBAgQIAAAQIECBAgQIAAAQIECBAgQIAAAQIECLQjIIChHS3XEiBAgAABAgQIECBAgAABAgQIECBAgAABAgQIECBAgAABAtMiIIBhWlhlSoAAAQIECBAgQIAAAQIECBAgQIAAAQIECBAgQIAAAQIECLQjIIChHS3XEiBAgAABAgQIECBAgAABAgQIECBAgAABAgQIECBAgAABAtMiIIBhWlhlSoAAAQIECBAgQIAAAQIECBAgQIAAAQIECBAgQIAAAQIECLQjIIChHS3XEiBAgAABAgQIECBAgAABAgQIECBAgAABAgQIECBAgAABAtMiIIBhWlhlSoAAAQIECBAgQIAAAQIECBAgQIAAAQIECBAgQIAAAQIECLQjIIChHS3XEiBAgAABAgQIECBAgAABAgQIECBAgAABAgQIECBAgAABAtMiIIBhWlhlSoAAAQIECBAgQIAAAQIECBAgQIAAAQIECBAgQIAAAQIECLQjIIChHS3XEiBAgAABAgQIECBAgAABAgQIECBAgAABAgQIECBAgAABAtMiIIBhWlhlSoAAAQIECBAgQIAAAQIECBAgQIAAAQIECBAgQIAAAQIECLQjIIChHS3XEiBAgAABAgQIECBAgAABAgQIECBAgAABAgQIECBAgAABAtMiIIBhWlhlSoAAAQIECBAgQIAAAQIECBAgQIAAAQIECBAgQIAAAQIECLQjsKCdi11LgMCowKlT57JLl6+0zDE0tCQbWDC/peuLea9I9y1o8b6WMncRAQIECBAgQIAAAQIECBAgQIAAAQIECBAgQIAAAQIEZqmAAIZZ2jGqNbsFduzcm507f7GtSi4ZXJhtWD+cDQ9fny1ZvLDhvbv2vJwdO3G6cv6B+zZnN6xc3vBaJwgQIECAAAECBAgQIECAAAECBAgQIECAAAECBAgQINAvApaQ6Jee1I5ZL3Bu5GK2a8/BbPuO3dmp0+dmfX1VsD8Ezo1cyPK//miRVhAgQIAAAQIECBAgQIAAAQIECBAgQIAAAQIECPSrgBkY+rVntWvGBJYMLsoGm8yoEBXJZ1SI7Qhk2LZjTxazKwwtXxKHJALTJrBz10vV58+MHtPGLGMCBAgQIECAAAECBAgQIECAAAECBAgQIECAAIEOCAhg6ACiLOa2wOaNa7NbblrdFCGCFvbsezV7+dVjlesuXb6SxTIUP7f17dmCBfOb3uskAQIECBAgQIAAAQIECBAgQIAAAQIECBAgQIAAAQIE5oKAJSTmQi9rY9cFlgwuzO7dclu2edO6al0iqOHgK69X920QIECAAAECBAgQIECAAAECBAgQIECAAAECBAgQIEBgLgsIYJjLva/tMy6weeNN2cDA2Nfu8GsnZ7wOCiRAgAABAgQIECBAgAABAgQIECBAgAABAgQIECBAgMBsFLCExGzsFXXqa4Fb1q3O9h84WmnjqdPnOtrWU6fOZadOj1TzHEwzP9ywanl1fzIb50YuZMePn6neumBgfrZk8cJsaGhJ9VirG7F0RtRxJM0+kaep1rGc51Tql9ep3c+yUbQpfAY6tDxIvfyn2q/ttLFe+Z1uXzy3a9dc3061XEuAAAECBAgQIECAAAECBAgQIECAAAECBAgQINBnAgIY+qxDNWf2C6xYPjbwH4PvU02Rx4svHc32HTycXbp0dVx2sXzFqpXL0/IVN1UCD8ZdUOfARHnGLZFvzChxy0031Mmh9tC58xez/S8dyV4+9HrdOsbVkU87dYw8X9h9MDt24lTdPNupX21tW997+dVj2cH0d+zE6bo3tdqmWE7k6X98vpLHDamvHrhvc2X72PHT2Z59h+rmH+3bsH442/CWNePKfvp7z2fhU07bduypOfTwv7wz9eOimmP5TivPQKvtC6dnd71YyTruieVUIsXxfSmYJw/k+YVH31E57h8CBAgQIECAAAECBAgQIECAAAECBAgQIECAAIG5KSCAYW72u1Z3UeDi5csdKz0GuHe+8GIWA+CNUpw7N3IsO54G2e+7Z1M2VAigqHdPK3nGfZFvDErHAP7/cu+mbEGD2QbizfptP/znukEGxfJjMDv+7khBEbdvWlc8NW47Br0jeKFZyuu3Z9+r2db77mg5eKNZnvm5CA7Y+eMX6wYW5NfEZzttKt4XwQM7k+3ho28UD9dsR/t27TmYXU7XTuRVc2MLO9G+7Tt2N32uIpu8fVs2r68bSNGoqGjfjmf3TujX6H7HCRAgQIAAAQIECBAgQIAAAQIECBAgQIAAAQIE+lNAAEN/9qtWzWKBYyfGlmMozsbQbpVjcHvHzr3V2+LN/fXp7fZVq5alwfpFlbfaI3ggnyEgBrzjDfx4u79REEO9PNelaf2XLx/MYlmEWPoh/mJWgFhWIFLMPrB776vZljvWV+uSb8RA+I6dP60GL0QdN6fghCg/lleIgex4+z7qGIPhkXangIOhVN5wg+UEfrL3UOWavIx4oz/anecZ+UW78zpGu2Mw/ue2vr1hkEWeVyuf5cH9gYGBbMOtqyszSAwsGP1JrdemyLuVQIORZPa97S9Uggci71vWraz06cKUdwS/HDl6smoVeYZXzMJQDCCJPruQbCMdee1E1X/tjddnscRGnhYOjP+fgHL7YoaGjbeuydasWVF5rs6dv1B5Bop9FoEUkerNBpGXVfzclvoj+ihS9Fv0dwRiSAQIECBAgAABAgQIECBAgAABAgQIECBAgAABAnNbYPzo1dz20HoC0yoQg8NHCm/VR2DAZFLk88K1QeO4P4ICYjmHYhodGF5SGViPWQj2pIH/ypvvKeih0WB+JQhgYF7KZn6aCWE4u+3W4WKWlQHsbOXocg8xaL0/LV0RqTJzQlqiojiIHsePpxkiIoAgUnHpgMqB9E8EMURQQyWwIdU/AjLiWKPghSgnBuwjxeD+ffdsqNxbOXDtn7zdkUfM0hAD7VGHZ9OMCfelmSKmmnY8+9Nqm6KsCAiJOhdTsU3bf7gnXX+hUu8ILolzzVIeGLIpBQ28NZmW815348pKQMG2H+6uBiYcfOX1FDww1ldvKwSTbNtxsTrTQQQYNCs/no/izAv16hDBMfEX+axOf7v2HKjUI56x4eHr07mFzZpXDaiI++O5bVafphk5SYAAAQIECBAgQIAAAQIECBAgQIAAAQIECBAg0HcCMVIpESAwAwL5m+3FospBB8Vzzbb3pBkP8sCAesEL5XujnPzt+Lhv/0tHypdU9pekWRa2bL41e+f9PzMueKF8QywbEG/nR4qB78NHT5QvyQ69NrYEQsyS0CxF2REMcM+W2+peFn4xSJ6nLZtvbjr4HQP/kVc+QH441SVmi5hKigCKfOaAaHu94IVi/tGme7a8pXoogkhaSdGnEYRQDl7I743AiVvWrc53s5NnRmczqB6Y5MaLKSAlf67WpgCQZnWIIiIoJZ6XSPEMxLIaE6VLl65mERgRdnnfTHSP8wQIECBAgAABAgQIECBAgAABAgQIECBAgAABAnNDQADD3OhnrZxGgRhYP5ZmGmj09/Irx7JdaSaA723fVR0cjurEIHUMcLeborx8uYUYRN9QmiWhUX4RxDBQmV0hy/YdONpwyv4YlG61XsM3rqgWd+lS8yUALk9wPjKKAftGZZdnc4h6tpLCOU+tBhDk15c/iwEUEZjQKMCgeF8M0ud1jQCKiYIo4vpWAlsPTduuAABAAElEQVSKy4/Esh5TTRGAcPDQ69Vs3p4CVFpJ0bY8ECHaNtFSEBF8UZwhopUyXEOAAAECBAgQIECAAAECBAgQIECAAAECBAgQIDA3BCwhMTf6WSunUWB0ULy1N+vzasRsBK0MUufXFz9fScsF5GnVymUtDaLH9THYHm/t70/BCzFYffL0uerAc55fu58LC0sn1Bu4vn7ZYHXJjFhyYvnQkgmXGGhUh1gKIk8TzeaQXxefMbg+lJbqiJkTTqU2Rz3LS10Ur2+0HQEq+ewEETiSD9o3ur54POqbB50cTUuItHNvMZ/i9uAESzUUr21l+/UTp6rti/o1CiSpl1e0Lw/MKC9nUb4++kIiQIAAAQIECBAgQIAAAQIECBAgQIAAAQIECBAgUE9AAEM9FccITJPAwMBAdsfG4QmXZ2hW/OsnzlRPr7vx+up2KxurVi2rBDDEtTGjQaOB9AhwiOUEXk9v1J86czaLaf+XLF6cDQ4OZDFYnc8oMFGZN9+0Ott38Ejl/hj8f/p7z2drU51jeYJVq9IgeYuD8FGffIA8ymxU70b1GVq2pBLAEPmcO3chG0qBFO2mk2fOVW+JwJF2Usw6kKdi/+XHZsPn8eNjz9XawswardRtVQp4yFOnlrPI8/NJgAABAgQIECBAgAABAgQIECBAgAABAgQIECAwdwQEMMydvtbSaRKIt/GbvQ0/mJaJiNkPYtA+BrJbWXagWVVHRi5UT0dwwKHX3qjuT7RRnCXhbFqKol46kGY6+Kc9BypBB8Xz586fz+IvAgliKYVWlhiIt/jv3nJb9tyuF6v5HU71jb9IcT6CC8JmOP01shkp1DWueTbl1046VQg+iO3JBDAUl2mImRzarUNe33OF/suPzYbPmKEiT4dffyNrJxCh+FydLuST5+eTAAECBAgQIECAAAECBAgQIECAAAECBAgQIECAQCsCAhhaUXINgSYCmzeuTTMSrG5yRWdPnSsM5h+rvDU/9uZ8OyVdvnRl3OWH0/IGEWyQpwjO2Hjrmmx5mvY/AgdiBoO45shrJ7MdO/dWAjLyaxt9rrtxZbbi/qWVoIcjr51KgQyXqpfGrAzxFwENS/YtzNanJS5u37Suej7fuHTxcr5ZqUO+HEP14AxsXCp4jS5HMTbg307xYTjb01Seq0uXx/pqtrdT/QgQIECAAAECBAgQIECAAAECBAgQIECAAAECBGaXgACG2dUfakNgQoFYdiEPYojlGBYMzJ/wnnoXxOwH5fTCnoPVQ7FUxNvvWD9uVoRYvmFLOh6zMOzZe6h6fbONKOveNBNDpJjBIYIgIgiguCxEBDLsTnnGjBIP3rc5W5ACJvI0sHDspyoCKWK2hsmmwRSUMdUUM2kMpaCOfk03pOU9ms0q0qzdjWbRaHaPcwQIECBAgAABAgQIECBAgAABAgQIECBAgAABAgRCYGxUkAcBAj0hUAlYOD9a1QgymMpgfrHBh147UZkNIY7FzAv1gheK12/eeFPl+nZnQ4gAiPiLFLMRHEnBDAfTshV5MEMsz7D/pSNpJoabqsUVB9PjnjtTAEUxwKF64TRuLC0EfETwQh6QMY1FzmjWReO1q1dkG94yPKPlK4wAAQIECBAgQIAAAQIECBAgQIAAAQIECBAgQIDAPAQECPSWQD74H7U+nmYz6FQ6c2psSYRVK5eNm3mhXjlL02wQU0nxtv4tKQjjgTTjwubC0hEHDx2ryTaui5kn8nQyBTnMdFqVZiXIUyfd8zy7/Tk0NDajxOG0RIhEgAABAgQIECBAgAABAgQIECBAgAABAgQIECBAYKYFBDDMtLjyCExRYG1h+YQDaeaCy2lGgk6nqQYmTKY+MaPDwMDoT1IsJ1FOxZkm9r90tHx62vdj2Yhi/fIZI6a94BkqYO2NK6slRdvyZUqqB20QIECAAAECBAgQIECAAAECBAgQIECAAAECBAgQmGYBAQzTDCx7Ap0WiBkYYomHSLGcwu69r3akiPkD86v5nD0/PoCgerLNjVOnx2Z2mOjWgfmNV7UpBm4cfu2N6pITE+XZqfMxC8TG9WPLKuza/XJbwSPRV7M5LUlLZBRn99j54xdnc3XVjQABAgQIECBAgAABAgQIECBAgAABAgQIECBAoA8FBDD0YadqUv8L3LPlLdVG7j9wNPvJ3kPV/UYbMYC+Y+fehteuSDMM5OnI0TdaegP/9RNn8lvqfr6cZoj4h+0vZK3MmBBv/Odv/Rfrkmccg+sb3rIm3812PLs3O9XCUhIRQPH0Pz7fkYCH294yXJ2FIcr+8e6DLQUxRP9s27GnWvdubYyMXGha9JY7bqmej1kYWn2uIpgj+kMiQIAAAQIECBAgQIAAAQIECBAgQIAAAQIECBAgMBUBAQxT0XMvgS4JxGD+5k3rqqXv3vdq9uyuF7Njx09Xj+UbEbgQA9FP/+Nz2eEUmBDXnjp1Lj9d/Yw88zfw457tO3ZXAwqqF13biHIiMKHZMgqRx649Byp37NpzMPteuj4CGuqlyC/Ky9OGW8cCFfJj8RnLTMRSDpEi/3/Y/k+VdueBD5UT1/6JPMMk6hlLUuxM21NdbiNmYbjvnrdWi8kDNOq1K+r38ivHKoELFfMU8PCTDs2WUa1ACxuDixdWr9p34LVqn4ZPOQAkbO+8Y331+qh3JfgjXVtO0b4XU/BM9Ov+A0eymBWjnkP5PvsECBAgQIAAAQIECBAgQIAAAQIECBAgQIAAAQIEGgk0nq+90R2OEyAwKwRiMD/SnmuzL8TgcfwNDMzLhpYtrZwbGbmUBqzPV7bzfzal4IChobHZFvLj8XnPltuy7T/ckwb8L1QG/Z/+3vPZ2huvz1YsH6xcdjENWseMBhG4EMtY3HLTDQ0HrWOw/46NN1dmKYibT6b7IqAg/oqBEiOpfpcuXa3kH/+sT3lGvvXSaADBpspMEvnge97uGHyP8zGwXs5zYGAgu33T2mxBOj/VFHV/x70bs3/a/UrVKW9XXod67nHfzTetnmrxbd+//ubUR4dGA0fCLPo0T1GnB+7bnO9WPm9Lz8fFy5erz1UEf2xLz8REz1XkNbzm+pq87BAgQIAAAQIECBAgQIAAAQIECBAgQIAAAQIECBBoR0AAQztariUwywQiiCEGjmMK/3xAP4IB6s2MENfFrA3x2SgtGVyYbX3H5jRzwsEslpGIFG/Wx18xRYDBlvSm/osvHSkeHrcdg+FrUgDEnvQmf/Ht/Hr1iyCDOzYOZ7fdOjwun+KBqOPPbX1bJb89+w5VggjifN7+4rWxHXUNp7ivU2ndjSuzFSlIpNyuenVotV2dqls5n+jvCAo5WGf2i5G0bEe9FF63rFtd075Gz1UEbWxM/dwo6KRe/o4RIECAAAECBAgQIECAAAECBAgQIECAAAECBAgQqCdw3Zsp1TvhGIHZIrDv4MlKVRYsmJfduq7x4PtM1rc4AJ+/dd+p8mOmgsvpDfhI7eQdg+fHT5zJ3kifI+mt+cFrA/bXpwHmNWtWZEsWL2qripFfBDGcPDNSuS9mL4i8bk6D4THTQaR4O3/k/IXK9mDKv1mQQFx78szZ7PjxM6OzJFyrY+S1atWybPXKoWq+lQxb/Cf64nha4uBsGozP2x15rkh1jRkB8rq2mF3bl0W7jqc6nAz3awEBudXyNHNFs4CRvLCYNSIPfoj6Rr9PlNq9JwJI8jrm9Sv2ZaPyOtG+dp6TRvVwnAABAgQIECBAgAABAnNJIP//QhYvmp/dtGbZXGq6thIgQIAAAQIECBAgMMcFBDDM8QegF5qf/0f7bApg6AU3dSRAgAABAgQIECBAgAABAgR6UyD//0IEMPRm/6k1AQIECBAgQIAAAQKTF5g3+VvdSYAAAQIECBAgQIAAAQIECBAgQIAAAQIECBAgQIAAAQIECBDojIAAhs44yoUAAQIECBAgQIAAAQIECBAgQIAAAQIECBAgQIAAAQIECBCYgoAAhinguZUAAQIECBAgQIAAAQIECBAgQIAAAQIECBAgQIAAAQIECBDojIAAhs44yoUAAQIECBAgQIAAAQIECBAgQIAAAQIECBAgQIAAAQIECBCYgoAAhinguZUAAQIECBAgQIAAAQIECBAgQIAAAQIECBAgQIAAAQIECBDojIAAhs44yoUAAQIECBAgQIAAAQIECBAgQIAAAQIECBAgQIAAAQIECBCYgoAAhinguZUAAQIECBAgQIAAAQIECBAgQIAAAQIECBAgQIAAAQIECBDojIAAhs44yoUAAQIECBAgQIAAAQIECBAgQIAAAQIECBAgQIAAAQIECBCYgoAAhinguZUAAQIECBAgQIAAAQIECBAgQIAAAQIECBAgQIAAAQIECBDojIAAhs44yoUAAQIECBAgQIAAAQIECBAgQIAAAQIECBAgQIAAAQIECBCYgoAAhinguZUAAQIECBAgQIAAAQIECBAgQIAAAQIECBAgQIAAAQIECBDojIAAhs44yoUAAQIECBAgQIAAAQIECBAgQIAAAQIECBAgQIAAAQIECBCYgoAAhinguZUAAQIECBAgQIAAAQIECBAgQIAAAQIECBAgQIAAAQIECBDojIAAhs44yoUAAQIECBAgQIAAAQIECBAgQIAAAQIECBAgQIAAAQIECBCYgoAAhinguZUAAQIECBAgQIAAAQIECBAgQIAAAQIECBAgQIAAAQIECBDojIAAhs44yoUAAQIECBAgQIAAAQIECBAgQIAAAQIECBAgQIAAAQIECBCYgoAAhinguZUAAQIECBAgQIAAAQIECBAgQIAAAQIECBAgQIAAAQIECBDojIAAhs44yoUAAQIECBAgQIAAAQIECBAgQIAAAQIECBAgQIAAAQIECBCYgoAAhinguZUAAQIECBAgQIAAAQIECBAgQIAAAQIECBAgQIAAAQIECBDojIAAhs44yoUAAQIECBAgQIAAAQIECBAgQIAAAQIECBAgQIAAAQIECBCYgoAAhinguZUAAQIECBAgQIAAAQIECBAgQIAAAQIECBAgQIAAAQIECBDojIAAhs44yoUAAQIECBAgQIAAAQIECBAgQIAAAQIECBAgQIAAAQIECBCYgoAAhinguZUAAQIECBAgQIAAAQIECBAgQIAAAQIECBAgQIAAAQIECBDojIAAhs44yoUAAQIECBAgQIAAAQIECBAgQIAAAQIECBAgQIAAAQIECBCYgoAAhinguZUAAQIECBAgQIAAAQIECBAgQIAAAQIECBAgQIAAAQIECBDojIAAhs44yoUAAQIECBAgQIAAAQIECBAgQIAAAQIECBAgQIAAAQIECBCYgoAAhinguZUAAQIECBAgQIAAAQIECBAgQIAAAQIECBAgQIAAAQIECBDojIAAhs44ymUaBeZdd9005i5rAgQIECBAgAABAgQIECBAgMDsEbh8+ersqYyaECBAgAABAgQIECBAYIYFBDDMMLji2heYN3/0nvgP+KtX32w/A3cQIECAAAECBAgQIECAAAECBHpE4PKVsQCGefO81NEj3aaaBAgQIECAAAECBAh0SEAAQ4cgZTN9AosXLahmfnbkcnXbBgECBAgQIECAAAECBAgQIECg3wROnb1YbdLSwYXVbRsECBAgQIAAAQIECBCYCwICGOZCL/d4G5cvHfuP9dOF/4jv8WapPgECBAgQIECAAAECBAgQIECgRiBmnzx/4Ur12OCia9NSVo/YIECAAAECBAgQIECAQH8LCGDo7/7ti9YNphkYFswffVTPX7icnTw99iZCXzRQIwgQIECAAAECBAgQIECAAAECSeD4qfNZBDFEWpZe6FiwwP91V8HwDwECBAgQIECAAAECc0bAfwXNma7u7YbesHJxtQHH3hjJTp+1lEQVxAYBAgQIECBAgAABAgQIECDQ8wLHT13Izpy9VG3HqqFF1W0bBAgQIECAAAECBAgQmCsCAhjmSk/3eDuXDg5kQ8vHlpJ47fjZ7MTJCz3eKtUnQIAAAQIECBAgQIAAAQIE5rrA1atvZsdOnM/eOHm+SrF65aDZF6oaNggQIECAAAECBAgQmEsC/39797Kj10EFYbSd+JIQlMgMeHeejBdgwACBREIudoJpS0QeufaoSrJ79cSS96D6rL+Hn/7z7N3jz1N6YM/6aQv87e8/PLx5++FdkO+/SvH1t189vHrxxcPLl94L+Wl/un57AgQIECBAgAABAgQIECDwdATevPnt4T8/Pb4q84dfHt5HDL//vH785oXX3334Jsrf/9+/BAgQIECAAAECBAgQeAoCAoan8Cl/Zs/4j8dXSPz7+zef2VN5HAIECBAgQIAAAQIECBAgQOCpC7z/5oVv//jhGyifuofnJ0CAAAECBAgQIEDg6QkIGJ7eZ/5ZPPH3j++E/NfjVyv++tt/P4vn8RAECBAgQIAAAQIECBAgQIDA0xX46tWXD3/+0x+8NuLp/gl4cgIECBAgQIAAAQIE/i8gYPCn8EkL/PzLrw8//PT24f3XLooZPumP0i9PgAABAgQIECBAgAABAgSelMDLF18+fP3qxcM3Xz8XLjypT97DEiBAgAABAgQIECCQBAQMSceNAAECBAgQIECAAAECBAgQIECAAAECBAgQIECAAAECBAgQmAh8MVkxQoAAAQIECBAgQIAAAQIECBAgQIAAAQIECBAgQIAAAQIECBAIAgKGgONEgAABAgQIECBAgAABAgQIECBAgAABAgQIECBAgAABAgQIbAQEDBtnKwQIECBAgAABAgQIECBAgAABAgQIECBAgAABAgQIECBAgEAQEDAEHCcCBAgQIECAAAECBAgQIECAAAECBAgQIECAAAECBAgQIEBgIyBg2DhbIUCAAAECBAgQIECAAAECBAgQIECAAAECBAgQIECAAAECBIKAgCHgOBEgQIAAAQIECBAgQIAAAQIECBAgQIAAAQIECBAgQIAAAQIbAQHDxtkKAQIECBAgQIAAAQIECBAgQIAAAQIECBAgQIAAAQIECBAgEAQEDAHHiQABAgQIECBAgAABAgQIECBAgAABAgQIECBAgAABAgQIENgICBg2zlYIECBAgAABAgQIECBAgAABAgQIECBAgAABAgQIECBAgACBICBgCDhOBAgQIECAAAECBAgQIECAAAECBAgQIECAAAECBAgQIECAwEZAwLBxtkKAAAECBAgQIECAAAECBAgQIECAAAECBAgQIECAAAECBAgEAQFDwHEiQIAAAQIECBAgQIAAAQIECBAgQIAAAQIECBAgQIAAAQIENgICho2zFQIECBAgQIAAAQIECBAgQIAAAQIECBAgQIAAAQIECBAgQCAICBgCjhMBAgQIECBAgAABAgQIECBAgAABAgQIECBAgAABAgQIECCwERAwbJytECBAgAABAgQIECBAgAABAgQIECBAgAABAgQIECBAgAABAkFAwBBwnAgQIECAAAECBAgQIECAAAECBAgQIECAAAECBAgQIECAAIGNgIBh42yFAAECBAgQIECAAAECBAgQIECAAAECBAgQIECAAAECBAgQCAIChoDjRIAAAQIECBAgQIAAAQIECBAgQIAAAQIECBAgQIAAAQIECGwEBAwbZysECBAgQIAAAQIECBAgQIAAAQIECBAgQIAAAQIECBAgQIBAEBAwBBwnAgQIECBAgAABAgQIECBAgAABAgQIECBAgAABAgQIECBAYCMgYNg4WyFAgAABAgQIECBAgAABAgQIECBAgAABAgQIECBAgAABAgSCgIAh4DgRIECAAAECBAgQIECAAAECBAgQIECAAAECBAgQIECAAAECGwEBw8bZCgECBAgQIECAAAECBAgQIECAAAECBAgQIECAAAECBAgQIBAEBAwBx4kAAQIECBAgQIAAAQIECBAgQIAAAQIECBAgQIAAAQIECBDYCAgYNs5WCBAgQIAAAQIECBAgQIAAAQIECBAgQIAAAQIECBAgQIAAgSAgYAg4TgQIECBAgAABAgQIECBAgAABAgQIECBAgAABAgQIECBAgMBGQMCwcbZCgAABAgQIECBAgAABAgQIECBAgAABAgQIECBAgAABAgQIBAEBQ8BxIkCAAAECBAgQIECAAAECBAgQIECAAAECBAgQIECAAAECBDYCAoaNsxUCBAgQIECAAAECBAgQIECAAAECBAgQIECAAAECBAgQIEAgCAgYAo4TAQIECBAgQIAAAQIECBAgQIAAAQIECBAgQIAAAQIECBAgsBEQMGycrRAgQIAAAQIECBAgQIAAAQIECBAgQIAAAQIECBAgQIAAAQJBQMAQcJwIECBAgAABAgQIECBAgAABAgQIECBAgAABAgQIECBAgACBjYCAYeNshQABAgQIECBAgAABAgQIECBAgAABAgQIECBAgAABAgQIEAgCAoaA40SAAAECBAgQIECAAAECBAgQIECAAAECBAgQIECAAAECBAhsBAQMG2crBAgQIECAAAECBAgQIECAAAECBAgQIECAAAECBAgQIECAQBAQMAQcJwIECBAgQIAAAQIECBAgQIAAAQIECBAgQIAAAQIECBAgQGAjIGDYOFshQIAAAQIECBAgQIAAAQIECBAgQIAAAQIECBAgQIAAAQIEgoCAIeA4ESBAgAABAgQIECBAgAABAgQIECBAgAABAgQIECBAgAABAhsBAcPG2QoBAgQIECBAgAABAgQIECBAgAABAgQIECBAgAABAgQIECAQBAQMAceJAAECBAgQIECAAAECBAgQIECAAAECBAgQIECAAAECBAgQ2AgIGDbOVggQIECAAAECBAgQIECAAAECBAgQIECAAAECBAgQIECAAIEgIGAIOE4ECBAgQIAAAQIECBAgQIAAAQIECBAgQIAAAQIECBAgQIDARkDAsHG2QoAAAQIECBAgQIAAAQIECBAgQIAAAQIECBAgQIAAAQIECAQBAUPAcSJAgAABAgQIECBAgAABAgQIECBAgAABAgQIECBAgAABAgQ2AgKGjbMVAgQIECBAgAABAgQIECBAgAABAgQIECBAgAABAgQIECBAIAgIGAKOEwECBAgQIECAAAECBAgQIECAAAECBAgQIECAAAECBAgQILAREDBsnK0QIECAAAECBAgQIECAAAECBAgQIECAAAECBAgQIECAAAECQUDAEHCcCBAgQIAAAQIECBAgQIAAAQIECBAgQIAAAQIECBAgQIAAgY2AgGHjbIUAAQIECBAgQIAAAQIECBAgQIAAAQIECBAgQIAAAQIECBAIAgKGgONEgAABAgQIECBAgAABAgQIECBAgAABAgQIECBAgAABAgQIbAQEDBtnKwQIECBAgAABAgQIECBAgAABAgQIECBAgAABAgQIECBAgEAQEDAEHCcCBAgQIECAAAECBAgQIECAAAECBAgQIECAAAECBAgQIEBgIyBg2DhbIUCAAAECBAgQIECAAAECBAgQIECAAAECBAgQIECAAAECBIKAgCHgOBEgQIAAAQIECBAgQIAAAQIECBAgQIAAAQIECBAgQIAAAQIbAQHDxtkKAQIECBAgQIAAAQIECBAgQIAAAQIECBAgQIAAAQIECBAgEAQEDAHHiQABAgQIECBAgAABAgQIECBAgAABAgQIECBAgAABAgQIENgICBg2zlYIECBAgAABAgQIECBAgAABAgQIECBAgAABAgQIECBAgACBICBgCDhOBAgQIECAAAECBAgQIECAAAECBAgQIECAAAECBAgQIECAwEZAwLBxtkKAAAECBAgQIECAAAECBAgQIECAAAECBAgQIECAAAECBAgEAQFDwHEiQIAAAQIECBAgQIAAAQIECBAgQIAAAQIECBAgQIAAAQIENgICho2zFQIECBAgQIAAAQIECBAgQIAAAQIECBAgQIAAAQIECBAgQCAICBgCjhMBAgQIECBAgAABAgQIECBAgAABAgQIECBAgAABAgQIECCwERAwbJytECBAgAABAgQIECBAgAABAgQIECBAgAABAgQIECBAgAABAkFAwBBwnAgQIECAAAECBAgQIECAAAECBAgQIECAAAECBAgQIECAAIGNgIBh42yFAAECBAgQIECAAAECBAgQIECAAAECBAgQIECAAAECBAgQCAIChoDjRIAAAQIECBAgQIAAAQIECBAgQIAAAQIECBAgQIAAAQIECGwEBAwbZysECBAgQIAAAQIECBAgQIAAAQIECBAgQIAAAQIECBAgQIBAEBAwBBwnAgQIECBAgAABAgQIECBAgAABAgQIECBAgAABAgQIECBAYCMgYNg4WyFAgAABAgQIECBAgAABAgQIECBAgAABAgQIECBAgAABAgSCgIAh4DgRIECAAAECBAgQIECAAAECBAgQIECAAAECBAgQIECAAAECGwEBw8bZCgECBAgQIECAAAECBAgQIECAAAECBAgQIECAAAECBAgQIBAEBAwBx4kAAQIECBAgQIAAAQIECBAgQIAAAQIECBAgQIAAAQIECBDYCAgYNs5WCBAgQIAAAQIECBAgQIAAAQIECBAgQIAAAQIECBAgQIAAgSAgYAg4TgQIECBAgAABAgQIECBAgAABAgQIECBAgAABAgQIECBAgMBGQMCwcbZCgAABAgQIECBAgAABAgQIECBAgAABAgQIECBAgAABAgQIBAEBQ8BxIkCAAAECBAgQIECAAAECBAgQIECAAAECBAgQIECAAAECBDYCAoaNsxUCBAgQIECAAAECBAgQIECAAAECBAgQIECAAAECBAgQIEAgCAgYAo4TAQIECBAgQIAAAQIECBAgQIAAAQIECBAgQIAAAQIECBAgsBEQMGycrRAgQIAAAQIECBAgQIAAAQIECBAgQIAAAQIECBAgQIAAAQJBQMAQcJwIECBAgAABAgQIECBAgAABAgQIECBAgAABAgQIECBAgACBjYCAYeNshQABAgQIECBAgAABAgQIECBAgAABAgQIECBAgAABAgQIEAgCAoaA40SAAAECBAgQIECAAAECBAgQIECAAAECBAgQIECAAAECBAhsBAQMG2crBAgQIECAAAECBAgQIECAAAECBAgQIECAAAECBAgQIECAQBAQMAQcJwIECBAgQIAAAQIECBAgQIAAAQIECBAgQIAAAQIECBAgQGAjIGDYOFshQIAAAQIECBAgQIAAAQIECBAgQIAAAQIECBAgQIAAAQIEgoCAIeA4ESBAgAABAgQIECBAgAABAgQIECBAgAABAgQIECBAgAABAhsBAcPG2QoBAgQIECBAgAABAgQIECBAgAABAgQIECBAgAABAgQIECAQBAQMAceJAAECBAgQIECAAAECBAgQIECAAAECBAgQIECAAAECBAgQ2AgIGDbOVggQIECAAAECBAgQIECAAAECBAgQIECAAAECBAgQIECAAIEgIGAIOE4ECBAgQIAAAQIECBAgQIAAAQIECBAgQIAAAQIECBAgQIDARkDAsHG2QoAAAQIECBAgQIAAAQIECBAgQIAAAQIECBAgQIAAAQIECAQBAUPAcSJAgAABAgQIECBAgAABAgQIECBAgAABAgQIECBAgAABAgQ2AgKGjbMVAgQIECBAgAABAgQIECBAgAABAgQIECBAgAABAgQIECBAIAgIGAKOEwECBAgQIECAAAECBAgQIECAAAECBAgQIECAAAECBAgQILAREDBsnK0QIECAAAECBAgQIECAAAECBAgQIECAAAECBAgQIECAAAECQUDAEHCcCBAgQIAAAQIECBAgQIAAAQIECBAgQIAAAQIECBAgQIAAgY2AgGHjbIUAAQIECBAgQIAAAQIECBAgQIAAAQIECBAgQIAAAQIECBAIAgKGgONEgAABAgQIECBAgAABAgQIECBAgAABAgQIECBAgAABAgQIbAQEDBtnKwQIECBAgAABAgQIECBAgAABAgQIECBAgAABAgQIECBAgEAQEDAEHCcCBAgQIECAAAECBAgQIECAAAECBAgQIECAAAECBAgQIEBgIyBg2DhbIUCAAAECBAgQIECAAAECBAgQIECAAAECBAgQIECAAAECBIKAgCHgOBEgQIAAAQIECBAgQIAAAQIECBAgQIAAAQIECBAgQIAAAQIbAQHDxtkKAQIECBAgQIAAAQIECBAgQIAAAQIECBAgQIAAAQIECBAgEAQEDAHHiQABAgQIECBAgAABAgQIECBAgAABAgQIECBAgAABAgQIENgICBg2zlYIECBAgAABAgQIECBAgAABAgQIECBAgAABAgQIECBAgACBICBgCDhOBAgQIECAAAECBAgQIECAAAECBAgQIECAAAECBAgQIECAwEZAwLBxtkKAAAECBAgQIECAAAECBAgQIECAAAECBAgQIECAAAECBAgEAQFDwHEiQIAAAQIECBAgQIAAAQIECBAgQIAAAQIECBAgQIAAAQIENgICho2zFQIECBAgQIAAAQIECBAgQIAAAQIECBAgQIAAAQIECBAgQCAICBgCjhMBAgQIECBAgAABAgQIECBAgAABAgQIECBAgAABAgQIECCwERAwbJytECBAgAABAgQIECBAgAABAgQIECBAgAABAgQIECBAgAABAkFAwBBwnAgQIECAAAECBAgQIECAAAECBAgQIECAAAECBAgQIECAAIGNgIBh42yFAAECBAgQIECAAAECBAgQIECAAAECBAgQIECAAAECBAgQCAIChoDjRIAAAQIECBAgQIAAAQIECBAgQIAAAQIECBAgQIAAAQIECGwEBAwbZysECBAgQIAAAQIECBAgQIAAAQIECBAgQIAAAQIECBAgQIBAEBAwBBwnAgQIECBAgAABAgQIECBAgAABAgQIECBAgAABAgQIECBAYCMgYNg4WyFAgAABAgQIECBAgAABAgQIECBAgAABAgQIECBAgAABAgSCgIAh4DgRIECAAAECBAgQIECAAAECBAgQIECAAAECBAgQIECAAAECGwEBw8bZCgECBAgQIECAAAECBAgQIECAAAECBAgQIECAAAECBAgQIBAEBAwBx4kAAQIECBAgQIAAAQIECBAgQIAAAQIECBAgQIAAAQIECBDYCAgYNs5WCBAgQIAAAQIECBAgQIAAAQIECBAgQIAAAQIECBAgQIAAgSAgYAg4TgQIECBAgAABAgQIECBAgAABAgQIECBAgAABAgQIECBAgMBGQMCwcbZCgAABAgQIECBAgAABAgQIECBAgAABAgQIECBAgAABAgQIBAEBQ8BxIkCAAAECBAgQIECAAAECBAgQIECAAAECBAgQIECAAAECBDYCAoaNsxUCBAgQIECAAAECBAgQIECAAAECBAgQIECAAAECBAgQIEAgCAgYAo4TAQIECBAgQIAAAQIECBAgQIAAAQIECBAgQIAAAQIECBAgsBEQMGycrRAgQIAAAQIECBAgQIAAAQIECBAgQIAAAQIECBAgQIAAAQJBQMAQcJwIECBAgAABAgQIECBAgAABAgQIECBAgAABAgQIECBAgACBjYCAYeNshQABAgQIECBAgAABAgQIECBAgAABAgQIECBAgAABAgQIEAgCAoaA40SAAAECBAgQIECAAAECBAgQIECAAAECBAgQIECAAAECBAhsBAQMG2crBAgQIECAAAECBAgQIECAAAECBAgQIECAAAECBAgQIECAQBAQMAQcJwIECBAgQIAAAQIECBAgQIAAAQIECBAgQIAAAQIECBAgQGAjIGDYOFshQIAAAQIECBAgQIAAAQIECBAgQIAAAQIECBAgQIAAAQIEgoCAIeA4ESBAgAABAgQIECBAgAABAgQIECBAgAABAgQIECBAgAABAhsBAcPG2QoBAgQIECBAgAABAgQIECBAgAABAgQIECBAgAABAgQIECAQBAQMAceJAAECBAgQIECAAAECBAgQIECAAAECBAgQIECAAAECBAgQ2AgIGDbOVggQIECAAAECBAgQIECAAAECBAgQIECAAAECBAgQIECAAIEgIGAIOE4ECBAgQIAAAQIECBAgQIAAAQIECBAgQIAAAQIECBAgQIDARkDAsHG2QoAAAQIECBAgQIAAAQIECBAgQIAAAQIECBAgQIAAAQIECAQBAUPAcSJAgAABAgQIECBAgAABAgQIECBAgAABAgQIECBAgAABAgQ2AgKGjbMVAgQIECBAgAABAgQIECBAgAABAgQIECBAgAABAgQIECBAIAgIGAKOEwECBAgQIECAAAECBAgQIECAAAECBAgQIECAAAECBAgQILAREDBsnK0QIECAAAECBAgQIECAAAECBAgQIECAAAECBAgQIECAAAECQUDAEHCcCBAgQIAAAQIECBAgQIAAAQIECBAgQIAAAQIECBAgQIAAgY2AgGHjbIUAAQIECBAgQIAAAQIECBAgQIAAAQIECBAgQIAAAQIECBAIAgKGgONEgAABAgQIECBAgAABAgQIECBAgAABAgQIECBAgAABAgQIbAQEDBtnKwQIECBAgAABAgQIECBAgAABAgQIECBAgAABAgQIECBAgEAQEDAEHCcCBAgQIECAAAECBAgQIECAAAECBAgQIECAAAECBAgQIEBgIyBg2DhbIUCAAAECBAgQIECAAAECBAgQIECAAAECBAgQIECAAAECBIKAgCHgOBEgQIAAAQIECBAgQIAAAQIECBAgQIAAAQIECBAgQIAAAQIbged//edmyAoBAgQIECBAgAABAgQIECBAgAABAgQIECBAgAABAgQIECBA4GMCz775y7t3Hzv6fwIECBAgQIAAAQIECBAgQIAAAQIECBAgQIAAAQIECBAgQIDAQsArJBbKNggQIECAAAECBAgQIECAAAECBAgQIECAAAECBAgQIECAAIEoIGCIPI4ECBAgQIAAAQIECBAgQIAAAQIECBAgQIAAAQIECBAgQIDAQuD5dy8XMzYIECBAgAABAgQIECBAgAABAgQIECBAgAABAgQIECBAgAABAh8XePbjj2/fffzsQoAAAQIECBAgQIAAAQIECBAgQIAAAQIECBAgQIAAAQIECBDoC3iFRN/YAgECBAgQIECAAAECBAgQIECAAAECBAgQIECAAAECBAgQIHAICBgOIGcCBAgQIECAAAECBAgQIECAAAECBAgQIECAAAECBAgQIECgLyBg6BtbIECAAAECBAgQIECAAAECBAgQIECAAAECBAgQIECAAAECBA4BAcMB5EyAAAECBAgQIECAAAECBAgQIECAAAECBAgQIECAAAECBAj0BQQMfWMLBAgQIECAAAECBAgQIECAAAECBAgQIECAAAECBAgQIECAwCEgYDiAnAkQIECAAAECBAgQIECAAAECBAgQIECAAAECBAgQIECAAIG+gIChb2yBAAECBAgQIECAAAECBAgQIECAAAECBAgQIECAAAECBAgQOAQEDAeQMwECBAgQIECAAAECBAgQIECAAAECBAgQIECAAAECBAgQINAXEDD0jS0QIECAAAECBAgQIECAAAECBAgQIECAAAECBAgQIECAAAECh4CA4QByJkCAAAECBAgQIECAAAECBAgQIECAAAECBAgQIECAAAECBPoCAoa+sQUCBAgQIECAAAECBAgQIECAAAECBAgQIECAAAECBAgQIEDgEBAwHEDOBAgQIECAAAECBAgQIECAAAECBAgQIECAAAECBAgQIECAQF9AwNA3tkCAAAECBAgQIECAAAECBAgQIECAAAECBAgQIECAAAECBAgcAgKGA8iZAAECBAgQIECAAAECBAgQIECAAAECBAgQIECAAAECBAgQ6AsIGPrGFggQIECAAAECBAgQIECAAAECBAgQIECAAAECBAgQIECAAIFDQMBwADkTIECAAAECBAgQIECAAAECBAgQIECAAAECBAgQIECAAAECfQEBQ9/YAgECBAgQIECAAAECBAgQIECAAAECBAgQIECAAAECBAgQIHAICBgOIGcCBAgQIECAAAECBAgQIECAAAECBAgQIECAAAECBAgQIECgLyBg6BtbIECAAAECBAgQIECAAAECBAgQIECAAAECBAgQIECAAAECBA4BAcMB5EyAAAECBAgQIECAAAECBAgQIECAAAECBAgQIECAAAECBAj0BQQMfWMLBAgQIECAAAECBAgQIECAAAECBAgQIECAAAECBAgQIECAwCEgYDiAnAkQIECAAAECBAgQIECAAAECBAgQIECAAAECBAgQIECAAIG+gIChb2yBAAECBAgQIECAAAECBAgQIECAAAECBAgQIECAAAECBAgQOAQEDAeQMwECBAgQIECAAAECBAgQIECAAAECBAgQIECAAAECBAgQINAXEDD0jS0QIECAAAECBAgQIECAAAECBAgQIECAAAECBAgQIECAAAECh4CA4QByJkCAAAECBAgQIECAAAECBAgQIECAAAECBAgQIECAAAECBPoCAoa+sQUCBAgQIECAAAECBAgQIECAAAECBAgQIECAAAECBAgQIEDgEBAwHEDOBAgQIECAAAECBAgQIECAAAECBAgQIECAAAECBAgQIECAQF9AwNA3tkCAAAECBAgQIECAAAECBAgQIECAAAECBAgQIECAAAECBAgcAgKGA8iZAAECBAgQIECAAAECBAgQIECAAAECBAgQIECAAAECBAgQ6AsIGPrGFggQIECAAAECBAgQIECAAAECBAgQIECAAAECBAgQIECAAIFDQMBwADkTIECAAAECBAgQIECAAAECBAgQIECAAAECBAgQIECAAAECfQEBQ9/YAgECBAgQIECAAAECBAgQIECAAAECBAgQIECAAAECBAgQIHAICBgOIGcCBAgQIECAAAECBAgQIECAAAECBAgQIECAAAECBAgQIECgLyBg6BtbIECAAAECBAgQIECAAAECBAgQIECAAAECBAgQIECAAAECBA4BAcMB5EyAAAECBAgQIECAAAECBAgQIECAAAECBAgQIECAAAECBAj0BQQMfWMLBAgQIECAAAECBAgQIECAAAECBAgQIECAAAECBAgQIECAwCEgYDiAnAkQIECAAAECBAgQIECAAAECBAgQIECAAAECBAgQIECAAIG+gIChb2yBAAECBAgQIECAAAECBAgQIECAAAECBAgQIECAAAECBAgQOAQEDAeQMwECBAgQIECAAAECBAgQIECAAAECBAgQIECAAAECBAgQINAXEDD0jS0QIECAAAECBAgQIECAAAECBAgQIECAAAECBAgQIECAAAECh4CA4QByJkCAAAECBAgQIECAAAECBAgQIECAAAECBAgQIECAAAECBPoCAoa+sQUCBAgQIECAAAECBAgQIECAAAECBAgQIECAAAECBAgQIEDgEBAwHEDOBAgQIECAAAECBAgQIECAAAECBAgQIECAAAECBAgQIECAQF9AwNA3tkCAAAECBAgQIECAAAECBAgQIECAAAECBAgQIECAAAECBAgcAgKGA8iZAAECBAgQIECAAAECBAgQIECAAAECBAgQIECAAAECBAgQ6AsIGPrGFggQIECAAAECBAgQIECAAAECBAgQIECAAAECBAgQIECAAIFDQMBwADkTIECAAAECBAgQIECAAAECBAgQIECAAAECBAgQIECAAAECfQEBQ9/YAgECBAgQIECAAAECBAgQIECAAAECBAgQIECAAAECBAgQIHAICBgOIGcCBAgQIECAAAECBAgQIECAAAECBAgQIECAAAECBAgQIECgLyBg6BtbIECAAAECBAgQIECAAAECBAgQIECAAAECBAgQIECAAAECBA4BAcMB5EyAAAECBAgQIECAAAECBAgQIECAAAECBAgQIECAAAECBAj0BQQMfWMLBAgQIECAAAECBAgQIECAAAECBAgQIECAAAECBAgQIECAwCEgYDiAnAkQIECAAAECBAgQIECAAAECBAgQIECAAAECBAgQIECAAIG+gIChb2yBAAECBAgQIECAAAECBAgQIECAAAECBAgQIECAAAECBAgQOAQEDAeQMwECBAgQIECAAAECBAgQIECAAAECBAgQIECAAAECBAgQINAXEDD0jS0QIECAAAECBAgQIECAAAECBAgQIECAAAECBAgQIECAAAECh4CA4QByJkCAAAECBAgQIECAAAECBAgQIECAAAECBAgQIECAAAECBPoCAoa+sQUCBAgQIECAAAECBAgQIECAAAECBAgQIECAAAECBAgQIEDgEBAwHEDOBAgQIECAAAECBAgQIECAAAECBAgQIECAAAECBAgQIECAQF9AwNA3tkCAAAECBAgQIECAAAECBAgQIECAAAECBAgQIECAAAECBAgcAgKGA8iZAAECBAgQIECAAAECBAgQIECAAAECBAgQIECAAAECBAgQ6AsIGPrGFggQIECAAAECBAgQIECAAAECBAgQIECAAAECBAgQIECAAIFDQMBwADkTIECAAAECBAgQIECAAAECBAgQIECAAAECBAgQIECAAAECfQEBQ9/YAgECBAgQIECAAAECBAgQIECAAAECBAgQIECAAAECBAgQIHAICBgOIGcCBAgQIECAAAECBAgQIECAAAECBAgQIECAAAECBAgQIECgLyBg6BtbIECAAAECBAgQIECAAAECBAgQIECAAAECBAgQIECAAAECBA4BAcMB5EyAAAECBAgQIECAAAECBAgQIECAAAECBAgQIECAAAECBAj0BQQMfWMLBAgQIECAAAECBAgQIECAAAECBAgQIECAAAECBAgQIECAwCEgYDiAnAkQIECAAAECBAgQIECAAAECBAgQIECAAAECBAgQIECAAIG+gIChb2yBAAECBAgQIECAAAECBAgQIECAAAECBAgQIECAAAECBAgQOAQEDAeQMwECBAgQIECAAAECBAgQIECAAAECBAgQIECAAAECBAgQINAXEDD0jS0QIECAAAECBAgQIECAAAECBAgQIECAAAECBAgQIECAAAECh4CA4QByJkCAAAECBAgQIECAAAECBAgQIECAAAECBAgQIECAAAECBPoCAoa+sQUCBAgQIECAAAECBAgQIECAAAECBAgQIECAAAECBAgQIEDgEBAwHEDOBAgQIECAAAECBAgQIECAAAECBAgQIECAAAECBAgQIECAQF9AwNA3tkCAAAECBAgQIECAAAECBAgQIECAAAECBAgQIECAAAECBAgcAgKGA8iZAAECBAgQIECAAAECBAgQIECAAAECBAgQIECAAAECBAgQ6AsIGPrGFggQIECAAAECBAgQIECAAAECBAgQIECAAAECBAgQIECAAIFDQMBwADkTIECAAAECBAgQIECAAAECBAgQIECAAAECBAgQIECAAAECfQEBQ9/YAgECBAgQIECAAAECBAgQIECAAAECBAgQIECAAAECBAgQIHAICBgOIGcCBAgQIECAAAECBAgQIECAAAECBAgQIECAAAECBAgQIECgLyBg6BtbIECAAAECBAgQIECAAAECBAgQIECAAAECBAgQIECAAAECBA4BAcMB5EyAAAECBAgQIECAAAECBAgQIECAAAECBAgQIECAAAECBAj0BQQMfWMLBAgQIECAAAECBAgQIECAAAECBAgQIECAAAECBAgQIECAwCEgYDiAnAkQIECAAAECBAgQIECAAAECBAgQIECAAAECBAgQIECAAIG+gIChb2yBAAECBAgQIECAAAECBAgQIECAAAECBAgQIECAAAECBAgQOAQEDAeQMwECBAgQIECAAAECBAgQIECAAAECBAgQIECAAAECBAgQINAXEDD0jS0QIECAAAECBAgQIECAAAECBAgQIECAAAECBAgQIECAAAECh4CA4QByJkCAAAECBAgQIECAAAECBAgQIECAAAECBAgQIECAAAECBPoCAoa+sQUCBAgQIECAAAECBAgQIECAAAECBAgQIECAAAECBAgQIEDgEBAwHEDOBAgQIECAAAECBAgQIECAAAECBAgQIECAAAECBAgQIECAQF9AwNA3tkCAAAECBAgQIECAAAECBAgQIECAAAECBAgQIECAAAECBAgcAgKGA8iZAAECBAgQIECAAAECBAgQIECAAAECBAgQIECAAAECBAgQ6AsIGPrGFggQIECAAAECBAgQIECAAAECBAgQIECAAAECBAgQIECAAIFDQMBwADkTIECAAAECBAgQIECAAAECBAgQIECAAAECBAgQIECAAAECfQEBQ9/YAgECBAgQIECAAAECBAgQIECAAAECBAgQIECAAAECBAgQIHAICBgOIGcCBAgQIECAAAECBAgQIECAAAECBAgQIECAAAECBAgQIECgLyBg6BtbIECAAAECBAgQIECAAAECBAgQIECAAAECBAgQIECAAAECBA4BAcMB5EyAAAECBAgQIECAAAECBAgQIECAAAECBAgQIECAAAECBAj0BQQMfWMLBAgQIECAAAECBAgQIECAAAECBAgQIECAAAECBAgQIECAwCEgYDiAnAkQIECAAAECBAgQIECAAAECBAgQIECAAAECBAgQIECAAIG+gIChb2yBAAECBAgQIECAAAECBAgQIECAAAECBAgQIECAAAECBAgQOAQEDAeQMwECBAgQIECAAAECBAgQIECAAAECBAgQIECAAAECBAgQINAXEDD0jS0QIECAAAECBAgQIECAAAECBAgQIECAAAECBAgQIECAAAECh4CA4QByJkCAAAECBAgQIECAAAECBAgQIECAAAECBAgQIECAAAECBPoCAoa+sQUCBAgQIECAAAECBAgQIECAAAECBAgQIECAAAECBAgQIEDgEBAwHEDOBAgQIECAAAECBAgQIECAAAECBAgQIECAAAECBAgQIECAQF9AwNA3tkCAAAECBAgQIECAAAECBAgQIECAAAECBAgQIECAAAECBAgcAgKGA8iZAAECBAgQIECAAAECBAgQIECAAAECBAgQIECAAAECBAgQ6AsIGPrGFggQIECAAAECBAgQIECAAAECBAgQIECAAAECBAgQIECAAIFDQMBwADkTIECAAAECBAgQIECAAAECBAgQIECAAAECBAgQIECAAAECfQEBQ9/YAgECBAgQIECAAAECBAgQIECAAAECBAgQIECAAAECBAgQIHAICBgOIGcCBAgQIECAAAECBAgQIECAAAECBAgQIECAAAECBAgQIECgLyBg6BtbIECAAAECBAgQIECAAAECBAgQIECAAAECBAgQIECAAAECBA4BAcMB5EyAAAECBAgQIECAAAECBAgQIECAAAECBAgQIECAAAECBAj0BQQMfWMLBAgQIECAAAECBAgQIECAAAECBAgQIECAAAECBAgQIECAwCEgYDiAnAkQIECAAAECBAgQIECAAAECBAgQIECAAAECBAgQIECAAIG+gIChb2yBAAECBAgQIECAAAECBAgQIECAAAECBAgQIECAAAECBAgQOAQEDAeQMwECBAgQIECAAAECBAgQIECAAAECBAgQIECAAAECBAgQINAXEDD0jS0QIECAAAECBAgQIECAAAECBAgQIECAAAECBAgQIECAAAECh4CA4QByJkCAAAECBAgQIECAAAECBAgQIECAAAECBAgQIECAAAECBPoCAoa+sQUCBAgQIECAAAECBAgQIECAAAECBAgQIECAAAECBAgQIEDgEBAwHEDOBAgQIECAAAECBAgQIECAAAECBAgQIECAAAECBAgQIECAQF9AwNA3tkCAAAECBAgQIECAAAECBAgQIECAAAECBAgQIECAAAECBAgcAgKGA8iZAAECBAgQIECAAAECBAgQIECAAAECBAgQIECAAAECBAgQ6AsIGPrGFggQIECAAAECBAgQIECAAAECBAgQIECAAAECBAgQIECAAIFDQMBwADkTIECAAAECBAgQIECAAAECBAgQIECAwp2oyAAAAS5JREFUAAECBAgQIECAAAECfQEBQ9/YAgECBAgQIECAAAECBAgQIECAAAECBAgQIECAAAECBAgQIHAICBgOIGcCBAgQIECAAAECBAgQIECAAAECBAgQIECAAAECBAgQIECgLyBg6BtbIECAAAECBAgQIECAAAECBAgQIECAAAECBAgQIECAAAECBA4BAcMB5EyAAAECBAgQIECAAAECBAgQIECAAAECBAgQIECAAAECBAj0BQQMfWMLBAgQIECAAAECBAgQIECAAAECBAgQIECAAAECBAgQIECAwCEgYDiAnAkQIECAAAECBAgQIECAAAECBAgQIECAAAECBAgQIECAAIG+gIChb2yBAAECBAgQIECAAAECBAgQIECAAAECBAgQIECAAAECBAgQOAT+B4UALFerMA1rAAAAAElFTkSuQmCC;" vertex="1" parent="1">
          <mxGeometry x="440" y="140" width="2096" height="1394" as="geometry" />
        </mxCell>
        <mxCell id="_bihI_Zap63-RLcw_ckO-4" value="company.economic_type" style="text;strokeColor=none;fillColor=none;html=1;fontSize=26;fontStyle=1;verticalAlign=middle;align=center;" vertex="1" parent="1">
          <mxGeometry x="1750" y="460" width="550" height="90" as="geometry" />
        </mxCell>
        <mxCell id="_bihI_Zap63-RLcw_ckO-5" value="company.company_registration_area" style="text;strokeColor=none;fillColor=none;html=1;fontSize=26;fontStyle=1;verticalAlign=middle;align=center;" vertex="1" parent="1">
          <mxGeometry x="1750" y="690" width="550" height="90" as="geometry" />
        </mxCell>
      </root>
    </mxGraphModel>
  </diagram>
</mxfile>
